<?xml version="1.0" encoding="UTF-8"?>
<svg width="600px" height="160px" viewBox="0 0 600 160" version="1.1" xmlns="http://www.w3.org/2000/svg" xmlns:xlink="http://www.w3.org/1999/xlink" style="background: #FFFFFF;">
    <!-- Generator: Sketch 49.2 (51160) - http://www.bohemiancoding.com/sketch -->
    <title>demo01</title>
    <desc>Created with Sketch.</desc>
    <defs>
        <linearGradient x1="50%" y1="0%" x2="50%" y2="100%" id="linearGradient-1">
            <stop stop-color="#7355FE" offset="0%"></stop>
            <stop stop-color="#5C36FB" offset="62.5835441%"></stop>
            <stop stop-color="#3C19C4" offset="100%"></stop>
        </linearGradient>
        <rect id="path-2" x="0" y="0" width="70" height="70"></rect>
        <filter x="-6.6%" y="-7.9%" width="114.3%" height="116.4%" filterUnits="objectBoundingBox" id="filter-4">
            <feOffset dx="0" dy="0" in="SourceAlpha" result="shadowOffsetOuter1"></feOffset>
            <feGaussianBlur stdDeviation="1" in="shadowOffsetOuter1" result="shadowBlurOuter1"></feGaussianBlur>
            <feColorMatrix values="0 0 0 0 0   0 0 0 0 0   0 0 0 0 0  0 0 0 0.4 0" type="matrix" in="shadowBlurOuter1" result="shadowMatrixOuter1"></feColorMatrix>
            <feMerge>
                <feMergeNode in="shadowMatrixOuter1"></feMergeNode>
                <feMergeNode in="SourceGraphic"></feMergeNode>
            </feMerge>
        </filter>
        <path d="M70,21.8971667 C70,21.0606667 70,20.2253333 69.9953333,19.3888333 C69.9906667,18.6853333 69.9825,17.9806667 69.9638333,17.2771667 C69.923,15.743 69.832,14.196 69.5601667,12.6793333 C69.2836667,11.1393333 68.8321667,9.70666667 68.1193333,8.30783333 C67.4193333,6.93233333 66.5058333,5.67583333 65.415,4.585 C64.3241667,3.49533333 63.0676667,2.58066667 61.6921667,1.88066667 C60.2945,1.169 58.8618333,0.7175 57.323,0.441 C55.8051667,0.168 54.2581667,0.0781666667 52.724,0.0361666667 C52.0193333,0.0175 51.3158333,0.00933333333 50.6111667,0.00466666667 C49.7758333,0 48.9393333,0 48.1028333,0 L21.8971667,0 C21.0618333,0 20.2253333,0 19.39,0.00466666667 C18.6853333,0.00933333333 17.9806667,0.0175 17.2771667,0.0361666667 C15.743,0.0781666667 14.1948333,0.168 12.6781667,0.441 C11.1393333,0.7175 9.70666667,1.169 8.309,1.88066667 C6.9335,2.58066667 5.67583333,3.49533333 4.58616667,4.585 C3.49533333,5.67583333 2.58183333,6.93233333 1.88183333,8.30783333 C1.169,9.70666667 0.7175,11.1393333 0.441,12.6793333 C0.169166667,14.196 0.0781666667,15.743 0.0373333333,17.2771667 C0.0186666667,17.9806667 0.00933333333,18.6853333 0.00583333333,19.3888333 C0,20.2253333 0,21.0606667 0,21.8971667 L0,48.1028333 C0,48.9393333 0,49.7746667 0.00583333333,50.6111667 C0.00933333333,51.3146667 0.0186666667,52.0193333 0.0373333333,52.7228333 C0.0781666667,54.257 0.169166667,55.804 0.441,57.3206667 C0.7175,58.8606667 1.169,60.2945 1.88183333,61.6933333 C2.58183333,63.0676667 3.49533333,64.3241667 4.58616667,65.4138333 C5.67583333,66.5058333 6.9335,67.4193333 8.309,68.1193333 C9.70666667,68.831 11.1393333,69.2825 12.6781667,69.559 C14.1948333,69.8308333 15.743,69.923 17.2771667,69.9638333 C17.9806667,69.9825 18.6853333,69.9906667 19.39,69.9953333 C20.2253333,70 21.0618333,70 21.8971667,70 L48.1028333,70 C48.9393333,70 49.7758333,70 50.6111667,69.9953333 C51.3158333,69.9906667 52.0193333,69.9825 52.724,69.9638333 C54.2581667,69.923 55.8051667,69.8308333 57.323,69.559 C58.8618333,69.2825 60.2945,68.831 61.6921667,68.1193333 C63.0676667,67.4193333 64.3241667,66.5058333 65.415,65.4138333 C66.5058333,64.3241667 67.4193333,63.0676667 68.1193333,61.6933333 C68.8321667,60.2945 69.2836667,58.8606667 69.5601667,57.3206667 C69.832,55.804 69.923,54.257 69.9638333,52.7228333 C69.9825,52.0193333 69.9906667,51.3146667 69.9953333,50.6111667 C70,49.7746667 70,48.9393333 70,48.1028333 L70,21.8971667 Z" id="path-5"></path>
        <filter x="-6.6%" y="-7.9%" width="114.3%" height="116.4%" filterUnits="objectBoundingBox" id="filter-7">
            <feOffset dx="0" dy="0" in="SourceAlpha" result="shadowOffsetOuter1"></feOffset>
            <feGaussianBlur stdDeviation="1" in="shadowOffsetOuter1" result="shadowBlurOuter1"></feGaussianBlur>
            <feColorMatrix values="0 0 0 0 0   0 0 0 0 0   0 0 0 0 0  0 0 0 0.4 0" type="matrix" in="shadowBlurOuter1" result="shadowMatrixOuter1"></feColorMatrix>
            <feMerge>
                <feMergeNode in="shadowMatrixOuter1"></feMergeNode>
                <feMergeNode in="SourceGraphic"></feMergeNode>
            </feMerge>
        </filter>
    </defs>
    <g id="demo01" stroke="none" stroke-width="1" fill="none" fill-rule="evenodd">
        <path d="M205.256,127.566 C207.048,127.566 207.958,128.56 207.958,130.548 L207.958,135 L206.838,135 L206.838,130.632 C206.838,129.218 206.194,128.518 204.934,128.518 C204.43,128.518 203.996,128.7 203.632,129.064 C203.24,129.456 203.03,129.974 202.988,130.632 L202.988,135 L201.868,135 L201.868,127.762 L202.988,127.762 L202.988,128.826 C203.24,128.42 203.562,128.112 203.954,127.902 C204.346,127.678 204.78,127.566 205.256,127.566 Z M212.928,127.566 C214.006,127.566 214.874,127.93 215.518,128.686 C216.134,129.4 216.442,130.296 216.442,131.388 C216.442,132.466 216.134,133.362 215.532,134.062 C214.874,134.818 214.006,135.196 212.928,135.196 C211.836,135.196 210.982,134.818 210.338,134.062 C209.722,133.362 209.414,132.466 209.414,131.388 C209.414,130.296 209.722,129.4 210.338,128.686 C210.982,127.93 211.836,127.566 212.928,127.566 Z M212.928,128.504 C212.158,128.504 211.556,128.798 211.136,129.386 C210.744,129.918 210.562,130.576 210.562,131.388 C210.562,132.186 210.744,132.844 211.136,133.376 C211.556,133.964 212.158,134.258 212.928,134.258 C213.684,134.258 214.286,133.964 214.734,133.376 C215.112,132.844 215.308,132.172 215.308,131.388 C215.308,130.576 215.112,129.918 214.734,129.386 C214.286,128.798 213.684,128.504 212.928,128.504 Z M221.076,127.566 C221.468,127.566 221.804,127.622 222.07,127.734 L222.07,128.854 C221.706,128.742 221.342,128.7 220.992,128.7 C220.432,128.7 219.956,128.938 219.578,129.442 C219.186,129.918 219.004,130.492 219.004,131.164 L219.004,135 L217.898,135 L217.898,127.762 L219.004,127.762 L219.004,129.022 C219.2,128.602 219.452,128.266 219.76,128.028 C220.138,127.72 220.572,127.566 221.076,127.566 Z M226.172,127.566 C227.278,127.566 228.034,128.014 228.44,128.938 C228.72,128.462 229.056,128.112 229.448,127.902 C229.798,127.678 230.218,127.566 230.722,127.566 C231.478,127.566 232.08,127.804 232.556,128.28 C233.004,128.77 233.242,129.428 233.242,130.254 L233.242,135 L232.122,135 L232.122,130.436 C232.122,129.792 231.982,129.316 231.716,129.008 C231.436,128.672 230.988,128.518 230.372,128.518 C229.896,128.518 229.49,128.686 229.182,129.05 C228.846,129.414 228.692,129.876 228.692,130.464 L228.692,135 L227.572,135 L227.572,130.436 C227.572,129.148 227.012,128.518 225.906,128.518 C225.388,128.518 224.968,128.714 224.632,129.134 C224.296,129.526 224.128,130.016 224.128,130.59 L224.128,135 L223.008,135 L223.008,127.762 L224.128,127.762 L224.128,128.728 C224.674,127.944 225.36,127.566 226.172,127.566 Z M238.128,127.566 C239.164,127.566 239.92,127.832 240.424,128.378 C240.844,128.854 241.068,129.512 241.068,130.352 L241.068,135 L240.018,135 L240.018,133.782 C239.738,134.174 239.36,134.496 238.912,134.748 C238.38,135.042 237.778,135.196 237.106,135.196 C236.378,135.196 235.804,135.014 235.37,134.65 C234.922,134.272 234.698,133.782 234.698,133.194 C234.698,132.368 235.02,131.752 235.692,131.332 C236.28,130.94 237.12,130.73 238.212,130.716 L239.948,130.688 L239.948,130.31 C239.948,129.092 239.318,128.49 238.058,128.49 C237.526,128.49 237.092,128.588 236.756,128.812 C236.378,129.036 236.14,129.386 236.028,129.848 L234.922,129.764 C235.076,129.008 235.454,128.434 236.042,128.07 C236.574,127.734 237.26,127.566 238.128,127.566 Z M239.948,131.528 L238.282,131.556 C236.658,131.584 235.846,132.116 235.846,133.166 C235.846,133.502 235.972,133.768 236.252,133.992 C236.532,134.202 236.896,134.314 237.344,134.314 C238.03,134.314 238.632,134.09 239.164,133.642 C239.682,133.208 239.948,132.704 239.948,132.144 L239.948,131.528 Z M243.028,124.808 L244.134,124.808 L244.134,135 L243.028,135 L243.028,124.808 Z" id="normal" fill="#000000"></path>
        <g id="app-icon" transform="translate(188.000000, 25.000000)">
            <mask id="mask-3" fill="white">
                <use xlink:href="#path-2"></use>
            </mask>
            <use fill="url(#linearGradient-1)" xlink:href="#path-2"></use>
            <g id="logo" filter="url(#filter-4)" mask="url(#mask-3)">
                <g transform="translate(12.250000, 16.625000)">
                    <path d="M2.35316667,22.2145173 C1.064,23.7466337 0.29925,25.654177 0.29925,27.7219493 C0.29925,30.2049134 1.40175,32.4568905 3.19083333,34.1047927 C4.19358333,35.4527042 1.54816667,36.8491522 2.98783333,36.8491522 C2.98783333,36.8491522 10.2678333,36.8678651 10.4883333,36.8678651 C11.63225,36.8678651 12.7324167,36.6988645 13.7596667,36.3865934 C5.74466667,32.5539635 3.12608333,26.6067791 2.35316667,22.2145173" id="Fill-14" fill="#8F7CE0"></path>
                    <path d="M39.2750167,31.7257435 C37.2345167,34.4736117 41.6777667,37.1805455 39.6880167,37.3214768 C39.6880167,37.3214768 24.8742667,37.3600721 24.4256833,37.3600721 C12.9754333,37.3600721 3.69343333,29.0112076 3.69343333,18.7126959 C3.69343333,8.4141841 12.9754333,0.0653196163 24.4256833,0.0653196163 C35.8765167,0.0653196163 45.1579333,8.4141841 45.1579333,18.7126959 C45.1579333,23.7745275 42.9161833,28.3661983 39.2750167,31.7257435 Z M26.7899333,27.1668202 C29.6109333,26.7083549 31.3877667,24.7569533 31.3877667,21.9886179 C31.3877667,20.4576711 30.6341,18.9337416 28.98735,17.9314335 C30.2432667,17.0039768 30.8575167,15.7695121 30.8575167,14.409905 C30.8575167,11.9199236 29.2994333,10.1422008 26.7899333,9.63753806 L26.7899333,8.60072803 C26.7899333,8.47441615 26.68785,8.37149536 26.56185,8.37149536 L25.7510167,8.37149536 C25.6250167,8.37149536 25.5229333,8.47441615 25.5229333,8.60072803 L25.5229333,9.49660675 C25.4371833,9.49368286 25.35085,9.4925133 25.26335,9.4925133 L21.0120167,9.4925133 L21.0120167,8.60072803 C21.0120167,8.47441615 20.9099333,8.37149536 20.7839333,8.37149536 L19.9725167,8.37149536 C19.8471,8.37149536 19.7450167,8.47441615 19.7450167,8.60072803 L19.7450167,9.54338892 L17.4227667,9.54338892 C17.2775167,9.54338892 17.1596833,9.66151392 17.1596833,9.80770823 L17.1596833,11.3673091 C17.1596833,11.5135034 17.2775167,11.6322132 17.4227667,11.6322132 L18.78135,11.6322132 L18.78135,25.1317955 L17.4770167,25.1317955 C17.3294333,25.1317955 17.2104333,25.25109 17.2104333,25.3990387 L17.2104333,27.0036674 C17.2104333,27.1510313 17.3294333,27.2709106 17.4770167,27.2709106 L19.7450167,27.2709106 L19.7450167,28.51941 C19.7450167,28.6451371 19.8471,28.7480579 19.9725167,28.7480579 L20.7839333,28.7480579 C20.9099333,28.7480579 21.0120167,28.6451371 21.0120167,28.51941 L21.0120167,27.2709106 L23.1785167,27.2709106 L25.4651833,27.2709106 L25.5229333,27.2709106 L25.5229333,28.51941 C25.5229333,28.6451371 25.6250167,28.7480579 25.7510167,28.7480579 L26.56185,28.7480579 C26.68785,28.7480579 26.7899333,28.6451371 26.7899333,28.51941 L26.7899333,27.1668202 Z M25.0046417,19.3243144 C26.989725,19.3243144 28.4288083,20.5295402 28.4288083,22.0090266 C28.4288083,23.7434759 27.421975,24.7235625 25.4648917,24.7235625 L21.7216417,24.7235625 L21.7216417,19.3243144 L25.0046417,19.3243144 Z M27.8819917,14.4239397 C27.8819917,15.7578165 26.5869917,16.7764985 24.8317417,16.7764985 L21.7214083,16.7764985 L21.7214083,12.0398029 L25.2634083,12.0398029 C27.0192417,12.0398029 27.8819917,12.9105362 27.8819917,14.4239397 Z" id="Combined-Shape" fill="#FFFFFF"></path>
                </g>
            </g>
        </g>
        <path d="M7.046,127.566 C7.438,127.566 7.774,127.622 8.04,127.734 L8.04,128.854 C7.676,128.742 7.312,128.7 6.962,128.7 C6.402,128.7 5.926,128.938 5.548,129.442 C5.156,129.918 4.974,130.492 4.974,131.164 L4.974,135 L3.868,135 L3.868,127.762 L4.974,127.762 L4.974,129.022 C5.17,128.602 5.422,128.266 5.73,128.028 C6.108,127.72 6.542,127.566 7.046,127.566 Z M12.212,127.566 C13.29,127.566 14.158,127.93 14.802,128.686 C15.418,129.4 15.726,130.296 15.726,131.388 C15.726,132.466 15.418,133.362 14.816,134.062 C14.158,134.818 13.29,135.196 12.212,135.196 C11.12,135.196 10.266,134.818 9.622,134.062 C9.006,133.362 8.698,132.466 8.698,131.388 C8.698,130.296 9.006,129.4 9.622,128.686 C10.266,127.93 11.12,127.566 12.212,127.566 Z M12.212,128.504 C11.442,128.504 10.84,128.798 10.42,129.386 C10.028,129.918 9.846,130.576 9.846,131.388 C9.846,132.186 10.028,132.844 10.42,133.376 C10.84,133.964 11.442,134.258 12.212,134.258 C12.968,134.258 13.57,133.964 14.018,133.376 C14.396,132.844 14.592,132.172 14.592,131.388 C14.592,130.576 14.396,129.918 14.018,129.386 C13.57,128.798 12.968,128.504 12.212,128.504 Z M17.182,127.762 L18.302,127.762 L18.302,132.186 C18.302,132.872 18.442,133.39 18.736,133.726 C19.03,134.062 19.506,134.244 20.164,134.244 C20.64,134.244 21.074,134.048 21.452,133.684 C21.844,133.292 22.082,132.788 22.166,132.172 L22.166,127.762 L23.286,127.762 L23.286,135 L22.166,135 L22.166,133.88 C21.578,134.748 20.794,135.196 19.814,135.196 C18.05,135.196 17.182,134.202 17.182,132.242 L17.182,127.762 Z M28.41,127.566 C30.202,127.566 31.112,128.56 31.112,130.548 L31.112,135 L29.992,135 L29.992,130.632 C29.992,129.218 29.348,128.518 28.088,128.518 C27.584,128.518 27.15,128.7 26.786,129.064 C26.394,129.456 26.184,129.974 26.142,130.632 L26.142,135 L25.022,135 L25.022,127.762 L26.142,127.762 L26.142,128.826 C26.394,128.42 26.716,128.112 27.108,127.902 C27.5,127.678 27.934,127.566 28.41,127.566 Z M38.196,124.808 L39.316,124.808 L39.316,135 L38.266,135 L38.266,133.81 C37.762,134.734 36.95,135.196 35.858,135.196 C34.794,135.196 33.968,134.804 33.38,134.048 C32.834,133.348 32.568,132.452 32.568,131.36 C32.568,130.296 32.834,129.428 33.38,128.728 C33.968,127.944 34.766,127.566 35.802,127.566 C36.838,127.566 37.636,128.07 38.196,129.092 L38.196,124.808 Z M36.04,128.49 C35.242,128.49 34.64,128.77 34.248,129.33 C33.884,129.82 33.716,130.492 33.716,131.36 C33.716,132.228 33.884,132.914 34.234,133.418 C34.626,133.978 35.214,134.272 35.998,134.272 C36.726,134.272 37.286,133.992 37.692,133.432 C38.042,132.928 38.224,132.27 38.224,131.458 L38.224,131.318 C38.224,130.478 38.014,129.792 37.622,129.274 C37.216,128.742 36.684,128.49 36.04,128.49 Z M44.034,127.566 C45.196,127.566 46.078,127.958 46.666,128.742 C47.198,129.442 47.478,130.436 47.506,131.696 L41.794,131.696 C41.85,132.508 42.06,133.138 42.452,133.586 C42.844,134.034 43.39,134.258 44.076,134.258 C44.664,134.258 45.154,134.104 45.518,133.81 C45.826,133.558 46.064,133.18 46.246,132.676 L47.366,132.676 C47.198,133.376 46.876,133.936 46.386,134.384 C45.784,134.916 45.014,135.196 44.076,135.196 C43.04,135.196 42.2,134.846 41.584,134.174 C40.94,133.474 40.632,132.55 40.632,131.374 C40.632,130.31 40.926,129.414 41.542,128.7 C42.158,127.944 42.984,127.566 44.034,127.566 Z M44.062,128.504 C43.418,128.504 42.9,128.714 42.508,129.134 C42.116,129.554 41.892,130.114 41.822,130.828 L46.344,130.828 C46.204,129.274 45.434,128.504 44.062,128.504 Z M54.17,124.808 L55.29,124.808 L55.29,135 L54.24,135 L54.24,133.81 C53.736,134.734 52.924,135.196 51.832,135.196 C50.768,135.196 49.942,134.804 49.354,134.048 C48.808,133.348 48.542,132.452 48.542,131.36 C48.542,130.296 48.808,129.428 49.354,128.728 C49.942,127.944 50.74,127.566 51.776,127.566 C52.812,127.566 53.61,128.07 54.17,129.092 L54.17,124.808 Z M52.014,128.49 C51.216,128.49 50.614,128.77 50.222,129.33 C49.858,129.82 49.69,130.492 49.69,131.36 C49.69,132.228 49.858,132.914 50.208,133.418 C50.6,133.978 51.188,134.272 51.972,134.272 C52.7,134.272 53.26,133.992 53.666,133.432 C54.016,132.928 54.198,132.27 54.198,131.458 L54.198,131.318 C54.198,130.478 53.988,129.792 53.596,129.274 C53.19,128.742 52.658,128.49 52.014,128.49 Z M64.81,127.566 C65.706,127.566 66.42,127.776 66.966,128.196 C67.526,128.63 67.862,129.288 67.988,130.17 L66.882,130.17 C66.784,129.61 66.56,129.19 66.21,128.91 C65.846,128.63 65.384,128.504 64.81,128.504 C64.11,128.504 63.55,128.77 63.144,129.302 C62.752,129.82 62.556,130.52 62.556,131.402 C62.556,132.284 62.738,132.984 63.13,133.488 C63.508,133.992 64.068,134.258 64.796,134.258 C66.028,134.258 66.742,133.628 66.91,132.382 L68.03,132.382 C67.862,133.306 67.512,134.02 66.952,134.496 C66.406,134.958 65.692,135.196 64.796,135.196 C63.704,135.196 62.864,134.832 62.262,134.104 C61.688,133.418 61.408,132.522 61.408,131.416 C61.408,130.31 61.688,129.414 62.262,128.714 C62.878,127.944 63.732,127.566 64.81,127.566 Z M72.58,127.566 C73.658,127.566 74.526,127.93 75.17,128.686 C75.786,129.4 76.094,130.296 76.094,131.388 C76.094,132.466 75.786,133.362 75.184,134.062 C74.526,134.818 73.658,135.196 72.58,135.196 C71.488,135.196 70.634,134.818 69.99,134.062 C69.374,133.362 69.066,132.466 69.066,131.388 C69.066,130.296 69.374,129.4 69.99,128.686 C70.634,127.93 71.488,127.566 72.58,127.566 Z M72.58,128.504 C71.81,128.504 71.208,128.798 70.788,129.386 C70.396,129.918 70.214,130.576 70.214,131.388 C70.214,132.186 70.396,132.844 70.788,133.376 C71.208,133.964 71.81,134.258 72.58,134.258 C73.336,134.258 73.938,133.964 74.386,133.376 C74.764,132.844 74.96,132.172 74.96,131.388 C74.96,130.576 74.764,129.918 74.386,129.386 C73.938,128.798 73.336,128.504 72.58,128.504 Z M80.728,127.566 C81.12,127.566 81.456,127.622 81.722,127.734 L81.722,128.854 C81.358,128.742 80.994,128.7 80.644,128.7 C80.084,128.7 79.608,128.938 79.23,129.442 C78.838,129.918 78.656,130.492 78.656,131.164 L78.656,135 L77.55,135 L77.55,127.762 L78.656,127.762 L78.656,129.022 C78.852,128.602 79.104,128.266 79.412,128.028 C79.79,127.72 80.224,127.566 80.728,127.566 Z M86.048,127.566 C87.84,127.566 88.75,128.56 88.75,130.548 L88.75,135 L87.63,135 L87.63,130.632 C87.63,129.218 86.986,128.518 85.726,128.518 C85.222,128.518 84.788,128.7 84.424,129.064 C84.032,129.456 83.822,129.974 83.78,130.632 L83.78,135 L82.66,135 L82.66,127.762 L83.78,127.762 L83.78,128.826 C84.032,128.42 84.354,128.112 84.746,127.902 C85.138,127.678 85.572,127.566 86.048,127.566 Z M93.468,127.566 C94.63,127.566 95.512,127.958 96.1,128.742 C96.632,129.442 96.912,130.436 96.94,131.696 L91.228,131.696 C91.284,132.508 91.494,133.138 91.886,133.586 C92.278,134.034 92.824,134.258 93.51,134.258 C94.098,134.258 94.588,134.104 94.952,133.81 C95.26,133.558 95.498,133.18 95.68,132.676 L96.8,132.676 C96.632,133.376 96.31,133.936 95.82,134.384 C95.218,134.916 94.448,135.196 93.51,135.196 C92.474,135.196 91.634,134.846 91.018,134.174 C90.374,133.474 90.066,132.55 90.066,131.374 C90.066,130.31 90.36,129.414 90.976,128.7 C91.592,127.944 92.418,127.566 93.468,127.566 Z M93.496,128.504 C92.852,128.504 92.334,128.714 91.942,129.134 C91.55,129.554 91.326,130.114 91.256,130.828 L95.778,130.828 C95.638,129.274 94.868,128.504 93.496,128.504 Z M101.434,127.566 C101.826,127.566 102.162,127.622 102.428,127.734 L102.428,128.854 C102.064,128.742 101.7,128.7 101.35,128.7 C100.79,128.7 100.314,128.938 99.936,129.442 C99.544,129.918 99.362,130.492 99.362,131.164 L99.362,135 L98.256,135 L98.256,127.762 L99.362,127.762 L99.362,129.022 C99.558,128.602 99.81,128.266 100.118,128.028 C100.496,127.72 100.93,127.566 101.434,127.566 Z" id="rounded-corner" fill="#000000"></path>
        <g id="app-icon" transform="translate(18.000000, 25.000000)">
            <mask id="mask-6" fill="white">
                <use xlink:href="#path-5"></use>
            </mask>
            <use fill="url(#linearGradient-1)" xlink:href="#path-5"></use>
            <g id="logo" filter="url(#filter-7)" mask="url(#mask-6)">
                <g transform="translate(12.250000, 16.625000)">
                    <path d="M2.35316667,22.2145173 C1.064,23.7466337 0.29925,25.654177 0.29925,27.7219493 C0.29925,30.2049134 1.40175,32.4568905 3.19083333,34.1047927 C4.19358333,35.4527042 1.54816667,36.8491522 2.98783333,36.8491522 C2.98783333,36.8491522 10.2678333,36.8678651 10.4883333,36.8678651 C11.63225,36.8678651 12.7324167,36.6988645 13.7596667,36.3865934 C5.74466667,32.5539635 3.12608333,26.6067791 2.35316667,22.2145173" id="Fill-14" fill="#8F7CE0"></path>
                    <path d="M39.2750167,31.7257435 C37.2345167,34.4736117 41.6777667,37.1805455 39.6880167,37.3214768 C39.6880167,37.3214768 24.8742667,37.3600721 24.4256833,37.3600721 C12.9754333,37.3600721 3.69343333,29.0112076 3.69343333,18.7126959 C3.69343333,8.4141841 12.9754333,0.0653196163 24.4256833,0.0653196163 C35.8765167,0.0653196163 45.1579333,8.4141841 45.1579333,18.7126959 C45.1579333,23.7745275 42.9161833,28.3661983 39.2750167,31.7257435 Z M26.7899333,27.1668202 C29.6109333,26.7083549 31.3877667,24.7569533 31.3877667,21.9886179 C31.3877667,20.4576711 30.6341,18.9337416 28.98735,17.9314335 C30.2432667,17.0039768 30.8575167,15.7695121 30.8575167,14.409905 C30.8575167,11.9199236 29.2994333,10.1422008 26.7899333,9.63753806 L26.7899333,8.60072803 C26.7899333,8.47441615 26.68785,8.37149536 26.56185,8.37149536 L25.7510167,8.37149536 C25.6250167,8.37149536 25.5229333,8.47441615 25.5229333,8.60072803 L25.5229333,9.49660675 C25.4371833,9.49368286 25.35085,9.4925133 25.26335,9.4925133 L21.0120167,9.4925133 L21.0120167,8.60072803 C21.0120167,8.47441615 20.9099333,8.37149536 20.7839333,8.37149536 L19.9725167,8.37149536 C19.8471,8.37149536 19.7450167,8.47441615 19.7450167,8.60072803 L19.7450167,9.54338892 L17.4227667,9.54338892 C17.2775167,9.54338892 17.1596833,9.66151392 17.1596833,9.80770823 L17.1596833,11.3673091 C17.1596833,11.5135034 17.2775167,11.6322132 17.4227667,11.6322132 L18.78135,11.6322132 L18.78135,25.1317955 L17.4770167,25.1317955 C17.3294333,25.1317955 17.2104333,25.25109 17.2104333,25.3990387 L17.2104333,27.0036674 C17.2104333,27.1510313 17.3294333,27.2709106 17.4770167,27.2709106 L19.7450167,27.2709106 L19.7450167,28.51941 C19.7450167,28.6451371 19.8471,28.7480579 19.9725167,28.7480579 L20.7839333,28.7480579 C20.9099333,28.7480579 21.0120167,28.6451371 21.0120167,28.51941 L21.0120167,27.2709106 L23.1785167,27.2709106 L25.4651833,27.2709106 L25.5229333,27.2709106 L25.5229333,28.51941 C25.5229333,28.6451371 25.6250167,28.7480579 25.7510167,28.7480579 L26.56185,28.7480579 C26.68785,28.7480579 26.7899333,28.6451371 26.7899333,28.51941 L26.7899333,27.1668202 Z M25.0046417,19.3243144 C26.989725,19.3243144 28.4288083,20.5295402 28.4288083,22.0090266 C28.4288083,23.7434759 27.421975,24.7235625 25.4648917,24.7235625 L21.7216417,24.7235625 L21.7216417,19.3243144 L25.0046417,19.3243144 Z M27.8819917,14.4239397 C27.8819917,15.7578165 26.5869917,16.7764985 24.8317417,16.7764985 L21.7214083,16.7764985 L21.7214083,12.0398029 L25.2634083,12.0398029 C27.0192417,12.0398029 27.8819917,12.9105362 27.8819917,14.4239397 Z" id="Combined-Shape" fill="#FFFFFF"></path>
                </g>
            </g>
        </g>
    </g>
</svg>