<?xml version="1.0" encoding="UTF-8"?>
<svg width="600px" height="160px" viewBox="0 0 600 160" version="1.1" xmlns="http://www.w3.org/2000/svg" xmlns:xlink="http://www.w3.org/1999/xlink" style="background: #FFFFFF;">
    <!-- Generator: Sketch 49.2 (51160) - http://www.bohemiancoding.com/sketch -->
    <title>demo02 svg</title>
    <desc>Created with Sketch.</desc>
    <defs>
        <rect id="path-1" x="0" y="0" width="70" height="70" rx="6"></rect>
    </defs>
    <g id="demo02-svg" stroke="none" stroke-width="1" fill="none" fill-rule="evenodd">
        <path d="M385.07,127.762 L386.302,127.762 L388.08,133.628 L389.76,127.762 L390.81,127.762 L392.49,133.628 L394.268,127.762 L395.5,127.762 L393.036,135 L391.972,135 L390.292,129.176 L388.584,135 L387.534,135 L385.07,127.762 Z M396.438,124.808 L397.558,124.808 L397.558,128.952 C397.81,128.49 398.146,128.14 398.566,127.902 C398.958,127.678 399.392,127.566 399.882,127.566 C400.722,127.566 401.38,127.804 401.828,128.308 C402.276,128.798 402.5,129.512 402.5,130.436 L402.5,135 L401.38,135 L401.38,130.604 C401.38,129.932 401.212,129.414 400.904,129.05 C400.568,128.686 400.106,128.504 399.504,128.504 C398.944,128.504 398.482,128.728 398.118,129.176 C397.74,129.624 397.558,130.198 397.558,130.87 L397.558,135 L396.438,135 L396.438,124.808 Z M405.146,125.032 C405.384,125.032 405.58,125.102 405.748,125.27 C405.916,125.41 406,125.606 406,125.858 C406,126.096 405.916,126.292 405.748,126.46 C405.58,126.614 405.384,126.698 405.146,126.698 C404.908,126.698 404.712,126.614 404.544,126.46 C404.376,126.292 404.306,126.096 404.306,125.858 C404.306,125.606 404.376,125.41 404.544,125.27 C404.712,125.102 404.908,125.032 405.146,125.032 Z M404.586,127.762 L405.706,127.762 L405.706,135 L404.586,135 L404.586,127.762 Z M409.738,125.424 L409.738,127.762 L411.53,127.762 L411.53,128.7 L409.738,128.7 L409.738,133.306 C409.738,133.572 409.78,133.768 409.892,133.88 C409.99,133.992 410.172,134.062 410.424,134.062 L411.348,134.062 L411.348,135 L410.256,135 C409.668,135 409.234,134.846 408.982,134.538 C408.744,134.258 408.632,133.852 408.632,133.306 L408.632,128.7 L407.176,128.7 L407.176,127.762 L408.632,127.762 L408.632,125.886 L409.738,125.424 Z M415.758,127.566 C416.92,127.566 417.802,127.958 418.39,128.742 C418.922,129.442 419.202,130.436 419.23,131.696 L413.518,131.696 C413.574,132.508 413.784,133.138 414.176,133.586 C414.568,134.034 415.114,134.258 415.8,134.258 C416.388,134.258 416.878,134.104 417.242,133.81 C417.55,133.558 417.788,133.18 417.97,132.676 L419.09,132.676 C418.922,133.376 418.6,133.936 418.11,134.384 C417.508,134.916 416.738,135.196 415.8,135.196 C414.764,135.196 413.924,134.846 413.308,134.174 C412.664,133.474 412.356,132.55 412.356,131.374 C412.356,130.31 412.65,129.414 413.266,128.7 C413.882,127.944 414.708,127.566 415.758,127.566 Z M415.786,128.504 C415.142,128.504 414.624,128.714 414.232,129.134 C413.84,129.554 413.616,130.114 413.546,130.828 L418.068,130.828 C417.928,129.274 417.158,128.504 415.786,128.504 Z" id="white" fill="#000000"></path>
        <g id="icon" transform="translate(367.000000, 25.000000)">
            <mask id="mask-2" fill="white">
                <use xlink:href="#path-1"></use>
            </mask>
            <use id="app-icon" fill="#AAAAAA" xlink:href="#path-1"></use>
            <g mask="url(#mask-2)" fill="#FFFFFF">
                <g transform="translate(9.000000, 13.000000)">
                    <path d="M2.49095709,26.1428594 C0.973483401,27.9459101 0.0732987854,30.1907771 0.0732987854,32.6242074 C0.0732987854,35.5462507 1.37104777,38.19646 3.47697166,40.1357719 C4.65730526,41.7220436 1.54339433,43.3654349 3.23802105,43.3654349 C3.23802105,43.3654349 11.8072842,43.3874569 12.066834,43.3874569 C13.4133344,43.3874569 14.7083368,43.1885707 15.9175093,42.8210787 C6.48308016,38.3106991 3.40075466,31.3118342 2.49095709,26.1428594" id="Fill-14" fill-opacity="0.4"></path>
                    <path d="M45.9515407,37.3360194 C43.5496751,40.5698116 48.7798096,43.7554306 46.4376816,43.9212838 C46.4376816,43.9212838 29.000467,43.9667041 28.4724411,43.9667041 C14.9943909,43.9667041 4.0685804,34.141454 4.0685804,22.0217873 C4.0685804,9.90212068 14.9943909,0.076870522 28.4724411,0.076870522 C41.951178,0.076870522 52.8763019,9.90212068 52.8763019,22.0217873 C52.8763019,27.9787366 50.2375456,33.3823834 45.9515407,37.3360194 Z M31.2553917,31.9709112 C34.5759812,31.4313724 36.6674857,29.1348913 36.6674857,25.8770126 C36.6674857,24.0753382 35.7803472,22.2819221 33.8419634,21.1023691 C35.3202986,20.010904 36.0433302,18.5581406 36.0433302,16.9581051 C36.0433302,14.0278036 34.2093156,11.9357142 31.2553917,11.3418085 L31.2553917,10.1216524 C31.2553917,9.97300398 31.1352298,9.85188301 30.9869156,9.85188301 L30.0324865,9.85188301 C29.8841723,9.85188301 29.7640104,9.97300398 29.7640104,10.1216524 L29.7640104,11.1759554 C29.6630743,11.1725145 29.5614517,11.1711381 29.4584557,11.1711381 L24.4542257,11.1711381 L24.4542257,10.1216524 C24.4542257,9.97300398 24.3340638,9.85188301 24.1857496,9.85188301 L23.2306338,9.85188301 C23.0830063,9.85188301 22.9628444,9.97300398 22.9628444,10.1216524 L22.9628444,11.2310104 L20.2293318,11.2310104 C20.0583585,11.2310104 19.9196573,11.3700242 19.9196573,11.542071 L19.9196573,13.3774666 C19.9196573,13.5495134 20.0583585,13.6892154 20.2293318,13.6892154 L21.8285156,13.6892154 L21.8285156,29.5760194 L20.2931893,29.5760194 C20.1194695,29.5760194 19.979395,29.7164096 19.979395,29.890521 L19.979395,31.7789069 C19.979395,31.9523301 20.1194695,32.0934085 20.2931893,32.0934085 L22.9628444,32.0934085 L22.9628444,33.5626884 C22.9628444,33.7106487 23.0830063,33.8317697 23.2306338,33.8317697 L24.1857496,33.8317697 C24.3340638,33.8317697 24.4542257,33.7106487 24.4542257,33.5626884 L24.4542257,32.0934085 L27.0044055,32.0934085 L29.696033,32.0934085 L29.7640104,32.0934085 L29.7640104,33.5626884 C29.7640104,33.7106487 29.8841723,33.8317697 30.0324865,33.8317697 L30.9869156,33.8317697 C31.1352298,33.8317697 31.2553917,33.7106487 31.2553917,33.5626884 L31.2553917,31.9709112 Z M29.153931,22.7415624 C31.4905658,22.7415624 33.1845059,24.1599165 33.1845059,25.9010303 C33.1845059,27.9421939 31.9993658,29.0955958 29.6956897,29.0955958 L25.2895229,29.0955958 L25.2895229,22.7415624 L29.153931,22.7415624 Z M32.5408499,16.9746216 C32.5408499,18.5443769 31.0165098,19.7431992 28.950411,19.7431992 L25.2892483,19.7431992 L25.2892483,14.168882 L29.4585244,14.168882 C31.5253098,14.168882 32.5408499,15.1935929 32.5408499,16.9746216 Z" id="Combined-Shape"></path>
                </g>
            </g>
        </g>
        <path d="M204.868,124.808 L205.988,124.808 L205.988,129.092 C206.548,128.07 207.346,127.566 208.382,127.566 C209.404,127.566 210.216,127.944 210.804,128.728 C211.336,129.428 211.616,130.296 211.616,131.36 C211.616,132.452 211.336,133.348 210.804,134.048 C210.202,134.804 209.376,135.196 208.326,135.196 C207.206,135.196 206.408,134.734 205.918,133.81 L205.918,135 L204.868,135 L204.868,124.808 Z M208.144,128.49 C207.486,128.49 206.954,128.742 206.562,129.274 C206.142,129.792 205.946,130.478 205.946,131.318 L205.946,131.458 C205.946,132.27 206.128,132.928 206.492,133.432 C206.884,133.992 207.458,134.272 208.186,134.272 C208.97,134.272 209.558,133.978 209.95,133.418 C210.286,132.914 210.468,132.228 210.468,131.36 C210.468,130.492 210.286,129.82 209.922,129.33 C209.516,128.77 208.928,128.49 208.144,128.49 Z M213.296,124.808 L214.402,124.808 L214.402,135 L213.296,135 L213.296,124.808 Z M219.512,127.566 C220.548,127.566 221.304,127.832 221.808,128.378 C222.228,128.854 222.452,129.512 222.452,130.352 L222.452,135 L221.402,135 L221.402,133.782 C221.122,134.174 220.744,134.496 220.296,134.748 C219.764,135.042 219.162,135.196 218.49,135.196 C217.762,135.196 217.188,135.014 216.754,134.65 C216.306,134.272 216.082,133.782 216.082,133.194 C216.082,132.368 216.404,131.752 217.076,131.332 C217.664,130.94 218.504,130.73 219.596,130.716 L221.332,130.688 L221.332,130.31 C221.332,129.092 220.702,128.49 219.442,128.49 C218.91,128.49 218.476,128.588 218.14,128.812 C217.762,129.036 217.524,129.386 217.412,129.848 L216.306,129.764 C216.46,129.008 216.838,128.434 217.426,128.07 C217.958,127.734 218.644,127.566 219.512,127.566 Z M221.332,131.528 L219.666,131.556 C218.042,131.584 217.23,132.116 217.23,133.166 C217.23,133.502 217.356,133.768 217.636,133.992 C217.916,134.202 218.28,134.314 218.728,134.314 C219.414,134.314 220.016,134.09 220.548,133.642 C221.066,133.208 221.332,132.704 221.332,132.144 L221.332,131.528 Z M227.31,127.566 C228.206,127.566 228.92,127.776 229.466,128.196 C230.026,128.63 230.362,129.288 230.488,130.17 L229.382,130.17 C229.284,129.61 229.06,129.19 228.71,128.91 C228.346,128.63 227.884,128.504 227.31,128.504 C226.61,128.504 226.05,128.77 225.644,129.302 C225.252,129.82 225.056,130.52 225.056,131.402 C225.056,132.284 225.238,132.984 225.63,133.488 C226.008,133.992 226.568,134.258 227.296,134.258 C228.528,134.258 229.242,133.628 229.41,132.382 L230.53,132.382 C230.362,133.306 230.012,134.02 229.452,134.496 C228.906,134.958 228.192,135.196 227.296,135.196 C226.204,135.196 225.364,134.832 224.762,134.104 C224.188,133.418 223.908,132.522 223.908,131.416 C223.908,130.31 224.188,129.414 224.762,128.714 C225.378,127.944 226.232,127.566 227.31,127.566 Z M231.846,124.808 L232.966,124.808 L232.966,131.122 L236.592,127.762 L238.076,127.762 L234.884,130.674 L238.384,135 L236.942,135 L234.114,131.402 L232.966,132.438 L232.966,135 L231.846,135 L231.846,124.808 Z" id="black" fill="#000000"></path>
        <g id="icon" transform="translate(188.000000, 32.000000)">
            <path d="M3.14894575,33.2727301 C1.23062996,35.567522 0.0926607287,38.4246254 0.0926607287,41.5217185 C0.0926607287,45.2406827 1.73321134,48.6136764 4.395417,51.0818914 C5.88753684,53.1007828 1.9510834,55.1923717 4.09334737,55.1923717 C4.09334737,55.1923717 14.9261895,55.2203997 15.2542996,55.2203997 C16.9564794,55.2203997 18.5935579,54.9672719 20.1221344,54.4995547 C8.1955919,48.7590716 4.29906721,39.8514254 3.14894575,33.2727301" id="Fill-14" fill="#AAAAAA"></path>
            <path d="M58.0896836,47.5185702 C55.0533629,51.6343057 61.6650423,55.6887299 58.704239,55.8998157 C58.704239,55.8998157 36.6609678,55.9576234 35.9934633,55.9576234 C18.9551734,55.9576234 5.14329976,43.4527596 5.14329976,28.0277293 C5.14329976,12.6026991 18.9551734,0.0978352099 35.9934633,0.0978352099 C53.0326212,0.0978352099 66.8436269,12.6026991 66.8436269,28.0277293 C66.8436269,35.6093012 63.5078406,42.4866697 58.0896836,47.5185702 Z M39.511533,40.6902506 C43.7092593,40.0035648 46.3532366,37.0807708 46.3532366,32.9343797 C46.3532366,30.6413396 45.2317597,28.35881 42.78135,26.8575607 C44.6501888,25.4684233 45.5642099,23.6194517 45.5642099,21.5830429 C45.5642099,17.8535682 43.2457386,15.1909089 39.511533,14.435029 L39.511533,12.8821031 C39.511533,12.6929142 39.3596301,12.5387602 39.1721386,12.5387602 L37.9655961,12.5387602 C37.7781046,12.5387602 37.6262018,12.6929142 37.6262018,12.8821031 L37.6262018,14.2239432 C37.4986034,14.2195638 37.370137,14.2178121 37.2399346,14.2178121 L30.9138326,14.2178121 L30.9138326,12.8821031 C30.9138326,12.6929142 30.7619297,12.5387602 30.5744382,12.5387602 L29.3670277,12.5387602 C29.1804042,12.5387602 29.0285014,12.6929142 29.0285014,12.8821031 L29.0285014,14.2940132 L25.5729289,14.2940132 C25.3567929,14.2940132 25.1814536,14.4709399 25.1814536,14.6899086 L25.1814536,17.0258666 C25.1814536,17.2448352 25.3567929,17.4226378 25.5729289,17.4226378 L27.5945386,17.4226378 L27.5945386,37.6422065 L25.6536544,37.6422065 C25.4340463,37.6422065 25.256971,37.8208849 25.256971,38.0424812 L25.256971,40.4458816 C25.256971,40.666602 25.4340463,40.8461563 25.6536544,40.8461563 L29.0285014,40.8461563 L29.0285014,42.7161489 C29.0285014,42.904462 29.1804042,43.058616 29.3670277,43.058616 L30.5744382,43.058616 C30.7619297,43.058616 30.9138326,42.904462 30.9138326,42.7161489 L30.9138326,40.8461563 L34.1376447,40.8461563 L37.5402682,40.8461563 L37.6262018,40.8461563 L37.6262018,42.7161489 C37.6262018,42.904462 37.7781046,43.058616 37.9655961,43.058616 L39.1721386,43.058616 C39.3596301,43.058616 39.511533,42.904462 39.511533,42.7161489 L39.511533,40.6902506 Z M36.8549694,28.9438067 C39.8088285,28.9438067 41.9502245,30.7489846 41.9502245,32.9649477 C41.9502245,35.5627922 40.4520285,37.0307583 37.5398342,37.0307583 L31.9697743,37.0307583 L31.9697743,28.9438067 L36.8549694,28.9438067 Z M41.1365461,21.6040639 C41.1365461,23.6019342 39.2095501,25.127708 36.5976894,25.127708 L31.969427,25.127708 L31.969427,18.0331225 L37.2400214,18.0331225 C39.8527501,18.0331225 41.1365461,19.3373 41.1365461,21.6040639 Z" id="Combined-Shape" fill="#000000"></path>
        </g>
        <path d="M34.256,127.566 C36.048,127.566 36.958,128.56 36.958,130.548 L36.958,135 L35.838,135 L35.838,130.632 C35.838,129.218 35.194,128.518 33.934,128.518 C33.43,128.518 32.996,128.7 32.632,129.064 C32.24,129.456 32.03,129.974 31.988,130.632 L31.988,135 L30.868,135 L30.868,127.762 L31.988,127.762 L31.988,128.826 C32.24,128.42 32.562,128.112 32.954,127.902 C33.346,127.678 33.78,127.566 34.256,127.566 Z M41.928,127.566 C43.006,127.566 43.874,127.93 44.518,128.686 C45.134,129.4 45.442,130.296 45.442,131.388 C45.442,132.466 45.134,133.362 44.532,134.062 C43.874,134.818 43.006,135.196 41.928,135.196 C40.836,135.196 39.982,134.818 39.338,134.062 C38.722,133.362 38.414,132.466 38.414,131.388 C38.414,130.296 38.722,129.4 39.338,128.686 C39.982,127.93 40.836,127.566 41.928,127.566 Z M41.928,128.504 C41.158,128.504 40.556,128.798 40.136,129.386 C39.744,129.918 39.562,130.576 39.562,131.388 C39.562,132.186 39.744,132.844 40.136,133.376 C40.556,133.964 41.158,134.258 41.928,134.258 C42.684,134.258 43.286,133.964 43.734,133.376 C44.112,132.844 44.308,132.172 44.308,131.388 C44.308,130.576 44.112,129.918 43.734,129.386 C43.286,128.798 42.684,128.504 41.928,128.504 Z M50.076,127.566 C50.468,127.566 50.804,127.622 51.07,127.734 L51.07,128.854 C50.706,128.742 50.342,128.7 49.992,128.7 C49.432,128.7 48.956,128.938 48.578,129.442 C48.186,129.918 48.004,130.492 48.004,131.164 L48.004,135 L46.898,135 L46.898,127.762 L48.004,127.762 L48.004,129.022 C48.2,128.602 48.452,128.266 48.76,128.028 C49.138,127.72 49.572,127.566 50.076,127.566 Z M55.172,127.566 C56.278,127.566 57.034,128.014 57.44,128.938 C57.72,128.462 58.056,128.112 58.448,127.902 C58.798,127.678 59.218,127.566 59.722,127.566 C60.478,127.566 61.08,127.804 61.556,128.28 C62.004,128.77 62.242,129.428 62.242,130.254 L62.242,135 L61.122,135 L61.122,130.436 C61.122,129.792 60.982,129.316 60.716,129.008 C60.436,128.672 59.988,128.518 59.372,128.518 C58.896,128.518 58.49,128.686 58.182,129.05 C57.846,129.414 57.692,129.876 57.692,130.464 L57.692,135 L56.572,135 L56.572,130.436 C56.572,129.148 56.012,128.518 54.906,128.518 C54.388,128.518 53.968,128.714 53.632,129.134 C53.296,129.526 53.128,130.016 53.128,130.59 L53.128,135 L52.008,135 L52.008,127.762 L53.128,127.762 L53.128,128.728 C53.674,127.944 54.36,127.566 55.172,127.566 Z M67.128,127.566 C68.164,127.566 68.92,127.832 69.424,128.378 C69.844,128.854 70.068,129.512 70.068,130.352 L70.068,135 L69.018,135 L69.018,133.782 C68.738,134.174 68.36,134.496 67.912,134.748 C67.38,135.042 66.778,135.196 66.106,135.196 C65.378,135.196 64.804,135.014 64.37,134.65 C63.922,134.272 63.698,133.782 63.698,133.194 C63.698,132.368 64.02,131.752 64.692,131.332 C65.28,130.94 66.12,130.73 67.212,130.716 L68.948,130.688 L68.948,130.31 C68.948,129.092 68.318,128.49 67.058,128.49 C66.526,128.49 66.092,128.588 65.756,128.812 C65.378,129.036 65.14,129.386 65.028,129.848 L63.922,129.764 C64.076,129.008 64.454,128.434 65.042,128.07 C65.574,127.734 66.26,127.566 67.128,127.566 Z M68.948,131.528 L67.282,131.556 C65.658,131.584 64.846,132.116 64.846,133.166 C64.846,133.502 64.972,133.768 65.252,133.992 C65.532,134.202 65.896,134.314 66.344,134.314 C67.03,134.314 67.632,134.09 68.164,133.642 C68.682,133.208 68.948,132.704 68.948,132.144 L68.948,131.528 Z M72.028,124.808 L73.134,124.808 L73.134,135 L72.028,135 L72.028,124.808 Z" id="normal" fill="#000000"></path>
        <g id="icon" transform="translate(19.000000, 32.000000)">
            <path d="M3.14894575,33.2727301 C1.23062996,35.567522 0.0926607287,38.4246254 0.0926607287,41.5217185 C0.0926607287,45.2406827 1.73321134,48.6136764 4.395417,51.0818914 C5.88753684,53.1007828 1.9510834,55.1923717 4.09334737,55.1923717 C4.09334737,55.1923717 14.9261895,55.2203997 15.2542996,55.2203997 C16.9564794,55.2203997 18.5935579,54.9672719 20.1221344,54.4995547 C8.1955919,48.7590716 4.29906721,39.8514254 3.14894575,33.2727301" id="Fill-14" fill="#AA9CE2"></path>
            <path d="M58.0896836,47.5185702 C55.0533629,51.6343057 61.6650423,55.6887299 58.704239,55.8998157 C58.704239,55.8998157 36.6609678,55.9576234 35.9934633,55.9576234 C18.9551734,55.9576234 5.14329976,43.4527596 5.14329976,28.0277293 C5.14329976,12.6026991 18.9551734,0.0978352099 35.9934633,0.0978352099 C53.0326212,0.0978352099 66.8436269,12.6026991 66.8436269,28.0277293 C66.8436269,35.6093012 63.5078406,42.4866697 58.0896836,47.5185702 Z M39.511533,40.6902506 C43.7092593,40.0035648 46.3532366,37.0807708 46.3532366,32.9343797 C46.3532366,30.6413396 45.2317597,28.35881 42.78135,26.8575607 C44.6501888,25.4684233 45.5642099,23.6194517 45.5642099,21.5830429 C45.5642099,17.8535682 43.2457386,15.1909089 39.511533,14.435029 L39.511533,12.8821031 C39.511533,12.6929142 39.3596301,12.5387602 39.1721386,12.5387602 L37.9655961,12.5387602 C37.7781046,12.5387602 37.6262018,12.6929142 37.6262018,12.8821031 L37.6262018,14.2239432 C37.4986034,14.2195638 37.370137,14.2178121 37.2399346,14.2178121 L30.9138326,14.2178121 L30.9138326,12.8821031 C30.9138326,12.6929142 30.7619297,12.5387602 30.5744382,12.5387602 L29.3670277,12.5387602 C29.1804042,12.5387602 29.0285014,12.6929142 29.0285014,12.8821031 L29.0285014,14.2940132 L25.5729289,14.2940132 C25.3567929,14.2940132 25.1814536,14.4709399 25.1814536,14.6899086 L25.1814536,17.0258666 C25.1814536,17.2448352 25.3567929,17.4226378 25.5729289,17.4226378 L27.5945386,17.4226378 L27.5945386,37.6422065 L25.6536544,37.6422065 C25.4340463,37.6422065 25.256971,37.8208849 25.256971,38.0424812 L25.256971,40.4458816 C25.256971,40.666602 25.4340463,40.8461563 25.6536544,40.8461563 L29.0285014,40.8461563 L29.0285014,42.7161489 C29.0285014,42.904462 29.1804042,43.058616 29.3670277,43.058616 L30.5744382,43.058616 C30.7619297,43.058616 30.9138326,42.904462 30.9138326,42.7161489 L30.9138326,40.8461563 L34.1376447,40.8461563 L37.5402682,40.8461563 L37.6262018,40.8461563 L37.6262018,42.7161489 C37.6262018,42.904462 37.7781046,43.058616 37.9655961,43.058616 L39.1721386,43.058616 C39.3596301,43.058616 39.511533,42.904462 39.511533,42.7161489 L39.511533,40.6902506 Z M36.8549694,28.9438067 C39.8088285,28.9438067 41.9502245,30.7489846 41.9502245,32.9649477 C41.9502245,35.5627922 40.4520285,37.0307583 37.5398342,37.0307583 L31.9697743,37.0307583 L31.9697743,28.9438067 L36.8549694,28.9438067 Z M41.1365461,21.6040639 C41.1365461,23.6019342 39.2095501,25.127708 36.5976894,25.127708 L31.969427,25.127708 L31.969427,18.0331225 L37.2400214,18.0331225 C39.8527501,18.0331225 41.1365461,19.3373 41.1365461,21.6040639 Z" id="Combined-Shape" fill="#5C26FF"></path>
        </g>
    </g>
</svg>