<?xml version="1.0" encoding="UTF-8"?>
<svg width="600px" height="300px" viewBox="0 0 600 300" version="1.1" xmlns="http://www.w3.org/2000/svg" xmlns:xlink="http://www.w3.org/1999/xlink" style="background: #FFFFFF;">
    <!-- Generator: Sketch 49.2 (51160) - http://www.bohemiancoding.com/sketch -->
    <title>demo03 svg</title>
    <desc>Created with Sketch.</desc>
    <defs></defs>
    <g id="demo03-svg" stroke="none" stroke-width="1" fill="none" fill-rule="evenodd">
        <g id="en" transform="translate(290.000000, 0.000000)">
            <rect id="Rectangle" fill="#E1E1E1" x="0" y="0" width="300" height="300" rx="8"></rect>
            <g id="logo" transform="translate(54.000000, 215.000000)">
                <g id="icon">
                    <path d="M1.70396044,17.8246768 C0.665919623,19.0540296 0.0501406593,20.5846207 0.0501406593,22.2437778 C0.0501406593,24.23608 0.937876923,26.0430409 2.37845212,27.365299 C3.18586939,28.4468479 1.05577206,29.567342 2.21499592,29.567342 C2.21499592,29.567342 8.07687347,29.582357 8.25442072,29.582357 C9.17550581,29.582357 10.0613633,29.4467528 10.888508,29.19619 C4.43480628,26.1209312 2.32631523,21.3489779 1.70396044,17.8246768" id="Fill-14" fill="#AAAAAA"></path>
                    <path d="M31.4335434,25.4563769 C29.7905267,27.6612352 33.3682448,29.8332482 31.7660922,29.9463298 C31.7660922,29.9463298 19.8380168,29.9772983 19.4768162,29.9772983 C10.257041,29.9772983 2.78314713,23.2782641 2.78314713,15.014855 C2.78314713,6.75144592 10.257041,0.0524117196 19.4768162,0.0524117196 C28.6970611,0.0524117196 36.1704853,6.75144592 36.1704853,15.014855 C36.1704853,19.0764113 34.3654215,22.7607159 31.4335434,25.4563769 Z M21.3805173,21.7983485 C23.6519949,21.4304812 25.0827063,19.8646986 25.0827063,17.6434177 C25.0827063,16.4150033 24.4758517,15.1922196 23.1498837,14.3879789 C24.1611515,13.6437982 24.6557474,12.6532777 24.6557474,11.5623444 C24.6557474,9.56441153 23.4011741,8.13798694 21.3805173,7.73305127 L21.3805173,6.90112666 C21.3805173,6.79977544 21.2983195,6.71719296 21.1968639,6.71719296 L20.5439785,6.71719296 C20.442523,6.71719296 20.3603251,6.79977544 20.3603251,6.90112666 L20.3603251,7.61996958 C20.291279,7.61762349 20.2217631,7.61668505 20.1513079,7.61668505 L16.7281217,7.61668505 L16.7281217,6.90112666 C16.7281217,6.79977544 16.6459239,6.71719296 16.5444683,6.71719296 L15.8911132,6.71719296 C15.7901273,6.71719296 15.7079295,6.79977544 15.7079295,6.90112666 L15.7079295,7.65750707 L13.838047,7.65750707 C13.7210912,7.65750707 13.6262115,7.75228923 13.6262115,7.86959389 L13.6262115,9.12099994 C13.6262115,9.23830459 13.7210912,9.33355597 13.838047,9.33355597 L14.9319823,9.33355597 L14.9319823,20.1654678 L13.8817292,20.1654678 C13.7628947,20.1654678 13.6670755,20.2611884 13.6670755,20.3799007 L13.6670755,21.6674366 C13.6670755,21.7856796 13.7628947,21.8818695 13.8817292,21.8818695 L15.7079295,21.8818695 L15.7079295,22.8836512 C15.7079295,22.9845332 15.7901273,23.0671157 15.8911132,23.0671157 L16.5444683,23.0671157 C16.6459239,23.0671157 16.7281217,22.9845332 16.7281217,22.8836512 L16.7281217,21.8818695 L18.4725939,21.8818695 L20.3138247,21.8818695 L20.3603251,21.8818695 L20.3603251,22.8836512 C20.3603251,22.9845332 20.442523,23.0671157 20.5439785,23.0671157 L21.1968639,23.0671157 C21.2983195,23.0671157 21.3805173,22.9845332 21.3805173,22.8836512 L21.3805173,21.7983485 Z M19.9429952,15.5056107 C21.5413901,15.5056107 22.7001443,16.4726703 22.7001443,17.6597934 C22.7001443,19.0514958 21.8894391,19.8379062 20.3135898,19.8379062 L17.2995138,19.8379062 L17.2995138,15.5056107 L19.9429952,15.5056107 Z M22.2598459,11.5736057 C22.2598459,12.6438933 21.2171081,13.4612722 19.8037756,13.4612722 L17.299326,13.4612722 L17.299326,9.66060135 L20.1513549,9.66060135 C21.565157,9.66060135 22.2598459,10.3592679 22.2598459,11.5736057 Z" id="Combined-Shape" fill="#000000"></path>
                </g>
                <path d="M55.346578,19.864667 C54.0674893,18.5984881 53.4285714,17.0148306 53.4285714,15.1112046 C53.4348353,13.2486641 54.075006,11.6811918 55.3503363,10.4100328 C56.6256666,9.14011882 58.207928,8.50391681 60.0946151,8.50391681 C61.998841,8.50391681 63.6324664,9.09405332 64.9979969,10.2730813 L63.2177962,12.2103227 C62.3095305,11.5019099 61.2684701,11.148326 60.0946151,11.148326 C58.8957044,11.154551 57.9298108,11.5268101 57.1981872,12.2638582 C56.4653107,12.9996614 56.0982461,13.9433818 56.0982461,15.0925294 C56.10451,16.325093 56.475333,17.3036738 57.210715,18.0282718 C57.946097,18.7541148 58.9132433,19.1164138 60.112154,19.1164138 C61.3098119,19.1164138 62.3446084,18.7653199 63.2177962,18.0643772 L64.9979969,20.0003735 C63.6387303,21.1806465 62.0038521,21.769538 60.0946151,21.769538 C58.207928,21.7633129 56.6256666,21.1296009 55.346578,19.864667 Z M73.4814488,19.864667 C72.2061185,18.593508 71.5697062,17.0185656 71.5697062,15.1373499 C71.5697062,13.2499091 72.2061185,11.6737217 73.4814488,10.4050528 C74.7580319,9.13887381 76.3453044,8.50391681 78.2432665,8.50391681 C80.1412285,8.50391681 81.7285011,9.13887381 83.0038314,10.4050528 C84.2791616,11.6737217 84.9168268,13.2499091 84.9168268,15.1373499 C84.9168268,17.0235457 84.2791616,18.6009781 83.0038314,19.868402 C81.7285011,21.135826 80.1412285,21.769538 78.2432665,21.769538 C76.3453044,21.769538 74.7580319,21.134581 73.4814488,19.864667 Z M78.2520359,19.2932057 C79.4321549,19.2932057 80.3930374,18.8960463 81.1346833,18.0992376 C81.8763292,17.3036738 82.2471521,16.3163779 82.2471521,15.1373499 C82.2471521,13.9583219 81.8763292,12.971026 81.1346833,12.1742173 C80.3930374,11.3786535 79.425891,10.9802491 78.234497,10.9802491 C77.0531253,10.9802491 76.0922428,11.3786535 75.3505969,12.1742173 C74.608951,12.971026 74.2381281,13.9583219 74.2381281,15.1373499 C74.2381281,16.3163779 74.608951,17.3036738 75.3505969,18.0992376 C76.0922428,18.8960463 77.0593892,19.2932057 78.2520359,19.2932057 Z M91.2753129,21.7699115 L91.2753129,8.49557522 L93.9362181,8.49557522 L93.9362181,21.7699115 L91.2753129,21.7699115 Z M100.988619,21.7699115 L100.988619,8.50429032 L101.878093,8.50429032 L110.244159,16.8172469 L110.244159,8.50429032 L112.913834,8.50429032 L112.913834,21.7699115 L111.93416,21.7699115 L103.658294,13.5453509 L103.658294,21.7699115 L100.988619,21.7699115 Z M121.314477,19.864667 C120.035389,18.5984881 119.396471,17.0148306 119.396471,15.1112046 C119.402735,13.2486641 120.042905,11.6811918 121.318236,10.4100328 C122.593566,9.14011882 124.175827,8.50391681 126.062514,8.50391681 C127.965488,8.50391681 129.600366,9.09405332 130.964643,10.2730813 L129.185696,12.2103227 C128.27743,11.5019099 127.236369,11.148326 126.062514,11.148326 C124.863604,11.154551 123.89771,11.5268101 123.166087,12.2638582 C122.43321,12.9996614 122.066145,13.9433818 122.066145,15.0925294 C122.072409,16.325093 122.443232,17.3036738 123.178614,18.0282718 C123.913996,18.7541148 124.881143,19.1164138 126.078801,19.1164138 C127.277711,19.1164138 128.312508,18.7653199 129.185696,18.0643772 L130.964643,20.0003735 C129.60663,21.1806465 127.971751,21.769538 126.062514,21.769538 C124.175827,21.7633129 122.593566,21.1296009 121.314477,19.864667 Z M138.212979,21.7699115 L138.212979,8.50429032 L140.882654,8.50429032 L140.882654,13.8105388 L147.102708,13.8105388 L147.102708,8.49557522 L149.772383,8.49557522 L149.772383,21.7611964 L147.102708,21.7699115 L147.102708,16.2868711 L140.882654,16.2868711 L140.882654,21.7699115 L138.212979,21.7699115 Z M156.3253,21.769289 L161.664649,8.50366781 L164.334324,8.50366781 L169.664904,21.7618189 L166.826104,21.769289 L166.024325,19.7361816 L159.973396,19.7361816 L159.174122,21.769289 L156.3253,21.769289 Z M163.071522,12.0419968 L161.042018,17.0830574 L165.045903,17.0830574 L163.071522,12.0419968 Z M186.92571,8.50391681 L186.92571,10.9802491 L182.475835,10.9802491 L182.475835,21.769538 L179.80616,21.769538 L179.80616,10.9802491 L175.357537,10.9802491 L175.357537,8.50391681 L186.92571,8.50391681 Z" id="Combined-Shape" fill="#000000"></path>
            </g>
            <g id="logo" transform="translate(54.000000, 139.000000)" fill="#FFFFFF">
                <g id="icon">
                    <path d="M1.70396044,17.8246768 C0.665919623,19.0540296 0.0501406593,20.5846207 0.0501406593,22.2437778 C0.0501406593,24.23608 0.937876923,26.0430409 2.37845212,27.365299 C3.18586939,28.4468479 1.05577206,29.567342 2.21499592,29.567342 C2.21499592,29.567342 8.07687347,29.582357 8.25442072,29.582357 C9.17550581,29.582357 10.0613633,29.4467528 10.888508,29.19619 C4.43480628,26.1209312 2.32631523,21.3489779 1.70396044,17.8246768" id="Fill-14" fill-opacity="0.4"></path>
                    <path d="M31.4335434,25.4563769 C29.7905267,27.6612352 33.3682448,29.8332482 31.7660922,29.9463298 C31.7660922,29.9463298 19.8380168,29.9772983 19.4768162,29.9772983 C10.257041,29.9772983 2.78314713,23.2782641 2.78314713,15.014855 C2.78314713,6.75144592 10.257041,0.0524117196 19.4768162,0.0524117196 C28.6970611,0.0524117196 36.1704853,6.75144592 36.1704853,15.014855 C36.1704853,19.0764113 34.3654215,22.7607159 31.4335434,25.4563769 Z M21.3805173,21.7983485 C23.6519949,21.4304812 25.0827063,19.8646986 25.0827063,17.6434177 C25.0827063,16.4150033 24.4758517,15.1922196 23.1498837,14.3879789 C24.1611515,13.6437982 24.6557474,12.6532777 24.6557474,11.5623444 C24.6557474,9.56441153 23.4011741,8.13798694 21.3805173,7.73305127 L21.3805173,6.90112666 C21.3805173,6.79977544 21.2983195,6.71719296 21.1968639,6.71719296 L20.5439785,6.71719296 C20.442523,6.71719296 20.3603251,6.79977544 20.3603251,6.90112666 L20.3603251,7.61996958 C20.291279,7.61762349 20.2217631,7.61668505 20.1513079,7.61668505 L16.7281217,7.61668505 L16.7281217,6.90112666 C16.7281217,6.79977544 16.6459239,6.71719296 16.5444683,6.71719296 L15.8911132,6.71719296 C15.7901273,6.71719296 15.7079295,6.79977544 15.7079295,6.90112666 L15.7079295,7.65750707 L13.838047,7.65750707 C13.7210912,7.65750707 13.6262115,7.75228923 13.6262115,7.86959389 L13.6262115,9.12099994 C13.6262115,9.23830459 13.7210912,9.33355597 13.838047,9.33355597 L14.9319823,9.33355597 L14.9319823,20.1654678 L13.8817292,20.1654678 C13.7628947,20.1654678 13.6670755,20.2611884 13.6670755,20.3799007 L13.6670755,21.6674366 C13.6670755,21.7856796 13.7628947,21.8818695 13.8817292,21.8818695 L15.7079295,21.8818695 L15.7079295,22.8836512 C15.7079295,22.9845332 15.7901273,23.0671157 15.8911132,23.0671157 L16.5444683,23.0671157 C16.6459239,23.0671157 16.7281217,22.9845332 16.7281217,22.8836512 L16.7281217,21.8818695 L18.4725939,21.8818695 L20.3138247,21.8818695 L20.3603251,21.8818695 L20.3603251,22.8836512 C20.3603251,22.9845332 20.442523,23.0671157 20.5439785,23.0671157 L21.1968639,23.0671157 C21.2983195,23.0671157 21.3805173,22.9845332 21.3805173,22.8836512 L21.3805173,21.7983485 Z M19.9429952,15.5056107 C21.5413901,15.5056107 22.7001443,16.4726703 22.7001443,17.6597934 C22.7001443,19.0514958 21.8894391,19.8379062 20.3135898,19.8379062 L17.2995138,19.8379062 L17.2995138,15.5056107 L19.9429952,15.5056107 Z M22.2598459,11.5736057 C22.2598459,12.6438933 21.2171081,13.4612722 19.8037756,13.4612722 L17.299326,13.4612722 L17.299326,9.66060135 L20.1513549,9.66060135 C21.565157,9.66060135 22.2598459,10.3592679 22.2598459,11.5736057 Z" id="Combined-Shape"></path>
                </g>
                <path d="M55.346578,19.864667 C54.0674893,18.5984881 53.4285714,17.0148306 53.4285714,15.1112046 C53.4348353,13.2486641 54.075006,11.6811918 55.3503363,10.4100328 C56.6256666,9.14011882 58.207928,8.50391681 60.0946151,8.50391681 C61.998841,8.50391681 63.6324664,9.09405332 64.9979969,10.2730813 L63.2177962,12.2103227 C62.3095305,11.5019099 61.2684701,11.148326 60.0946151,11.148326 C58.8957044,11.154551 57.9298108,11.5268101 57.1981872,12.2638582 C56.4653107,12.9996614 56.0982461,13.9433818 56.0982461,15.0925294 C56.10451,16.325093 56.475333,17.3036738 57.210715,18.0282718 C57.946097,18.7541148 58.9132433,19.1164138 60.112154,19.1164138 C61.3098119,19.1164138 62.3446084,18.7653199 63.2177962,18.0643772 L64.9979969,20.0003735 C63.6387303,21.1806465 62.0038521,21.769538 60.0946151,21.769538 C58.207928,21.7633129 56.6256666,21.1296009 55.346578,19.864667 Z M73.4814488,19.864667 C72.2061185,18.593508 71.5697062,17.0185656 71.5697062,15.1373499 C71.5697062,13.2499091 72.2061185,11.6737217 73.4814488,10.4050528 C74.7580319,9.13887381 76.3453044,8.50391681 78.2432665,8.50391681 C80.1412285,8.50391681 81.7285011,9.13887381 83.0038314,10.4050528 C84.2791616,11.6737217 84.9168268,13.2499091 84.9168268,15.1373499 C84.9168268,17.0235457 84.2791616,18.6009781 83.0038314,19.868402 C81.7285011,21.135826 80.1412285,21.769538 78.2432665,21.769538 C76.3453044,21.769538 74.7580319,21.134581 73.4814488,19.864667 Z M78.2520359,19.2932057 C79.4321549,19.2932057 80.3930374,18.8960463 81.1346833,18.0992376 C81.8763292,17.3036738 82.2471521,16.3163779 82.2471521,15.1373499 C82.2471521,13.9583219 81.8763292,12.971026 81.1346833,12.1742173 C80.3930374,11.3786535 79.425891,10.9802491 78.234497,10.9802491 C77.0531253,10.9802491 76.0922428,11.3786535 75.3505969,12.1742173 C74.608951,12.971026 74.2381281,13.9583219 74.2381281,15.1373499 C74.2381281,16.3163779 74.608951,17.3036738 75.3505969,18.0992376 C76.0922428,18.8960463 77.0593892,19.2932057 78.2520359,19.2932057 Z M91.2753129,21.7699115 L91.2753129,8.49557522 L93.9362181,8.49557522 L93.9362181,21.7699115 L91.2753129,21.7699115 Z M100.988619,21.7699115 L100.988619,8.50429032 L101.878093,8.50429032 L110.244159,16.8172469 L110.244159,8.50429032 L112.913834,8.50429032 L112.913834,21.7699115 L111.93416,21.7699115 L103.658294,13.5453509 L103.658294,21.7699115 L100.988619,21.7699115 Z M121.314477,19.864667 C120.035389,18.5984881 119.396471,17.0148306 119.396471,15.1112046 C119.402735,13.2486641 120.042905,11.6811918 121.318236,10.4100328 C122.593566,9.14011882 124.175827,8.50391681 126.062514,8.50391681 C127.965488,8.50391681 129.600366,9.09405332 130.964643,10.2730813 L129.185696,12.2103227 C128.27743,11.5019099 127.236369,11.148326 126.062514,11.148326 C124.863604,11.154551 123.89771,11.5268101 123.166087,12.2638582 C122.43321,12.9996614 122.066145,13.9433818 122.066145,15.0925294 C122.072409,16.325093 122.443232,17.3036738 123.178614,18.0282718 C123.913996,18.7541148 124.881143,19.1164138 126.078801,19.1164138 C127.277711,19.1164138 128.312508,18.7653199 129.185696,18.0643772 L130.964643,20.0003735 C129.60663,21.1806465 127.971751,21.769538 126.062514,21.769538 C124.175827,21.7633129 122.593566,21.1296009 121.314477,19.864667 Z M138.212979,21.7699115 L138.212979,8.50429032 L140.882654,8.50429032 L140.882654,13.8105388 L147.102708,13.8105388 L147.102708,8.49557522 L149.772383,8.49557522 L149.772383,21.7611964 L147.102708,21.7699115 L147.102708,16.2868711 L140.882654,16.2868711 L140.882654,21.7699115 L138.212979,21.7699115 Z M156.3253,21.769289 L161.664649,8.50366781 L164.334324,8.50366781 L169.664904,21.7618189 L166.826104,21.769289 L166.024325,19.7361816 L159.973396,19.7361816 L159.174122,21.769289 L156.3253,21.769289 Z M163.071522,12.0419968 L161.042018,17.0830574 L165.045903,17.0830574 L163.071522,12.0419968 Z M186.92571,8.50391681 L186.92571,10.9802491 L182.475835,10.9802491 L182.475835,21.769538 L179.80616,21.769538 L179.80616,10.9802491 L175.357537,10.9802491 L175.357537,8.50391681 L186.92571,8.50391681 Z" id="Combined-Shape"></path>
            </g>
            <g id="logo" transform="translate(54.000000, 65.000000)">
                <g id="icon">
                    <path d="M1.70396044,17.8246768 C0.665919623,19.0540296 0.0501406593,20.5846207 0.0501406593,22.2437778 C0.0501406593,24.23608 0.937876923,26.0430409 2.37845212,27.365299 C3.18586939,28.4468479 1.05577206,29.567342 2.21499592,29.567342 C2.21499592,29.567342 8.07687347,29.582357 8.25442072,29.582357 C9.17550581,29.582357 10.0613633,29.4467528 10.888508,29.19619 C4.43480628,26.1209312 2.32631523,21.3489779 1.70396044,17.8246768" id="Fill-14" fill="#AA9CE2"></path>
                    <path d="M31.4335434,25.4563769 C29.7905267,27.6612352 33.3682448,29.8332482 31.7660922,29.9463298 C31.7660922,29.9463298 19.8380168,29.9772983 19.4768162,29.9772983 C10.257041,29.9772983 2.78314713,23.2782641 2.78314713,15.014855 C2.78314713,6.75144592 10.257041,0.0524117196 19.4768162,0.0524117196 C28.6970611,0.0524117196 36.1704853,6.75144592 36.1704853,15.014855 C36.1704853,19.0764113 34.3654215,22.7607159 31.4335434,25.4563769 Z M21.3805173,21.7983485 C23.6519949,21.4304812 25.0827063,19.8646986 25.0827063,17.6434177 C25.0827063,16.4150033 24.4758517,15.1922196 23.1498837,14.3879789 C24.1611515,13.6437982 24.6557474,12.6532777 24.6557474,11.5623444 C24.6557474,9.56441153 23.4011741,8.13798694 21.3805173,7.73305127 L21.3805173,6.90112666 C21.3805173,6.79977544 21.2983195,6.71719296 21.1968639,6.71719296 L20.5439785,6.71719296 C20.442523,6.71719296 20.3603251,6.79977544 20.3603251,6.90112666 L20.3603251,7.61996958 C20.291279,7.61762349 20.2217631,7.61668505 20.1513079,7.61668505 L16.7281217,7.61668505 L16.7281217,6.90112666 C16.7281217,6.79977544 16.6459239,6.71719296 16.5444683,6.71719296 L15.8911132,6.71719296 C15.7901273,6.71719296 15.7079295,6.79977544 15.7079295,6.90112666 L15.7079295,7.65750707 L13.838047,7.65750707 C13.7210912,7.65750707 13.6262115,7.75228923 13.6262115,7.86959389 L13.6262115,9.12099994 C13.6262115,9.23830459 13.7210912,9.33355597 13.838047,9.33355597 L14.9319823,9.33355597 L14.9319823,20.1654678 L13.8817292,20.1654678 C13.7628947,20.1654678 13.6670755,20.2611884 13.6670755,20.3799007 L13.6670755,21.6674366 C13.6670755,21.7856796 13.7628947,21.8818695 13.8817292,21.8818695 L15.7079295,21.8818695 L15.7079295,22.8836512 C15.7079295,22.9845332 15.7901273,23.0671157 15.8911132,23.0671157 L16.5444683,23.0671157 C16.6459239,23.0671157 16.7281217,22.9845332 16.7281217,22.8836512 L16.7281217,21.8818695 L18.4725939,21.8818695 L20.3138247,21.8818695 L20.3603251,21.8818695 L20.3603251,22.8836512 C20.3603251,22.9845332 20.442523,23.0671157 20.5439785,23.0671157 L21.1968639,23.0671157 C21.2983195,23.0671157 21.3805173,22.9845332 21.3805173,22.8836512 L21.3805173,21.7983485 Z M19.9429952,15.5056107 C21.5413901,15.5056107 22.7001443,16.4726703 22.7001443,17.6597934 C22.7001443,19.0514958 21.8894391,19.8379062 20.3135898,19.8379062 L17.2995138,19.8379062 L17.2995138,15.5056107 L19.9429952,15.5056107 Z M22.2598459,11.5736057 C22.2598459,12.6438933 21.2171081,13.4612722 19.8037756,13.4612722 L17.299326,13.4612722 L17.299326,9.66060135 L20.1513549,9.66060135 C21.565157,9.66060135 22.2598459,10.3592679 22.2598459,11.5736057 Z" id="Combined-Shape" fill="#5C26FF"></path>
                </g>
                <path d="M55.346578,19.864667 C54.0674893,18.5984881 53.4285714,17.0148306 53.4285714,15.1112046 C53.4348353,13.2486641 54.075006,11.6811918 55.3503363,10.4100328 C56.6256666,9.14011882 58.207928,8.50391681 60.0946151,8.50391681 C61.998841,8.50391681 63.6324664,9.09405332 64.9979969,10.2730813 L63.2177962,12.2103227 C62.3095305,11.5019099 61.2684701,11.148326 60.0946151,11.148326 C58.8957044,11.154551 57.9298108,11.5268101 57.1981872,12.2638582 C56.4653107,12.9996614 56.0982461,13.9433818 56.0982461,15.0925294 C56.10451,16.325093 56.475333,17.3036738 57.210715,18.0282718 C57.946097,18.7541148 58.9132433,19.1164138 60.112154,19.1164138 C61.3098119,19.1164138 62.3446084,18.7653199 63.2177962,18.0643772 L64.9979969,20.0003735 C63.6387303,21.1806465 62.0038521,21.769538 60.0946151,21.769538 C58.207928,21.7633129 56.6256666,21.1296009 55.346578,19.864667 Z M73.4814488,19.864667 C72.2061185,18.593508 71.5697062,17.0185656 71.5697062,15.1373499 C71.5697062,13.2499091 72.2061185,11.6737217 73.4814488,10.4050528 C74.7580319,9.13887381 76.3453044,8.50391681 78.2432665,8.50391681 C80.1412285,8.50391681 81.7285011,9.13887381 83.0038314,10.4050528 C84.2791616,11.6737217 84.9168268,13.2499091 84.9168268,15.1373499 C84.9168268,17.0235457 84.2791616,18.6009781 83.0038314,19.868402 C81.7285011,21.135826 80.1412285,21.769538 78.2432665,21.769538 C76.3453044,21.769538 74.7580319,21.134581 73.4814488,19.864667 Z M78.2520359,19.2932057 C79.4321549,19.2932057 80.3930374,18.8960463 81.1346833,18.0992376 C81.8763292,17.3036738 82.2471521,16.3163779 82.2471521,15.1373499 C82.2471521,13.9583219 81.8763292,12.971026 81.1346833,12.1742173 C80.3930374,11.3786535 79.425891,10.9802491 78.234497,10.9802491 C77.0531253,10.9802491 76.0922428,11.3786535 75.3505969,12.1742173 C74.608951,12.971026 74.2381281,13.9583219 74.2381281,15.1373499 C74.2381281,16.3163779 74.608951,17.3036738 75.3505969,18.0992376 C76.0922428,18.8960463 77.0593892,19.2932057 78.2520359,19.2932057 Z M91.2753129,21.7699115 L91.2753129,8.49557522 L93.9362181,8.49557522 L93.9362181,21.7699115 L91.2753129,21.7699115 Z M100.988619,21.7699115 L100.988619,8.50429032 L101.878093,8.50429032 L110.244159,16.8172469 L110.244159,8.50429032 L112.913834,8.50429032 L112.913834,21.7699115 L111.93416,21.7699115 L103.658294,13.5453509 L103.658294,21.7699115 L100.988619,21.7699115 Z M121.314477,19.864667 C120.035389,18.5984881 119.396471,17.0148306 119.396471,15.1112046 C119.402735,13.2486641 120.042905,11.6811918 121.318236,10.4100328 C122.593566,9.14011882 124.175827,8.50391681 126.062514,8.50391681 C127.965488,8.50391681 129.600366,9.09405332 130.964643,10.2730813 L129.185696,12.2103227 C128.27743,11.5019099 127.236369,11.148326 126.062514,11.148326 C124.863604,11.154551 123.89771,11.5268101 123.166087,12.2638582 C122.43321,12.9996614 122.066145,13.9433818 122.066145,15.0925294 C122.072409,16.325093 122.443232,17.3036738 123.178614,18.0282718 C123.913996,18.7541148 124.881143,19.1164138 126.078801,19.1164138 C127.277711,19.1164138 128.312508,18.7653199 129.185696,18.0643772 L130.964643,20.0003735 C129.60663,21.1806465 127.971751,21.769538 126.062514,21.769538 C124.175827,21.7633129 122.593566,21.1296009 121.314477,19.864667 Z M138.212979,21.7699115 L138.212979,8.50429032 L140.882654,8.50429032 L140.882654,13.8105388 L147.102708,13.8105388 L147.102708,8.49557522 L149.772383,8.49557522 L149.772383,21.7611964 L147.102708,21.7699115 L147.102708,16.2868711 L140.882654,16.2868711 L140.882654,21.7699115 L138.212979,21.7699115 Z M156.3253,21.769289 L161.664649,8.50366781 L164.334324,8.50366781 L169.664904,21.7618189 L166.826104,21.769289 L166.024325,19.7361816 L159.973396,19.7361816 L159.174122,21.769289 L156.3253,21.769289 Z M163.071522,12.0419968 L161.042018,17.0830574 L165.045903,17.0830574 L163.071522,12.0419968 Z M186.92571,8.50391681 L186.92571,10.9802491 L182.475835,10.9802491 L182.475835,21.769538 L179.80616,21.769538 L179.80616,10.9802491 L175.357537,10.9802491 L175.357537,8.50391681 L186.92571,8.50391681 Z" id="Combined-Shape" fill="#5C26FF"></path>
            </g>
            <g id="tag" transform="translate(17.000000, 15.000000)">
                <rect id="Rectangle-2" stroke="#CCCCCC" stroke-width="1.5" x="-0.75" y="-0.75" width="40.5" height="26.5" rx="4"></rect>
                <path d="M14.92,9.566 C16.11,9.566 17.02,9.958 17.65,10.77 C18.224,11.498 18.518,12.52 18.518,13.822 L13.1,13.822 C13.156,14.494 13.338,15.012 13.646,15.362 C13.954,15.712 14.402,15.894 14.976,15.894 C15.466,15.894 15.858,15.782 16.166,15.558 C16.404,15.376 16.614,15.082 16.81,14.676 L18.406,14.676 C18.238,15.348 17.902,15.922 17.398,16.37 C16.754,16.916 15.956,17.196 14.99,17.196 C13.912,17.196 13.058,16.86 12.428,16.202 C11.756,15.516 11.42,14.578 11.42,13.374 C11.42,12.296 11.728,11.4 12.372,10.672 C12.988,9.93 13.842,9.566 14.92,9.566 Z M14.962,10.868 C14.43,10.868 14.024,11.008 13.716,11.316 C13.422,11.61 13.226,12.044 13.128,12.618 L16.852,12.618 C16.712,11.442 16.082,10.868 14.962,10.868 Z M23.516,9.566 C25.322,9.566 26.232,10.546 26.232,12.534 L26.232,17 L24.636,17 L24.636,12.674 C24.636,11.484 24.09,10.896 22.998,10.896 C22.606,10.896 22.256,11.036 21.962,11.316 C21.626,11.624 21.43,12.072 21.374,12.646 L21.374,17 L19.778,17 L19.778,9.762 L21.374,9.762 L21.374,10.602 C21.654,10.266 21.976,10 22.326,9.832 C22.69,9.65 23.082,9.566 23.516,9.566 Z" id="en" fill="#BBBBBB"></path>
            </g>
        </g>
        <g id="ch">
            <rect id="Rectangle" fill="#E1E1E1" x="0" y="0" width="260" height="300" rx="8"></rect>
            <g id="logo" transform="translate(77.000000, 215.000000)">
                <g id="icon">
                    <path d="M1.70623846,17.8246768 C0.66680989,19.0540296 0.0502076923,20.5846207 0.0502076923,22.2437778 C0.0502076923,24.23608 0.939130769,26.0430409 2.38163187,27.365299 C3.19012857,28.4468479 1.05718352,29.567342 2.21795714,29.567342 C2.21795714,29.567342 8.08767143,29.582357 8.26545604,29.582357 C9.18777253,29.582357 10.0748143,29.4467528 10.9030648,29.19619 C4.44073516,26.1209312 2.32942527,21.3489779 1.70623846,17.8246768" id="Fill-14" fill="#AAAAAA"></path>
                    <path d="M31.4755668,25.4563769 C29.8303536,27.6612352 33.4128547,29.8332482 31.8085602,29.9463298 C31.8085602,29.9463298 19.8645382,29.9772983 19.5028547,29.9772983 C10.2707536,29.9772983 2.78686791,23.2782641 2.78686791,15.014855 C2.78686791,6.75144592 10.2707536,0.0524117196 19.5028547,0.0524117196 C28.7354262,0.0524117196 36.2188415,6.75144592 36.2188415,15.014855 C36.2188415,19.0764113 34.4113646,22.7607159 31.4755668,25.4563769 Z M21.4091009,21.7983485 C23.6836152,21.4304812 25.1162393,19.8646986 25.1162393,17.6434177 C25.1162393,16.4150033 24.5085734,15.1922196 23.1808327,14.3879789 C24.1934525,13.6437982 24.6887097,12.6532777 24.6887097,11.5623444 C24.6887097,9.56441153 23.4324591,8.13798694 21.4091009,7.73305127 L21.4091009,6.90112666 C21.4091009,6.79977544 21.3267932,6.71719296 21.225202,6.71719296 L20.5714437,6.71719296 C20.4698525,6.71719296 20.3875448,6.79977544 20.3875448,6.90112666 L20.3875448,7.61996958 C20.3184064,7.61762349 20.2487976,7.61668505 20.1782481,7.61668505 L16.7504855,7.61668505 L16.7504855,6.90112666 C16.7504855,6.79977544 16.6681778,6.71719296 16.5665866,6.71719296 L15.912358,6.71719296 C15.8112371,6.71719296 15.7289295,6.79977544 15.7289295,6.90112666 L15.7289295,7.65750707 L13.856547,7.65750707 C13.7394349,7.65750707 13.6444284,7.75228923 13.6444284,7.86959389 L13.6444284,9.12099994 C13.6444284,9.23830459 13.7394349,9.33355597 13.856547,9.33355597 L14.9519448,9.33355597 L14.9519448,20.1654678 L13.9002877,20.1654678 C13.7812943,20.1654678 13.685347,20.2611884 13.685347,20.3799007 L13.685347,21.6674366 C13.685347,21.7856796 13.7812943,21.8818695 13.9002877,21.8818695 L15.7289295,21.8818695 L15.7289295,22.8836512 C15.7289295,22.9845332 15.8112371,23.0671157 15.912358,23.0671157 L16.5665866,23.0671157 C16.6681778,23.0671157 16.7504855,22.9845332 16.7504855,22.8836512 L16.7504855,21.8818695 L18.4972899,21.8818695 L20.3409822,21.8818695 L20.3875448,21.8818695 L20.3875448,22.8836512 C20.3875448,22.9845332 20.4698525,23.0671157 20.5714437,23.0671157 L21.225202,23.0671157 C21.3267932,23.0671157 21.4091009,22.9845332 21.4091009,22.8836512 L21.4091009,21.7983485 Z M19.9696569,15.5056107 C21.5701888,15.5056107 22.7304921,16.4726703 22.7304921,17.6597934 C22.7304921,19.0514958 21.9187031,19.8379062 20.340747,19.8379062 L17.3226415,19.8379062 L17.3226415,15.5056107 L19.9696569,15.5056107 Z M22.2896051,11.5736057 C22.2896051,12.6438933 21.2454732,13.4612722 19.8302512,13.4612722 L17.3224534,13.4612722 L17.3224534,9.66060135 L20.1782952,9.66060135 C21.5939875,9.66060135 22.2896051,10.3592679 22.2896051,11.5736057 Z" id="Combined-Shape" fill="#000000"></path>
                </g>
                <path d="M81.5619085,4.31996148 L81.5619085,6.72229087 L83.3206761,6.72229087 L83.3206761,23.0865874 L85.7385996,23.0865874 L85.7385996,20.2044862 L87.5611001,20.2044862 L87.5611001,28.1324334 L90.0410104,28.1324334 L90.0410104,4.31996148 L81.5619085,4.31996148 Z M85.7385996,11.0610591 L87.5611001,11.0610591 L87.5611001,6.72229087 L85.7385996,6.72229087 L85.7385996,11.0610591 Z M85.7385996,17.8021568 L85.7385996,13.4629547 L87.5611001,13.4629547 L87.5611001,17.8021568 L85.7385996,17.8021568 Z M96.273875,3.41772152 L98.2238414,4.83838399 L94.2173959,10.2672667 L94.2173959,19.8566299 L96.040333,19.0953283 L96.040333,10.0265132 L98.4573834,10.0265132 L98.4573834,28.1368147 L96.040333,28.1368147 L96.040333,21.7019728 L91.7824479,23.4809459 L90.8452242,21.2660138 L91.799909,20.8673608 L91.8003455,9.47993771 L96.273875,3.41772152 Z M100.216369,6.84474981 L107,6.84474981 L107,23.0758727 L104.519217,23.0758727 L104.519217,9.24751299 L102.697589,9.24751299 L102.697589,28.1369015 L100.216369,28.1369015 L100.216369,6.84474981 Z M50.2517857,21.4021372 L50.2517857,10.0268602 L52.6692727,10.0268602 L52.6692727,21.4021372 L50.2517857,21.4021372 Z M64.3756193,9.84245607 L62.2872737,11.0531641 L59.3197627,5.99734091 L61.4081082,4.78663283 L64.3756193,9.84245607 Z M73.2901133,15.6520329 L75.4186193,14.5129002 L78.3865669,19.9886322 L76.2584974,21.1286325 L73.2901133,15.6520329 Z M67.2106007,8.891675 L69.6276511,8.891675 L69.6276511,18.1006043 L69.6272146,18.1032071 L63.2875319,23.9194643 L65.0174887,25.2568391 L76.4745783,25.2568391 L76.4745783,27.6591685 L64.1728088,27.6591685 L61.4872942,25.5704693 L58.6402646,28.1823193 L57.0002324,26.4180951 L59.5534793,24.0760625 L56.2301986,21.5067239 L56.2297621,21.5062901 L56.2297621,9.60482587 L58.6044694,9.60482587 L58.6044694,20.2994862 L61.3537169,22.4246237 L67.2106007,17.0516999 L67.2106007,8.891675 Z" id="Combined-Shape" fill="#000000"></path>
            </g>
            <g id="logo" transform="translate(77.000000, 139.000000)" fill="#FFFFFF">
                <g id="icon">
                    <path d="M1.70623846,17.8246768 C0.66680989,19.0540296 0.0502076923,20.5846207 0.0502076923,22.2437778 C0.0502076923,24.23608 0.939130769,26.0430409 2.38163187,27.365299 C3.19012857,28.4468479 1.05718352,29.567342 2.21795714,29.567342 C2.21795714,29.567342 8.08767143,29.582357 8.26545604,29.582357 C9.18777253,29.582357 10.0748143,29.4467528 10.9030648,29.19619 C4.44073516,26.1209312 2.32942527,21.3489779 1.70623846,17.8246768" id="Fill-14" fill-opacity="0.4"></path>
                    <path d="M31.4755668,25.4563769 C29.8303536,27.6612352 33.4128547,29.8332482 31.8085602,29.9463298 C31.8085602,29.9463298 19.8645382,29.9772983 19.5028547,29.9772983 C10.2707536,29.9772983 2.78686791,23.2782641 2.78686791,15.014855 C2.78686791,6.75144592 10.2707536,0.0524117196 19.5028547,0.0524117196 C28.7354262,0.0524117196 36.2188415,6.75144592 36.2188415,15.014855 C36.2188415,19.0764113 34.4113646,22.7607159 31.4755668,25.4563769 Z M21.4091009,21.7983485 C23.6836152,21.4304812 25.1162393,19.8646986 25.1162393,17.6434177 C25.1162393,16.4150033 24.5085734,15.1922196 23.1808327,14.3879789 C24.1934525,13.6437982 24.6887097,12.6532777 24.6887097,11.5623444 C24.6887097,9.56441153 23.4324591,8.13798694 21.4091009,7.73305127 L21.4091009,6.90112666 C21.4091009,6.79977544 21.3267932,6.71719296 21.225202,6.71719296 L20.5714437,6.71719296 C20.4698525,6.71719296 20.3875448,6.79977544 20.3875448,6.90112666 L20.3875448,7.61996958 C20.3184064,7.61762349 20.2487976,7.61668505 20.1782481,7.61668505 L16.7504855,7.61668505 L16.7504855,6.90112666 C16.7504855,6.79977544 16.6681778,6.71719296 16.5665866,6.71719296 L15.912358,6.71719296 C15.8112371,6.71719296 15.7289295,6.79977544 15.7289295,6.90112666 L15.7289295,7.65750707 L13.856547,7.65750707 C13.7394349,7.65750707 13.6444284,7.75228923 13.6444284,7.86959389 L13.6444284,9.12099994 C13.6444284,9.23830459 13.7394349,9.33355597 13.856547,9.33355597 L14.9519448,9.33355597 L14.9519448,20.1654678 L13.9002877,20.1654678 C13.7812943,20.1654678 13.685347,20.2611884 13.685347,20.3799007 L13.685347,21.6674366 C13.685347,21.7856796 13.7812943,21.8818695 13.9002877,21.8818695 L15.7289295,21.8818695 L15.7289295,22.8836512 C15.7289295,22.9845332 15.8112371,23.0671157 15.912358,23.0671157 L16.5665866,23.0671157 C16.6681778,23.0671157 16.7504855,22.9845332 16.7504855,22.8836512 L16.7504855,21.8818695 L18.4972899,21.8818695 L20.3409822,21.8818695 L20.3875448,21.8818695 L20.3875448,22.8836512 C20.3875448,22.9845332 20.4698525,23.0671157 20.5714437,23.0671157 L21.225202,23.0671157 C21.3267932,23.0671157 21.4091009,22.9845332 21.4091009,22.8836512 L21.4091009,21.7983485 Z M19.9696569,15.5056107 C21.5701888,15.5056107 22.7304921,16.4726703 22.7304921,17.6597934 C22.7304921,19.0514958 21.9187031,19.8379062 20.340747,19.8379062 L17.3226415,19.8379062 L17.3226415,15.5056107 L19.9696569,15.5056107 Z M22.2896051,11.5736057 C22.2896051,12.6438933 21.2454732,13.4612722 19.8302512,13.4612722 L17.3224534,13.4612722 L17.3224534,9.66060135 L20.1782952,9.66060135 C21.5939875,9.66060135 22.2896051,10.3592679 22.2896051,11.5736057 Z" id="Combined-Shape"></path>
                </g>
                <path d="M81.5619085,4.5098349 L81.5619085,6.91216429 L83.3206761,6.91216429 L83.3206761,23.2764608 L85.7385996,23.2764608 L85.7385996,20.3943596 L87.5611001,20.3943596 L87.5611001,28.3223068 L90.0410104,28.3223068 L90.0410104,4.5098349 L81.5619085,4.5098349 Z M85.7385996,11.2509325 L87.5611001,11.2509325 L87.5611001,6.91216429 L85.7385996,6.91216429 L85.7385996,11.2509325 Z M85.7385996,17.9920302 L85.7385996,13.6528281 L87.5611001,13.6528281 L87.5611001,17.9920302 L85.7385996,17.9920302 Z M96.273875,3.60759494 L98.2238414,5.02825741 L94.2173959,10.4571401 L94.2173959,20.0465033 L96.040333,19.2852017 L96.040333,10.2163866 L98.4573834,10.2163866 L98.4573834,28.3266881 L96.040333,28.3266881 L96.040333,21.8918463 L91.7824479,23.6708193 L90.8452242,21.4558872 L91.799909,21.0572342 L91.8003455,9.66981112 L96.273875,3.60759494 Z M100.216369,7.03462322 L107,7.03462322 L107,23.2657462 L104.519217,23.2657462 L104.519217,9.43738641 L102.697589,9.43738641 L102.697589,28.3267749 L100.216369,28.3267749 L100.216369,7.03462322 Z M50.2517857,21.5920106 L50.2517857,10.2167336 L52.6692727,10.2167336 L52.6692727,21.5920106 L50.2517857,21.5920106 Z M64.3756193,10.0323295 L62.2872737,11.2430376 L59.3197627,6.18721433 L61.4081082,4.97650625 L64.3756193,10.0323295 Z M73.2901133,15.8419063 L75.4186193,14.7027736 L78.3865669,20.1785056 L76.2584974,21.3185059 L73.2901133,15.8419063 Z M67.2106007,9.08154841 L69.6276511,9.08154841 L69.6276511,18.2904777 L69.6272146,18.2930805 L63.2875319,24.1093377 L65.0174887,25.4467125 L76.4745783,25.4467125 L76.4745783,27.8490419 L64.1728088,27.8490419 L61.4872942,25.7603427 L58.6402646,28.3721927 L57.0002324,26.6079685 L59.5534793,24.2659359 L56.2301986,21.6965974 L56.2297621,21.6961636 L56.2297621,9.79469928 L58.6044694,9.79469928 L58.6044694,20.4893596 L61.3537169,22.6144971 L67.2106007,17.2415734 L67.2106007,9.08154841 Z" id="Combined-Shape"></path>
            </g>
            <g id="logo" transform="translate(77.000000, 65.000000)">
                <g id="icon">
                    <path d="M1.70623846,17.8246768 C0.66680989,19.0540296 0.0502076923,20.5846207 0.0502076923,22.2437778 C0.0502076923,24.23608 0.939130769,26.0430409 2.38163187,27.365299 C3.19012857,28.4468479 1.05718352,29.567342 2.21795714,29.567342 C2.21795714,29.567342 8.08767143,29.582357 8.26545604,29.582357 C9.18777253,29.582357 10.0748143,29.4467528 10.9030648,29.19619 C4.44073516,26.1209312 2.32942527,21.3489779 1.70623846,17.8246768" id="Fill-14" fill="#AA9CE2"></path>
                    <path d="M31.4755668,25.4563769 C29.8303536,27.6612352 33.4128547,29.8332482 31.8085602,29.9463298 C31.8085602,29.9463298 19.8645382,29.9772983 19.5028547,29.9772983 C10.2707536,29.9772983 2.78686791,23.2782641 2.78686791,15.014855 C2.78686791,6.75144592 10.2707536,0.0524117196 19.5028547,0.0524117196 C28.7354262,0.0524117196 36.2188415,6.75144592 36.2188415,15.014855 C36.2188415,19.0764113 34.4113646,22.7607159 31.4755668,25.4563769 Z M21.4091009,21.7983485 C23.6836152,21.4304812 25.1162393,19.8646986 25.1162393,17.6434177 C25.1162393,16.4150033 24.5085734,15.1922196 23.1808327,14.3879789 C24.1934525,13.6437982 24.6887097,12.6532777 24.6887097,11.5623444 C24.6887097,9.56441153 23.4324591,8.13798694 21.4091009,7.73305127 L21.4091009,6.90112666 C21.4091009,6.79977544 21.3267932,6.71719296 21.225202,6.71719296 L20.5714437,6.71719296 C20.4698525,6.71719296 20.3875448,6.79977544 20.3875448,6.90112666 L20.3875448,7.61996958 C20.3184064,7.61762349 20.2487976,7.61668505 20.1782481,7.61668505 L16.7504855,7.61668505 L16.7504855,6.90112666 C16.7504855,6.79977544 16.6681778,6.71719296 16.5665866,6.71719296 L15.912358,6.71719296 C15.8112371,6.71719296 15.7289295,6.79977544 15.7289295,6.90112666 L15.7289295,7.65750707 L13.856547,7.65750707 C13.7394349,7.65750707 13.6444284,7.75228923 13.6444284,7.86959389 L13.6444284,9.12099994 C13.6444284,9.23830459 13.7394349,9.33355597 13.856547,9.33355597 L14.9519448,9.33355597 L14.9519448,20.1654678 L13.9002877,20.1654678 C13.7812943,20.1654678 13.685347,20.2611884 13.685347,20.3799007 L13.685347,21.6674366 C13.685347,21.7856796 13.7812943,21.8818695 13.9002877,21.8818695 L15.7289295,21.8818695 L15.7289295,22.8836512 C15.7289295,22.9845332 15.8112371,23.0671157 15.912358,23.0671157 L16.5665866,23.0671157 C16.6681778,23.0671157 16.7504855,22.9845332 16.7504855,22.8836512 L16.7504855,21.8818695 L18.4972899,21.8818695 L20.3409822,21.8818695 L20.3875448,21.8818695 L20.3875448,22.8836512 C20.3875448,22.9845332 20.4698525,23.0671157 20.5714437,23.0671157 L21.225202,23.0671157 C21.3267932,23.0671157 21.4091009,22.9845332 21.4091009,22.8836512 L21.4091009,21.7983485 Z M19.9696569,15.5056107 C21.5701888,15.5056107 22.7304921,16.4726703 22.7304921,17.6597934 C22.7304921,19.0514958 21.9187031,19.8379062 20.340747,19.8379062 L17.3226415,19.8379062 L17.3226415,15.5056107 L19.9696569,15.5056107 Z M22.2896051,11.5736057 C22.2896051,12.6438933 21.2454732,13.4612722 19.8302512,13.4612722 L17.3224534,13.4612722 L17.3224534,9.66060135 L20.1782952,9.66060135 C21.5939875,9.66060135 22.2896051,10.3592679 22.2896051,11.5736057 Z" id="Combined-Shape" fill="#5C26FF"></path>
                </g>
                <path d="M81.5619085,4.31996148 L81.5619085,6.72229087 L83.3206761,6.72229087 L83.3206761,23.0865874 L85.7385996,23.0865874 L85.7385996,20.2044862 L87.5611001,20.2044862 L87.5611001,28.1324334 L90.0410104,28.1324334 L90.0410104,4.31996148 L81.5619085,4.31996148 Z M85.7385996,11.0610591 L87.5611001,11.0610591 L87.5611001,6.72229087 L85.7385996,6.72229087 L85.7385996,11.0610591 Z M85.7385996,17.8021568 L85.7385996,13.4629547 L87.5611001,13.4629547 L87.5611001,17.8021568 L85.7385996,17.8021568 Z M96.273875,3.41772152 L98.2238414,4.83838399 L94.2173959,10.2672667 L94.2173959,19.8566299 L96.040333,19.0953283 L96.040333,10.0265132 L98.4573834,10.0265132 L98.4573834,28.1368147 L96.040333,28.1368147 L96.040333,21.7019728 L91.7824479,23.4809459 L90.8452242,21.2660138 L91.799909,20.8673608 L91.8003455,9.47993771 L96.273875,3.41772152 Z M100.216369,6.84474981 L107,6.84474981 L107,23.0758727 L104.519217,23.0758727 L104.519217,9.24751299 L102.697589,9.24751299 L102.697589,28.1369015 L100.216369,28.1369015 L100.216369,6.84474981 Z M50.2517857,21.4021372 L50.2517857,10.0268602 L52.6692727,10.0268602 L52.6692727,21.4021372 L50.2517857,21.4021372 Z M64.3756193,9.84245607 L62.2872737,11.0531641 L59.3197627,5.99734091 L61.4081082,4.78663283 L64.3756193,9.84245607 Z M73.2901133,15.6520329 L75.4186193,14.5129002 L78.3865669,19.9886322 L76.2584974,21.1286325 L73.2901133,15.6520329 Z M67.2106007,8.891675 L69.6276511,8.891675 L69.6276511,18.1006043 L69.6272146,18.1032071 L63.2875319,23.9194643 L65.0174887,25.2568391 L76.4745783,25.2568391 L76.4745783,27.6591685 L64.1728088,27.6591685 L61.4872942,25.5704693 L58.6402646,28.1823193 L57.0002324,26.4180951 L59.5534793,24.0760625 L56.2301986,21.5067239 L56.2297621,21.5062901 L56.2297621,9.60482587 L58.6044694,9.60482587 L58.6044694,20.2994862 L61.3537169,22.4246237 L67.2106007,17.0516999 L67.2106007,8.891675 Z" id="Combined-Shape" fill="#5C26FF"></path>
            </g>
            <g id="tag" transform="translate(15.000000, 15.000000)">
                <rect id="Rectangle-2" stroke="#CCCCCC" stroke-width="1.5" x="-0.75" y="-0.75" width="40.5" height="26.5" rx="4"></rect>
                <path d="M15.088,9.566 C16.026,9.566 16.768,9.776 17.328,10.196 C17.902,10.644 18.266,11.316 18.406,12.226 L16.824,12.226 C16.726,11.764 16.53,11.428 16.25,11.204 C15.956,10.98 15.564,10.868 15.088,10.868 C14.5,10.868 14.038,11.078 13.702,11.526 C13.366,11.96 13.198,12.576 13.198,13.36 C13.198,14.158 13.352,14.788 13.688,15.236 C13.996,15.67 14.458,15.894 15.074,15.894 C16.138,15.894 16.726,15.362 16.852,14.312 L18.434,14.312 C18.266,15.292 17.888,16.02 17.314,16.496 C16.754,16.958 15.998,17.196 15.06,17.196 C13.94,17.196 13.072,16.832 12.456,16.104 C11.854,15.404 11.56,14.494 11.56,13.374 C11.56,12.282 11.854,11.386 12.442,10.7 C13.072,9.944 13.954,9.566 15.088,9.566 Z M19.694,6.808 L21.29,6.808 L21.29,10.728 C21.556,10.322 21.892,10.028 22.284,9.832 C22.634,9.65 23.04,9.566 23.502,9.566 C24.384,9.566 25.042,9.818 25.476,10.336 C25.882,10.826 26.092,11.554 26.092,12.52 L26.092,17 L24.496,17 L24.496,12.8 C24.496,12.184 24.37,11.708 24.132,11.386 C23.852,11.036 23.446,10.868 22.9,10.868 C22.396,10.868 22.004,11.064 21.724,11.456 C21.43,11.848 21.29,12.338 21.29,12.954 L21.29,17 L19.694,17 L19.694,6.808 Z" id="ch" fill="#BBBBBB"></path>
            </g>
        </g>
    </g>
</svg>