<?xml version="1.0" encoding="UTF-8"?>
<svg width="600px" height="160px" viewBox="0 0 600 160" version="1.1" xmlns="http://www.w3.org/2000/svg" xmlns:xlink="http://www.w3.org/1999/xlink" style="background: #FFFFFF;">
    <!-- Generator: Sketch 49.2 (51160) - http://www.bohemiancoding.com/sketch -->
    <title>demo04 svg</title>
    <desc>Created with Sketch.</desc>
    <defs>
        <linearGradient x1="50%" y1="0%" x2="50%" y2="100%" id="linearGradient-1">
            <stop stop-color="#B4EC51" offset="0%"></stop>
            <stop stop-color="#429321" offset="100%"></stop>
        </linearGradient>
        <path d="M70,21.8971667 C70,21.0606667 70,20.2253333 69.9953333,19.3888333 C69.9906667,18.6853333 69.9825,17.9806667 69.9638333,17.2771667 C69.923,15.743 69.832,14.196 69.5601667,12.6793333 C69.2836667,11.1393333 68.8321667,9.70666667 68.1193333,8.30783333 C67.4193333,6.93233333 66.5058333,5.67583333 65.415,4.585 C64.3241667,3.49533333 63.0676667,2.58066667 61.6921667,1.88066667 C60.2945,1.169 58.8618333,0.7175 57.323,0.441 C55.8051667,0.168 54.2581667,0.0781666667 52.724,0.0361666667 C52.0193333,0.0175 51.3158333,0.00933333333 50.6111667,0.00466666667 C49.7758333,0 48.9393333,0 48.1028333,0 L21.8971667,0 C21.0618333,0 20.2253333,0 19.39,0.00466666667 C18.6853333,0.00933333333 17.9806667,0.0175 17.2771667,0.0361666667 C15.743,0.0781666667 14.1948333,0.168 12.6781667,0.441 C11.1393333,0.7175 9.70666667,1.169 8.309,1.88066667 C6.9335,2.58066667 5.67583333,3.49533333 4.58616667,4.585 C3.49533333,5.67583333 2.58183333,6.93233333 1.88183333,8.30783333 C1.169,9.70666667 0.7175,11.1393333 0.441,12.6793333 C0.169166667,14.196 0.0781666667,15.743 0.0373333333,17.2771667 C0.0186666667,17.9806667 0.00933333333,18.6853333 0.00583333333,19.3888333 C0,20.2253333 0,21.0606667 0,21.8971667 L0,48.1028333 C0,48.9393333 0,49.7746667 0.00583333333,50.6111667 C0.00933333333,51.3146667 0.0186666667,52.0193333 0.0373333333,52.7228333 C0.0781666667,54.257 0.169166667,55.804 0.441,57.3206667 C0.7175,58.8606667 1.169,60.2945 1.88183333,61.6933333 C2.58183333,63.0676667 3.49533333,64.3241667 4.58616667,65.4138333 C5.67583333,66.5058333 6.9335,67.4193333 8.309,68.1193333 C9.70666667,68.831 11.1393333,69.2825 12.6781667,69.559 C14.1948333,69.8308333 15.743,69.923 17.2771667,69.9638333 C17.9806667,69.9825 18.6853333,69.9906667 19.39,69.9953333 C20.2253333,70 21.0618333,70 21.8971667,70 L48.1028333,70 C48.9393333,70 49.7758333,70 50.6111667,69.9953333 C51.3158333,69.9906667 52.0193333,69.9825 52.724,69.9638333 C54.2581667,69.923 55.8051667,69.8308333 57.323,69.559 C58.8618333,69.2825 60.2945,68.831 61.6921667,68.1193333 C63.0676667,67.4193333 64.3241667,66.5058333 65.415,65.4138333 C66.5058333,64.3241667 67.4193333,63.0676667 68.1193333,61.6933333 C68.8321667,60.2945 69.2836667,58.8606667 69.5601667,57.3206667 C69.832,55.804 69.923,54.257 69.9638333,52.7228333 C69.9825,52.0193333 69.9906667,51.3146667 69.9953333,50.6111667 C70,49.7746667 70,48.9393333 70,48.1028333 L70,21.8971667 Z" id="path-2"></path>
        <filter x="-6.5%" y="-7.9%" width="113.0%" height="115.8%" filterUnits="objectBoundingBox" id="filter-4">
            <feOffset dx="0" dy="0" in="SourceAlpha" result="shadowOffsetOuter1"></feOffset>
            <feGaussianBlur stdDeviation="1" in="shadowOffsetOuter1" result="shadowBlurOuter1"></feGaussianBlur>
            <feColorMatrix values="0 0 0 0 0   0 0 0 0 0   0 0 0 0 0  0 0 0 0.4 0" type="matrix" in="shadowBlurOuter1" result="shadowMatrixOuter1"></feColorMatrix>
            <feMerge>
                <feMergeNode in="shadowMatrixOuter1"></feMergeNode>
                <feMergeNode in="SourceGraphic"></feMergeNode>
            </feMerge>
        </filter>
        <linearGradient x1="50%" y1="0%" x2="50%" y2="100%" id="linearGradient-5">
            <stop stop-color="#7355FE" offset="0%"></stop>
            <stop stop-color="#5C36FB" offset="62.5835441%"></stop>
            <stop stop-color="#3C19C4" offset="100%"></stop>
        </linearGradient>
        <path d="M70,21.8971667 C70,21.0606667 70,20.2253333 69.9953333,19.3888333 C69.9906667,18.6853333 69.9825,17.9806667 69.9638333,17.2771667 C69.923,15.743 69.832,14.196 69.5601667,12.6793333 C69.2836667,11.1393333 68.8321667,9.70666667 68.1193333,8.30783333 C67.4193333,6.93233333 66.5058333,5.67583333 65.415,4.585 C64.3241667,3.49533333 63.0676667,2.58066667 61.6921667,1.88066667 C60.2945,1.169 58.8618333,0.7175 57.323,0.441 C55.8051667,0.168 54.2581667,0.0781666667 52.724,0.0361666667 C52.0193333,0.0175 51.3158333,0.00933333333 50.6111667,0.00466666667 C49.7758333,0 48.9393333,0 48.1028333,0 L21.8971667,0 C21.0618333,0 20.2253333,0 19.39,0.00466666667 C18.6853333,0.00933333333 17.9806667,0.0175 17.2771667,0.0361666667 C15.743,0.0781666667 14.1948333,0.168 12.6781667,0.441 C11.1393333,0.7175 9.70666667,1.169 8.309,1.88066667 C6.9335,2.58066667 5.67583333,3.49533333 4.58616667,4.585 C3.49533333,5.67583333 2.58183333,6.93233333 1.88183333,8.30783333 C1.169,9.70666667 0.7175,11.1393333 0.441,12.6793333 C0.169166667,14.196 0.0781666667,15.743 0.0373333333,17.2771667 C0.0186666667,17.9806667 0.00933333333,18.6853333 0.00583333333,19.3888333 C0,20.2253333 0,21.0606667 0,21.8971667 L0,48.1028333 C0,48.9393333 0,49.7746667 0.00583333333,50.6111667 C0.00933333333,51.3146667 0.0186666667,52.0193333 0.0373333333,52.7228333 C0.0781666667,54.257 0.169166667,55.804 0.441,57.3206667 C0.7175,58.8606667 1.169,60.2945 1.88183333,61.6933333 C2.58183333,63.0676667 3.49533333,64.3241667 4.58616667,65.4138333 C5.67583333,66.5058333 6.9335,67.4193333 8.309,68.1193333 C9.70666667,68.831 11.1393333,69.2825 12.6781667,69.559 C14.1948333,69.8308333 15.743,69.923 17.2771667,69.9638333 C17.9806667,69.9825 18.6853333,69.9906667 19.39,69.9953333 C20.2253333,70 21.0618333,70 21.8971667,70 L48.1028333,70 C48.9393333,70 49.7758333,70 50.6111667,69.9953333 C51.3158333,69.9906667 52.0193333,69.9825 52.724,69.9638333 C54.2581667,69.923 55.8051667,69.8308333 57.323,69.559 C58.8618333,69.2825 60.2945,68.831 61.6921667,68.1193333 C63.0676667,67.4193333 64.3241667,66.5058333 65.415,65.4138333 C66.5058333,64.3241667 67.4193333,63.0676667 68.1193333,61.6933333 C68.8321667,60.2945 69.2836667,58.8606667 69.5601667,57.3206667 C69.832,55.804 69.923,54.257 69.9638333,52.7228333 C69.9825,52.0193333 69.9906667,51.3146667 69.9953333,50.6111667 C70,49.7746667 70,48.9393333 70,48.1028333 L70,21.8971667 Z" id="path-6"></path>
        <filter x="-6.5%" y="-7.9%" width="113.0%" height="115.8%" filterUnits="objectBoundingBox" id="filter-8">
            <feOffset dx="0" dy="0" in="SourceAlpha" result="shadowOffsetOuter1"></feOffset>
            <feGaussianBlur stdDeviation="1" in="shadowOffsetOuter1" result="shadowBlurOuter1"></feGaussianBlur>
            <feColorMatrix values="0 0 0 0 0   0 0 0 0 0   0 0 0 0 0  0 0 0 0.4 0" type="matrix" in="shadowBlurOuter1" result="shadowMatrixOuter1"></feColorMatrix>
            <feMerge>
                <feMergeNode in="shadowMatrixOuter1"></feMergeNode>
                <feMergeNode in="SourceGraphic"></feMergeNode>
            </feMerge>
        </filter>
        <path d="M70,21.8971667 C70,21.0606667 70,20.2253333 69.9953333,19.3888333 C69.9906667,18.6853333 69.9825,17.9806667 69.9638333,17.2771667 C69.923,15.743 69.832,14.196 69.5601667,12.6793333 C69.2836667,11.1393333 68.8321667,9.70666667 68.1193333,8.30783333 C67.4193333,6.93233333 66.5058333,5.67583333 65.415,4.585 C64.3241667,3.49533333 63.0676667,2.58066667 61.6921667,1.88066667 C60.2945,1.169 58.8618333,0.7175 57.323,0.441 C55.8051667,0.168 54.2581667,0.0781666667 52.724,0.0361666667 C52.0193333,0.0175 51.3158333,0.00933333333 50.6111667,0.00466666667 C49.7758333,0 48.9393333,0 48.1028333,0 L21.8971667,0 C21.0618333,0 20.2253333,0 19.39,0.00466666667 C18.6853333,0.00933333333 17.9806667,0.0175 17.2771667,0.0361666667 C15.743,0.0781666667 14.1948333,0.168 12.6781667,0.441 C11.1393333,0.7175 9.70666667,1.169 8.309,1.88066667 C6.9335,2.58066667 5.67583333,3.49533333 4.58616667,4.585 C3.49533333,5.67583333 2.58183333,6.93233333 1.88183333,8.30783333 C1.169,9.70666667 0.7175,11.1393333 0.441,12.6793333 C0.169166667,14.196 0.0781666667,15.743 0.0373333333,17.2771667 C0.0186666667,17.9806667 0.00933333333,18.6853333 0.00583333333,19.3888333 C0,20.2253333 0,21.0606667 0,21.8971667 L0,48.1028333 C0,48.9393333 0,49.7746667 0.00583333333,50.6111667 C0.00933333333,51.3146667 0.0186666667,52.0193333 0.0373333333,52.7228333 C0.0781666667,54.257 0.169166667,55.804 0.441,57.3206667 C0.7175,58.8606667 1.169,60.2945 1.88183333,61.6933333 C2.58183333,63.0676667 3.49533333,64.3241667 4.58616667,65.4138333 C5.67583333,66.5058333 6.9335,67.4193333 8.309,68.1193333 C9.70666667,68.831 11.1393333,69.2825 12.6781667,69.559 C14.1948333,69.8308333 15.743,69.923 17.2771667,69.9638333 C17.9806667,69.9825 18.6853333,69.9906667 19.39,69.9953333 C20.2253333,70 21.0618333,70 21.8971667,70 L48.1028333,70 C48.9393333,70 49.7758333,70 50.6111667,69.9953333 C51.3158333,69.9906667 52.0193333,69.9825 52.724,69.9638333 C54.2581667,69.923 55.8051667,69.8308333 57.323,69.559 C58.8618333,69.2825 60.2945,68.831 61.6921667,68.1193333 C63.0676667,67.4193333 64.3241667,66.5058333 65.415,65.4138333 C66.5058333,64.3241667 67.4193333,63.0676667 68.1193333,61.6933333 C68.8321667,60.2945 69.2836667,58.8606667 69.5601667,57.3206667 C69.832,55.804 69.923,54.257 69.9638333,52.7228333 C69.9825,52.0193333 69.9906667,51.3146667 69.9953333,50.6111667 C70,49.7746667 70,48.9393333 70,48.1028333 L70,21.8971667 Z" id="path-9"></path>
        <filter x="-6.2%" y="-7.2%" width="112.5%" height="115.5%" filterUnits="objectBoundingBox" id="filter-11">
            <feOffset dx="0" dy="0" in="SourceAlpha" result="shadowOffsetOuter1"></feOffset>
            <feGaussianBlur stdDeviation="1" in="shadowOffsetOuter1" result="shadowBlurOuter1"></feGaussianBlur>
            <feColorMatrix values="0 0 0 0 0   0 0 0 0 0   0 0 0 0 0  0 0 0 0.4 0" type="matrix" in="shadowBlurOuter1" result="shadowMatrixOuter1"></feColorMatrix>
            <feMerge>
                <feMergeNode in="shadowMatrixOuter1"></feMergeNode>
                <feMergeNode in="SourceGraphic"></feMergeNode>
            </feMerge>
        </filter>
    </defs>
    <g id="demo04-svg" stroke="none" stroke-width="1" fill="none" fill-rule="evenodd">
        <path d="M449.394299,111.88984 L461.364099,111.88984 L461.364099,112.877005 L456.773329,112.877005 C456.519851,113.447059 456.224126,114.003209 455.900238,114.531551 L455.900238,123.944385 L454.858161,123.944385 L454.858161,116.005348 C453.534442,117.632086 451.802341,119.078075 449.66186,120.343316 L449,119.46738 C452.182559,117.659893 454.407533,115.463102 455.646759,112.877005 L449.394299,112.877005 L449.394299,111.88984 Z M457.674584,115.629947 C459.294028,116.895187 460.645911,118.160428 461.744316,119.425668 L460.9698,120.204278 C459.984052,118.980749 458.64625,117.687701 456.942314,116.31123 L457.674584,115.629947 Z M463.237021,111.722995 L475.685612,111.722995 L475.685612,112.626738 L471.531388,112.626738 L471.531388,113.864171 L474.812521,113.864171 L474.812521,117.367914 L468.95436,117.367914 C468.700882,117.812834 468.461486,118.216043 468.236172,118.605348 L475.854598,118.605348 L475.854598,119.522995 L472.826943,119.522995 C472.5453,120.357219 472.024262,121.06631 471.27791,121.664171 C472.714286,122.095187 474.178826,122.595722 475.67153,123.179679 L475.037835,124 C473.488802,123.346524 471.925687,122.776471 470.362572,122.275936 C469.024771,122.985027 466.827961,123.541176 463.786223,123.944385 L463.406006,123.054545 C465.912623,122.762567 467.813709,122.373262 469.081099,121.886631 C467.912284,121.539037 466.743468,121.233155 465.574652,120.968984 C465.912623,120.482353 466.22243,119.995722 466.532236,119.522995 L463.053953,119.522995 L463.053953,118.605348 L467.095521,118.605348 C467.348999,118.174332 467.588395,117.757219 467.813709,117.367914 L464.110112,117.367914 L464.110112,113.864171 L467.391245,113.864171 L467.391245,112.626738 L463.237021,112.626738 L463.237021,111.722995 Z M470.193587,121.344385 C470.982185,120.857754 471.517306,120.245989 471.798948,119.522995 L467.68697,119.522995 C467.447574,119.898396 467.22226,120.245989 467.011028,120.551872 C468.053105,120.774332 469.109264,121.038503 470.193587,121.344385 Z M470.559722,113.864171 L470.559722,112.626738 L468.362911,112.626738 L468.362911,113.864171 L470.559722,113.864171 Z M473.840855,116.505882 L473.840855,114.740107 L471.531388,114.740107 L471.531388,116.505882 L473.840855,116.505882 Z M470.559722,116.505882 L470.559722,114.740107 L468.362911,114.740107 L468.362911,116.505882 L470.559722,116.505882 Z M467.391245,116.505882 L467.391245,114.740107 L465.081778,114.740107 L465.081778,116.505882 L467.391245,116.505882 Z M484.895317,114.183957 C484.78266,114.517647 484.670003,114.823529 484.557346,115.115508 C485.007974,116.728342 485.613505,118.146524 486.345775,119.342246 C487.148456,117.91016 487.57092,116.186096 487.599084,114.183957 L484.895317,114.183957 Z M488.57075,114.183957 C488.514421,116.589305 487.965219,118.605348 486.937224,120.232086 C487.824398,121.455615 488.880556,122.414973 490.119783,123.11016 L489.542416,123.944385 C488.30319,123.249198 487.232949,122.28984 486.345775,121.06631 C485.416356,122.248128 484.177129,123.193583 482.656261,123.902674 L482.022565,123.082353 C483.613845,122.387166 484.867153,121.441711 485.782491,120.218182 C485.078385,119.091979 484.486936,117.785027 484.022226,116.297326 C483.740584,116.825668 483.444859,117.298396 483.12097,117.715508 L482.501357,116.936898 C483.529352,115.518717 484.219376,113.586096 484.585511,111.152941 L485.571259,111.319786 C485.458602,112.00107 485.317781,112.640642 485.17696,113.224599 L489.669155,113.224599 L489.669155,114.183957 L488.57075,114.183957 Z M478.99491,121.803209 C480.177808,121.413904 481.402952,120.913369 482.642178,120.301604 L482.797082,121.219251 C481.332542,121.914439 479.713098,122.567914 477.910587,123.151872 L477.614863,122.28984 C477.868341,122.17861 478.009162,121.95615 478.009162,121.594652 L478.009162,116.408556 L481.163556,116.408556 L481.163556,113.113369 L477.305056,113.113369 L477.305056,112.154011 L482.149304,112.154011 L482.149304,117.326203 L478.99491,117.326203 L478.99491,121.803209 Z M501.34323,114.128342 C502.413471,114.823529 503.300645,115.518717 504.032915,116.213904 L503.328809,116.909091 C502.681032,116.241711 501.793858,115.518717 500.667289,114.767914 L501.34323,114.128342 Z M497.766373,111 C497.935358,111.417112 498.090261,111.875936 498.245165,112.390374 L503.680862,112.390374 L503.680862,113.363636 L499.794197,113.363636 L499.794197,117.117647 L498.780285,117.117647 L498.780285,113.363636 L496.4849,113.363636 L496.4849,117.117647 L495.470987,117.117647 L495.470987,113.363636 L491.570241,113.363636 L491.570241,112.390374 L497.21717,112.390374 C497.048185,111.945455 496.865117,111.528342 496.667967,111.166845 L497.766373,111 Z M493.921955,114.170053 L494.668307,114.823529 C493.907872,115.616043 492.964371,116.325134 491.851883,116.936898 L491.23227,116.130481 C492.302511,115.574332 493.189684,114.920856 493.921955,114.170053 Z M492.527825,117.854545 L502.145911,117.854545 L502.145911,118.619251 C501.216491,119.759358 500.07584,120.73262 498.723957,121.525134 C500.244825,122.17861 502.047336,122.651337 504.117408,122.929412 L503.652698,123.847059 C501.329148,123.457754 499.357652,122.859893 497.738208,122.053476 C496.048354,122.873797 494.062776,123.471658 491.809637,123.847059 L491.344927,122.901604 C493.372752,122.609626 495.147099,122.136898 496.696132,121.483422 C495.442823,120.704813 494.428911,119.80107 493.640312,118.744385 L492.527825,118.744385 L492.527825,117.854545 Z M494.766882,118.744385 C495.527316,119.634225 496.498982,120.39893 497.667798,121.024599 C498.87886,120.385027 499.906854,119.620321 500.779946,118.744385 L494.766882,118.744385 Z M511.862572,111.750802 L518.044622,111.750802 L518.044622,112.696257 L515.467594,112.696257 C515.397184,113.224599 515.312691,113.71123 515.200034,114.183957 L517.650322,114.183957 L517.650322,120.857754 L516.678656,120.857754 L516.678656,115.087701 L513.228537,115.087701 L513.228537,120.857754 L512.285036,120.857754 L512.285036,114.183957 L514.200204,114.183957 C514.312861,113.71123 514.383271,113.210695 514.4396,112.696257 L511.862572,112.696257 L511.862572,111.750802 Z M515.875976,120.871658 C516.749067,121.636364 517.495419,122.40107 518.115032,123.165775 L517.396844,123.874866 C516.861724,123.137968 516.129454,122.345455 515.200034,121.51123 L515.875976,120.871658 Z M514.4396,115.86631 L515.411266,115.86631 L515.411266,118.257754 C515.369019,119.787166 515.073295,121.024599 514.524092,121.942246 C513.960808,122.790374 513.059552,123.457754 511.820326,123.930481 L511.271123,123.054545 C512.439939,122.609626 513.270784,122.025668 513.749576,121.28877 C514.172039,120.51016 514.411435,119.495187 514.4396,118.257754 L514.4396,115.86631 Z M508.848999,111.041711 C508.961656,111.417112 509.074313,111.848128 509.18697,112.320856 L511.440109,112.320856 L511.440109,113.210695 L510.679674,113.210695 C510.567017,113.878075 510.412114,114.531551 510.214964,115.157219 L511.693587,115.157219 L511.693587,116.033155 L506.708517,116.033155 L506.708517,118.46631 C506.680353,120.690909 506.412793,122.470588 505.905836,123.805348 L505.117238,123.096257 C505.553784,121.997861 505.779097,120.454545 505.807262,118.46631 L505.807262,115.157219 L507.173227,115.157219 C507.046488,114.434225 506.919749,113.794652 506.778928,113.210695 L505.736851,113.210695 L505.736851,112.320856 L508.187139,112.320856 C508.074483,111.931551 507.947743,111.55615 507.806922,111.22246 L508.848999,111.041711 Z M509.313709,115.157219 C509.510859,114.545455 509.665762,113.891979 509.778419,113.210695 L507.708347,113.210695 C507.821004,113.808556 507.947743,114.462032 508.074483,115.157219 L509.313709,115.157219 Z M511.172548,120.343316 L511.862572,120.857754 C510.820495,122.17861 509.313709,123.124064 507.314048,123.708021 L506.919749,122.845989 C508.806753,122.345455 510.214964,121.51123 511.172548,120.343316 Z M510.665592,118.285561 L511.341534,118.786096 C510.524771,119.870588 509.299627,120.649198 507.680183,121.121925 L507.314048,120.301604 C508.806753,119.884492 509.91924,119.217112 510.665592,118.285561 Z M510.313539,116.325134 L510.961317,116.811765 C510.172718,117.79893 509.017984,118.508021 507.497116,118.939037 L507.116899,118.118717 C508.52511,117.757219 509.595351,117.159358 510.313539,116.325134 Z M525.536308,116.060963 L522.170682,116.060963 L522.170682,118.57754 L525.536308,118.57754 L525.536308,116.060963 Z M526.564303,118.57754 L529.8736,118.57754 L529.8736,116.060963 L526.564303,116.060963 L526.564303,118.57754 Z M523.269087,113.37754 C522.677638,114.017112 522.029861,114.60107 521.339837,115.129412 L526.198168,115.129412 C526.761452,114.628877 527.310655,114.04492 527.859857,113.37754 L523.269087,113.37754 Z M521.142687,115.268449 C520.776552,115.546524 520.410417,115.796791 520.044282,116.033155 L519.368341,115.226738 C521.170852,114.170053 522.663556,112.793583 523.832372,111.083422 L524.846284,111.305882 C524.592806,111.709091 524.325246,112.098396 524.043604,112.459893 L529.169494,112.459893 L529.169494,113.224599 C528.634374,113.975401 528.099253,114.60107 527.564133,115.129412 L530.901595,115.129412 L530.901595,119.522995 L522.170682,119.522995 L522.170682,122.081283 C522.170682,122.498396 522.410078,122.720856 522.860706,122.720856 L529.662369,122.720856 C530.141161,122.706952 530.465049,122.554011 530.648117,122.262032 C530.788938,122.025668 530.901595,121.427807 531.00017,120.482353 L532,120.788235 C531.901425,121.705882 531.774686,122.359358 531.605701,122.748663 C531.324058,123.360428 530.788938,123.66631 529.972175,123.694118 L522.466407,123.694118 C521.579233,123.694118 521.142687,123.277005 521.142687,122.442781 L521.142687,115.268449 Z" id="不要改变颜色" fill="#000000"></path>
        <g id="no_icon" transform="translate(521.000000, 66.000000)" stroke="#EA4747" stroke-width="0.923076923">
            <circle id="Oval" cx="6" cy="6" r="6"></circle>
            <path d="M2.30769231,2.30769231 L10.1674091,10.1674091" id="Line" stroke-linecap="square"></path>
        </g>
        <g id="app-icon" transform="translate(447.000000, 10.000000)">
            <mask id="mask-3" fill="white">
                <use xlink:href="#path-2"></use>
            </mask>
            <use fill="url(#linearGradient-1)" xlink:href="#path-2"></use>
            <g id="logo" filter="url(#filter-4)" mask="url(#mask-3)" fill="#FFFFFF">
                <g transform="translate(12.250000, 16.625000)">
                    <path d="M2.35316667,22.2145173 C1.064,23.7466337 0.29925,25.654177 0.29925,27.7219493 C0.29925,30.2049134 1.40175,32.4568905 3.19083333,34.1047927 C4.19358333,35.4527042 1.54816667,36.8491522 2.98783333,36.8491522 C2.98783333,36.8491522 10.2678333,36.8678651 10.4883333,36.8678651 C11.63225,36.8678651 12.7324167,36.6988645 13.7596667,36.3865934 C5.74466667,32.5539635 3.12608333,26.6067791 2.35316667,22.2145173" id="Fill-14"></path>
                    <path d="M39.2750167,31.7257435 C37.2345167,34.4736117 41.6777667,37.1805455 39.6880167,37.3214768 C39.6880167,37.3214768 24.8742667,37.3600721 24.4256833,37.3600721 C12.9754333,37.3600721 3.69343333,29.0112076 3.69343333,18.7126959 C3.69343333,8.4141841 12.9754333,0.0653196163 24.4256833,0.0653196163 C35.8765167,0.0653196163 45.1579333,8.4141841 45.1579333,18.7126959 C45.1579333,23.7745275 42.9161833,28.3661983 39.2750167,31.7257435 Z M26.7899333,27.1668202 C29.6109333,26.7083549 31.3877667,24.7569533 31.3877667,21.9886179 C31.3877667,20.4576711 30.6341,18.9337416 28.98735,17.9314335 C30.2432667,17.0039768 30.8575167,15.7695121 30.8575167,14.409905 C30.8575167,11.9199236 29.2994333,10.1422008 26.7899333,9.63753806 L26.7899333,8.60072803 C26.7899333,8.47441615 26.68785,8.37149536 26.56185,8.37149536 L25.7510167,8.37149536 C25.6250167,8.37149536 25.5229333,8.47441615 25.5229333,8.60072803 L25.5229333,9.49660675 C25.4371833,9.49368286 25.35085,9.4925133 25.26335,9.4925133 L21.0120167,9.4925133 L21.0120167,8.60072803 C21.0120167,8.47441615 20.9099333,8.37149536 20.7839333,8.37149536 L19.9725167,8.37149536 C19.8471,8.37149536 19.7450167,8.47441615 19.7450167,8.60072803 L19.7450167,9.54338892 L17.4227667,9.54338892 C17.2775167,9.54338892 17.1596833,9.66151392 17.1596833,9.80770823 L17.1596833,11.3673091 C17.1596833,11.5135034 17.2775167,11.6322132 17.4227667,11.6322132 L18.78135,11.6322132 L18.78135,25.1317955 L17.4770167,25.1317955 C17.3294333,25.1317955 17.2104333,25.25109 17.2104333,25.3990387 L17.2104333,27.0036674 C17.2104333,27.1510313 17.3294333,27.2709106 17.4770167,27.2709106 L19.7450167,27.2709106 L19.7450167,28.51941 C19.7450167,28.6451371 19.8471,28.7480579 19.9725167,28.7480579 L20.7839333,28.7480579 C20.9099333,28.7480579 21.0120167,28.6451371 21.0120167,28.51941 L21.0120167,27.2709106 L23.1785167,27.2709106 L25.4651833,27.2709106 L25.5229333,27.2709106 L25.5229333,28.51941 C25.5229333,28.6451371 25.6250167,28.7480579 25.7510167,28.7480579 L26.56185,28.7480579 C26.68785,28.7480579 26.7899333,28.6451371 26.7899333,28.51941 L26.7899333,27.1668202 Z M25.0046417,19.3243144 C26.989725,19.3243144 28.4288083,20.5295402 28.4288083,22.0090266 C28.4288083,23.7434759 27.421975,24.7235625 25.4648917,24.7235625 L21.7216417,24.7235625 L21.7216417,19.3243144 L25.0046417,19.3243144 Z M27.8819917,14.4239397 C27.8819917,15.7578165 26.5869917,16.7764985 24.8317417,16.7764985 L21.7214083,16.7764985 L21.7214083,12.0398029 L25.2634083,12.0398029 C27.0192417,12.0398029 27.8819917,12.9105362 27.8819917,14.4239397 Z" id="Combined-Shape"></path>
                </g>
            </g>
        </g>
        <path d="M291.393767,111.811625 L303.347396,111.811625 L303.347396,112.805167 L298.762828,112.805167 C298.509692,113.378902 298.214367,113.938644 297.890916,114.470398 L297.890916,123.944026 L296.850247,123.944026 L296.850247,115.953714 C295.528316,117.590958 293.798556,119.046286 291.660965,120.319699 L291,119.438105 C294.178259,117.618945 296.400228,115.407966 297.63778,112.805167 L291.393767,112.805167 L291.393767,111.811625 Z M299.662866,115.575888 C301.280122,116.8493 302.630179,118.122713 303.7271,119.396125 L302.95363,120.179763 C301.969213,118.948332 300.633219,117.646932 298.931585,116.261572 L299.662866,115.575888 Z M305.217788,111.643703 L317.649563,111.643703 L317.649563,112.553283 L313.50095,112.553283 L313.50095,113.798708 L316.777651,113.798708 L316.777651,117.325081 L310.927404,117.325081 C310.674268,117.772874 310.435196,118.178687 310.210186,118.570506 L317.81832,118.570506 L317.81832,119.49408 L314.794755,119.49408 C314.513493,120.333692 313.993158,121.047363 313.247815,121.649085 C314.68225,122.082885 316.144812,122.586652 317.6355,123.174381 L317.002661,124 C315.45572,123.342304 313.894717,122.768568 312.333713,122.264801 C310.997719,122.978471 308.803877,123.538213 305.766249,123.944026 L305.386545,123.048439 C307.889776,122.754575 309.788293,122.362756 311.053972,121.872982 C309.886735,121.523143 308.719498,121.215285 307.552261,120.949408 C307.889776,120.459634 308.199164,119.96986 308.508552,119.49408 L305.034968,119.49408 L305.034968,118.570506 L309.071076,118.570506 C309.324211,118.136706 309.563284,117.7169 309.788293,117.325081 L306.0897,117.325081 L306.0897,113.798708 L309.366401,113.798708 L309.366401,112.553283 L305.217788,112.553283 L305.217788,111.643703 Z M312.164956,121.327234 C312.95249,120.83746 313.486887,120.221744 313.768149,119.49408 L309.661726,119.49408 C309.422653,119.871905 309.197643,120.221744 308.986697,120.529602 C310.027366,120.753498 311.082098,121.019376 312.164956,121.327234 Z M312.530597,113.798708 L312.530597,112.553283 L310.336754,112.553283 L310.336754,113.798708 L312.530597,113.798708 Z M315.807298,116.457481 L315.807298,114.680301 L313.50095,114.680301 L313.50095,116.457481 L315.807298,116.457481 Z M312.530597,116.457481 L312.530597,114.680301 L310.336754,114.680301 L310.336754,116.457481 L312.530597,116.457481 Z M309.366401,116.457481 L309.366401,114.680301 L307.060053,114.680301 L307.060053,116.457481 L309.366401,116.457481 Z M319.688712,112.10549 L321.938807,112.10549 L321.938807,111.139935 L322.852908,111.139935 L322.852908,112.10549 L325.103003,112.10549 L325.103003,112.987083 L322.838845,112.987083 C322.810718,113.434876 322.768529,113.840689 322.712277,114.232508 L325.229571,114.232508 L325.229571,115.128095 L322.529456,115.128095 C322.50133,115.212056 322.487267,115.296017 322.459141,115.379978 C323.359179,115.89774 324.259217,116.499462 325.159255,117.171152 L324.624857,117.982777 C323.668567,117.171152 322.852908,116.541442 322.177879,116.121636 C322.121627,116.219591 322.079437,116.317546 322.037248,116.415501 C321.530977,117.297094 320.715317,117.982777 319.59027,118.486545 L319.069935,117.674919 C320.138731,117.199139 320.884074,116.569429 321.305967,115.785791 C321.404409,115.575888 321.488788,115.351991 321.573166,115.128095 L319.18244,115.128095 L319.18244,114.232508 L321.784113,114.232508 C321.854428,113.840689 321.896617,113.434876 321.924743,112.987083 L319.688712,112.987083 L319.688712,112.10549 Z M325.890536,112.10549 L328.112505,112.10549 L328.112505,111.139935 L329.040669,111.139935 L329.040669,112.10549 L331.431395,112.10549 L331.431395,112.987083 L329.040669,112.987083 C329.012543,113.434876 328.970353,113.840689 328.914101,114.232508 L331.825162,114.232508 L331.825162,115.128095 L329.125048,115.128095 C329.687571,116.037675 330.643862,116.8493 331.979856,117.576964 L331.375143,118.332616 C330.067275,117.506997 329.096921,116.61141 328.478145,115.645856 C328.393767,115.799785 328.323451,115.93972 328.239073,116.079656 C327.746864,116.80732 326.945268,117.367061 325.848347,117.786868 L325.328012,116.975242 C326.368681,116.597417 327.085899,116.093649 327.507792,115.477933 C327.578107,115.351991 327.63436,115.240043 327.690612,115.128095 L325.749905,115.128095 L325.749905,114.232508 L327.971874,114.232508 C328.056252,113.840689 328.098442,113.420883 328.112505,112.987083 L325.890536,112.987083 L325.890536,112.10549 Z M329.996959,118.052745 L329.996959,123.930032 L328.984417,123.930032 L328.984417,123.32831 L322.191942,123.32831 L322.191942,123.930032 L321.179399,123.930032 L321.179399,118.052745 L329.996959,118.052745 Z M322.191942,122.432723 L328.984417,122.432723 L328.984417,121.11733 L322.191942,121.11733 L322.191942,122.432723 Z M322.191942,120.263724 L328.984417,120.263724 L328.984417,118.948332 L322.191942,118.948332 L322.191942,120.263724 Z M345.142911,114.946179 L345.142911,118.752422 L346.028886,118.752422 L346.028886,119.675996 L342.484987,119.675996 C343.230331,121.103337 344.439757,122.208827 346.099202,123.020452 L345.63512,123.972013 C343.778791,122.936491 342.442797,121.565124 341.655264,119.885899 C341.064614,121.50915 339.72862,122.866523 337.647282,123.958019 L336.986317,123.118407 C338.898898,122.22282 340.13645,121.07535 340.698974,119.675996 L337.422273,119.675996 L337.422273,118.752422 L338.420753,118.752422 L338.420753,114.946179 L341.627138,114.946179 C342.034968,114.386437 342.442797,113.742734 342.836564,113.001076 L340.389586,113.001076 C339.798936,113.812702 339.025466,114.540366 338.097301,115.170075 L337.506651,114.386437 C338.912961,113.462863 339.869251,112.329386 340.375523,111 L341.359939,111.125942 C341.233371,111.47578 341.09274,111.811625 340.923983,112.133477 L343.905359,112.133477 L343.905359,112.861141 C343.497529,113.672766 343.075637,114.372443 342.653744,114.946179 L345.142911,114.946179 Z M339.320791,118.752422 L340.980236,118.752422 C341.148993,117.940797 341.247434,116.961249 341.275561,115.827772 L339.320791,115.827772 L339.320791,118.752422 Z M341.950589,118.752422 L344.242873,118.752422 L344.242873,115.827772 L342.203725,115.827772 C342.175599,116.989236 342.09122,117.968784 341.950589,118.752422 Z M334.736222,123.76211 L333.540859,123.76211 L333.329913,122.796555 C333.695553,122.838536 334.04713,122.866523 334.384645,122.866523 C334.750285,122.866523 334.947168,122.65662 334.947168,122.264801 L334.947168,118.892357 C334.384645,119.116254 333.822121,119.312164 333.259597,119.49408 L333.006461,118.486545 C333.667427,118.318622 334.314329,118.122713 334.947168,117.884822 L334.947168,114.624327 L333.27366,114.624327 L333.27366,113.658773 L334.947168,113.658773 L334.947168,111.097955 L335.959711,111.097955 L335.959711,113.658773 L337.394147,113.658773 L337.394147,114.624327 L335.959711,114.624327 L335.959711,117.47901 C336.465983,117.255113 336.958191,117.003229 337.450399,116.723358 L337.450399,117.744887 C336.958191,117.996771 336.465983,118.248654 335.959711,118.472551 L335.959711,122.516685 C335.959711,123.342304 335.551881,123.76211 334.736222,123.76211 Z M353.580768,116.821313 C353.004181,118.416577 351.90726,119.73197 350.275941,120.795479 L349.600912,119.96986 C351.175979,118.934338 352.216648,117.646932 352.722919,116.093649 C352.877613,115.547901 353.004181,114.960172 353.102623,114.316469 L349.094641,114.316469 L349.094641,123.902045 L348.068035,123.902045 L348.068035,113.336921 L353.215127,113.336921 C353.285443,112.623251 353.327632,111.853606 353.327632,111.041981 L354.354238,111.041981 C354.354238,111.8676 354.312049,112.637244 354.255796,113.336921 L359.191942,113.336921 L359.191942,122.348762 C359.191942,123.286329 358.72786,123.76211 357.827822,123.76211 L355.619916,123.76211 L355.338655,122.754575 L357.490308,122.810549 C357.940327,122.810549 358.165336,122.572659 358.165336,122.124865 L358.165336,114.316469 L354.143292,114.316469 C354.072976,114.848224 353.988597,115.351991 353.876093,115.813778 C355.338655,117.185145 356.562144,118.542519 357.560623,119.871905 L356.801216,120.64155 C355.985557,119.438105 354.902699,118.164693 353.580768,116.821313 Z M363.298366,113.938644 C363.63588,114.582347 363.959331,115.365985 364.240593,116.289559 L365.717218,116.289559 C366.125048,115.519914 366.476625,114.694295 366.757887,113.826695 L367.700114,114.148547 C367.404789,114.946179 367.081338,115.659849 366.715697,116.289559 L368.417332,116.289559 L368.417332,117.269107 L361.371722,117.269107 L361.371722,116.289559 L363.270239,116.289559 C363.017104,115.561895 362.721779,114.890205 362.370201,114.274489 L363.298366,113.938644 Z M369.064234,111.67169 L373.676929,111.67169 L373.676929,112.427341 C373.240973,113.896663 372.776891,115.26803 372.27062,116.527449 C373.325352,117.842842 373.859749,118.934338 373.873812,119.77395 C373.873812,120.64155 373.690992,121.243272 373.325352,121.579117 C372.931585,121.914962 372.158115,122.096878 371.004941,122.096878 L370.68149,121.033369 C371.075257,121.061356 371.398708,121.089343 371.665906,121.089343 C372.172178,121.061356 372.495629,120.963402 372.63626,120.795479 C372.776891,120.613563 372.847206,120.277718 372.861269,119.77395 C372.847206,118.948332 372.284683,117.870829 371.187761,116.527449 C371.651843,115.421959 372.115926,114.106566 372.565945,112.595264 L370.048651,112.595264 L370.048651,123.888052 L369.064234,123.888052 L369.064234,111.67169 Z M361.638921,112.441335 L364.465602,112.441335 C364.296845,111.979548 364.128088,111.559742 363.945268,111.181916 L364.985937,111 C365.140631,111.419806 365.295325,111.90958 365.450019,112.441335 L368.31889,112.441335 L368.31889,113.420883 L361.638921,113.420883 L361.638921,112.441335 Z M367.770429,118.542519 L367.770429,123.818084 L366.77195,123.818084 L366.77195,123.034446 L363.171798,123.034446 L363.171798,123.818084 L362.173318,123.818084 L362.173318,118.542519 L367.770429,118.542519 Z M363.171798,122.082885 L366.77195,122.082885 L366.77195,119.49408 L363.171798,119.49408 L363.171798,122.082885 Z M376.827062,111.8676 L386.54466,111.8676 L386.54466,112.847147 L376.827062,112.847147 L376.827062,111.8676 Z M375.744204,115.981701 L387.768149,115.981701 L387.768149,116.961249 L383.886735,116.961249 L383.886735,122.18084 C383.886735,122.572659 384.083618,122.782562 384.505511,122.782562 L386.066515,122.782562 C386.375903,122.782562 386.586849,122.670614 386.699354,122.46071 C386.868111,122.208827 386.966553,121.453175 387.022805,120.193757 L387.950969,120.487621 C387.852528,122.012917 387.669707,122.936491 387.388445,123.258342 C387.149373,123.538213 386.769669,123.692142 386.263398,123.692142 L384.224249,123.692142 C383.338274,123.692142 382.902319,123.258342 382.902319,122.390743 L382.902319,116.961249 L380.370962,116.961249 L380.370962,117.171152 C380.328772,118.990312 379.949069,120.459634 379.245914,121.565124 C378.542759,122.586652 377.417712,123.384284 375.856708,123.958019 L375.308248,123.104413 C376.827062,122.544672 377.881794,121.817008 378.486507,120.893434 C379.049031,119.941873 379.358419,118.696448 379.386545,117.171152 L379.386545,116.961249 L375.744204,116.961249 L375.744204,115.981701 Z M390.369821,112.035522 L395.334094,112.035522 L395.334094,111.055974 L396.346636,111.055974 L396.346636,112.035522 L401.254656,112.035522 L401.254656,112.861141 L396.346636,112.861141 L396.346636,113.812702 L400.664006,113.812702 L400.664006,114.610334 L396.346636,114.610334 L396.346636,115.561895 L401.873432,115.561895 L401.873432,116.415501 L395.502851,116.415501 C394.673128,117.059203 393.843406,117.576964 392.99962,117.968784 C394.251235,117.926803 395.502851,117.884822 396.740403,117.828848 C397.331053,117.506997 397.921703,117.171152 398.49829,116.821313 L399.285823,117.325081 C397.246674,118.500538 395.193463,119.396125 393.140251,120.039828 C394.827822,119.983854 396.881034,119.857912 399.299886,119.662002 C398.976435,119.326157 398.638921,118.990312 398.27328,118.654467 L398.962372,118.220667 C400.04523,119.214209 400.874952,120.081808 401.437476,120.823466 L400.720258,121.31324 C400.467123,120.977395 400.199924,120.655544 399.918662,120.333692 C398.582668,120.431647 397.401368,120.515608 396.388826,120.571582 L396.388826,122.810549 C396.388826,123.552207 396.009122,123.930032 395.277841,123.930032 L393.941847,123.930032 L393.744964,123.034446 C394.166857,123.062433 394.560623,123.09042 394.95439,123.09042 C395.249715,123.09042 395.404409,122.922497 395.404409,122.586652 L395.404409,120.627557 C393.95591,120.697524 392.830863,120.739505 392.04333,120.739505 L390.86203,120.781485 L390.665146,119.941873 L391.213607,119.997847 C392.619916,119.634015 394.012163,119.130248 395.390346,118.500538 C394.209046,118.542519 392.957431,118.584499 391.6355,118.640474 L391.45268,117.898816 C391.649563,117.870829 391.846446,117.828848 392.029266,117.744887 C392.676169,117.52099 393.449639,117.073197 394.321551,116.415501 L389.765108,116.415501 L389.765108,115.561895 L395.334094,115.561895 L395.334094,114.610334 L390.960471,114.610334 L390.960471,113.812702 L395.334094,113.812702 L395.334094,112.861141 L390.369821,112.861141 L390.369821,112.035522 Z M393.534017,121.11733 L394.110604,121.761033 C393.013683,122.544672 391.649563,123.188375 390.018244,123.706136 L389.610414,122.866523 C391.199544,122.41873 392.507412,121.844995 393.534017,121.11733 Z M397.963892,121.07535 C399.426454,121.607104 400.776511,122.236814 402,122.978471 L401.493729,123.748116 C400.185861,122.922497 398.849867,122.264801 397.471684,121.78902 L397.963892,121.07535 Z" id="不要替换内部元素" fill="#000000"></path>
        <g id="no_icon" transform="translate(378.000000, 66.000000)" stroke="#EA4747" stroke-width="0.923076923">
            <circle id="Oval" cx="6" cy="6" r="6"></circle>
            <path d="M2.30769231,2.30769231 L10.1674091,10.1674091" id="Line" stroke-linecap="square"></path>
        </g>
        <g id="app-icon" transform="translate(304.000000, 10.000000)">
            <mask id="mask-7" fill="white">
                <use xlink:href="#path-6"></use>
            </mask>
            <use fill="url(#linearGradient-5)" xlink:href="#path-6"></use>
            <g id="logo" filter="url(#filter-8)" mask="url(#mask-7)">
                <g transform="translate(12.250000, 16.625000)">
                    <path d="M2.35316667,22.2145173 C1.064,23.7466337 0.29925,25.654177 0.29925,27.7219493 C0.29925,30.2049134 1.40175,32.4568905 3.19083333,34.1047927 C4.19358333,35.4527042 1.54816667,36.8491522 2.98783333,36.8491522 C2.98783333,36.8491522 10.2678333,36.8678651 10.4883333,36.8678651 C11.63225,36.8678651 12.7324167,36.6988645 13.7596667,36.3865934 C5.74466667,32.5539635 3.12608333,26.6067791 2.35316667,22.2145173" id="Fill-14" fill="#8F7CE0" fill-rule="evenodd"></path>
                    <path d="M39.2750167,31.7257435 C42.9161833,28.3661983 45.1579333,23.7745275 45.1579333,18.7126959 C45.1579333,8.4141841 35.8765167,0.0653196163 24.4256833,0.0653196163 C12.9754333,0.0653196163 3.69343333,8.4141841 3.69343333,18.7126959 C3.69343333,29.0112076 12.9754333,37.3600721 24.4256833,37.3600721 C24.8742667,37.3600721 39.6880167,37.3214768 39.6880167,37.3214768 C41.6777667,37.1805455 37.2345167,34.4736117 39.2750167,31.7257435" id="Combined-Shape" fill="#FFFFFF" fill-rule="evenodd"></path>
                    <text id="B" fill="none" font-family="SFCompactDisplay-Black, SF Compact Display" font-size="26" font-weight="700">
                        <tspan x="16.152832" y="27" fill="#5C26FF">B</tspan>
                    </text>
                </g>
            </g>
        </g>
        <path d="M135.393767,111.894699 L147.347396,111.894699 L147.347396,112.887255 L142.762828,112.887255 C142.509692,113.460421 142.214367,114.019608 141.890916,114.550835 L141.890916,124.015069 L140.850247,124.015069 L140.850247,116.03268 C139.528316,117.668301 137.798556,119.122186 135.660965,120.394336 L135,119.513617 C138.178259,117.69626 140.400228,115.487473 141.63778,112.887255 L135.393767,112.887255 L135.393767,111.894699 Z M143.662866,115.655229 C145.280122,116.927378 146.630179,118.199528 147.7271,119.471678 L146.95363,120.254539 C145.969213,119.024328 144.633219,117.724219 142.931585,116.340232 L143.662866,115.655229 Z M149.217788,111.726943 L161.649563,111.726943 L161.649563,112.635621 L157.50095,112.635621 L157.50095,113.879811 L160.777651,113.879811 L160.777651,117.402687 L154.927404,117.402687 C154.674268,117.850036 154.435196,118.255447 154.210186,118.646877 L161.81832,118.646877 L161.81832,119.569535 L158.794755,119.569535 C158.513493,120.408315 157.993158,121.121278 157.247815,121.722404 C158.68225,122.155773 160.144812,122.659041 161.6355,123.246187 L161.002661,124.070988 C159.45572,123.413943 157.894717,122.840777 156.333713,122.337509 C154.997719,123.050472 152.803877,123.609659 149.766249,124.015069 L149.386545,123.12037 C151.889776,122.826797 153.788293,122.435367 155.053972,121.946078 C153.886735,121.596587 152.719498,121.289034 151.552261,121.02342 C151.889776,120.534132 152.199164,120.044844 152.508552,119.569535 L149.034968,119.569535 L149.034968,118.646877 L153.071076,118.646877 C153.324211,118.213508 153.563284,117.794118 153.788293,117.402687 L150.0897,117.402687 L150.0897,113.879811 L153.366401,113.879811 L153.366401,112.635621 L149.217788,112.635621 L149.217788,111.726943 Z M156.164956,121.400871 C156.95249,120.911583 157.486887,120.296478 157.768149,119.569535 L153.661726,119.569535 C153.422653,119.946986 153.197643,120.296478 152.986697,120.604031 C154.027366,120.827705 155.082098,121.093319 156.164956,121.400871 Z M156.530597,113.879811 L156.530597,112.635621 L154.336754,112.635621 L154.336754,113.879811 L156.530597,113.879811 Z M159.807298,116.535948 L159.807298,114.76053 L157.50095,114.76053 L157.50095,116.535948 L159.807298,116.535948 Z M156.530597,116.535948 L156.530597,114.76053 L154.336754,114.76053 L154.336754,116.535948 L156.530597,116.535948 Z M153.366401,116.535948 L153.366401,114.76053 L151.060053,114.76053 L151.060053,116.535948 L153.366401,116.535948 Z M170.846826,114.201344 C170.734322,114.536855 170.621817,114.844408 170.509312,115.137981 C170.959331,116.759622 171.564044,118.185548 172.295325,119.3878 C173.096921,117.947894 173.518814,116.214415 173.54694,114.201344 L170.846826,114.201344 Z M174.517294,114.201344 C174.461041,116.619826 173.912581,118.646877 172.885975,120.282498 C173.77195,121.512709 174.826682,122.477306 176.064234,123.176289 L175.487647,124.015069 C174.250095,123.316086 173.1813,122.351489 172.295325,121.121278 C171.367161,122.30955 170.129609,123.260167 168.610794,123.97313 L167.977955,123.14833 C169.567085,122.449346 170.8187,121.498729 171.732801,120.268519 C171.029647,119.136166 170.438997,117.822077 169.974914,116.326253 C169.693653,116.85748 169.398328,117.332789 169.074876,117.752179 L168.4561,116.969317 C169.482706,115.543391 170.171798,113.600218 170.537438,111.153776 L171.521855,111.321532 C171.40935,112.006536 171.268719,112.649601 171.128088,113.236747 L175.614215,113.236747 L175.614215,114.201344 L174.517294,114.201344 Z M164.95439,121.8622 C166.13569,121.47077 167.359179,120.967502 168.596731,120.352397 L168.751425,121.275054 C167.288864,121.974038 165.671608,122.631082 163.871532,123.218228 L163.576207,122.351489 C163.829342,122.239651 163.969973,122.015977 163.969973,121.652505 L163.969973,116.43809 L167.120106,116.43809 L167.120106,113.124909 L163.266819,113.124909 L163.266819,112.160312 L168.104523,112.160312 L168.104523,117.360748 L164.95439,117.360748 L164.95439,121.8622 Z M187.27252,114.145425 C188.341315,114.844408 189.22729,115.543391 189.958571,116.242375 L189.255416,116.941358 C188.608514,116.270334 187.722539,115.543391 186.597491,114.788489 L187.27252,114.145425 Z M183.700494,111 C183.869251,111.41939 184.023945,111.880719 184.178639,112.397967 L189.606994,112.397967 L189.606994,113.376543 L185.72558,113.376543 L185.72558,117.151053 L184.713037,117.151053 L184.713037,113.376543 L182.420753,113.376543 L182.420753,117.151053 L181.40821,117.151053 L181.40821,113.376543 L177.512733,113.376543 L177.512733,112.397967 L183.152033,112.397967 C182.983276,111.950617 182.800456,111.531227 182.603573,111.167756 L183.700494,111 Z M179.861269,114.187364 L180.606613,114.844408 C179.847206,115.641249 178.904979,116.354212 177.793995,116.969317 L177.175219,116.158497 C178.244014,115.59931 179.129989,114.942266 179.861269,114.187364 Z M178.469023,117.891975 L188.074116,117.891975 L188.074116,118.660857 C187.145952,119.80719 186.006842,120.785766 184.656784,121.582607 C186.175599,122.239651 187.975675,122.71496 190.042949,122.994553 L189.578867,123.917211 C187.258457,123.525781 185.289624,122.924655 183.672368,122.113834 C181.984797,122.938635 180.0019,123.53976 177.751805,123.917211 L177.287723,122.966594 C179.312809,122.673021 181.084759,122.197712 182.631699,121.540668 C181.380084,120.757807 180.367541,119.849129 179.580008,118.786674 L178.469023,118.786674 L178.469023,117.891975 Z M180.705055,118.786674 C181.464462,119.681373 182.434816,120.450254 183.602052,121.079339 C184.811479,120.436275 185.838084,119.667393 186.709996,118.786674 L180.705055,118.786674 Z M196.2729,112.985113 L197.172938,113.09695 C197.060433,113.362564 196.947929,113.614198 196.807298,113.865832 L200.519954,113.865832 L200.519954,114.564815 C200.126188,115.305737 199.535538,115.962781 198.733941,116.521968 C199.676169,116.969317 200.744964,117.346768 201.95439,117.626362 L201.419992,118.381264 C200.055872,118.017792 198.888635,117.570443 197.904219,117.025236 C196.821361,117.598402 195.485367,118.059731 193.882174,118.409223 L193.432155,117.598402 C194.880654,117.346768 196.104143,116.983297 197.088559,116.521968 C196.540099,116.158497 196.061954,115.767066 195.668187,115.347676 C195.246294,115.739107 194.768149,116.102578 194.233751,116.43809 L193.671228,115.711147 C194.950969,114.956245 195.822881,114.047567 196.2729,112.985113 Z M197.904219,116.088598 C198.593311,115.669208 199.127708,115.17992 199.507412,114.620733 L196.315089,114.620733 C196.258837,114.676652 196.216648,114.732571 196.188521,114.788489 C196.68073,115.263798 197.257317,115.697168 197.904219,116.088598 Z M195.119726,119.849129 C196.990118,120.19862 198.790194,120.701888 200.505891,121.344953 L200.168377,122.155773 C198.424553,121.484749 196.610414,120.967502 194.72596,120.604031 L195.119726,119.849129 Z M196.582288,117.891975 C197.679209,118.255447 198.691752,118.702796 199.605853,119.206064 L199.127708,119.933007 C198.157355,119.345861 197.158875,118.898511 196.118206,118.562999 L196.582288,117.891975 Z M203.360699,111.782861 L203.360699,123.98711 L202.376283,123.98711 L202.376283,123.413943 L192.869631,123.413943 L192.869631,123.98711 L191.885215,123.98711 L191.885215,111.782861 L203.360699,111.782861 Z M192.869631,122.519245 L202.376283,122.519245 L202.376283,112.67756 L192.869631,112.67756 L192.869631,122.519245 Z M207.340555,111.209695 L208.339035,111.209695 L208.339035,113.851852 L209.970353,113.851852 L209.970353,114.816449 L208.339035,114.816449 L208.339035,115.892883 C209.028126,116.591866 209.717218,117.374728 210.406309,118.227487 L209.829723,119.080247 C209.253136,118.199528 208.760927,117.500545 208.339035,116.969317 L208.339035,123.97313 L207.340555,123.97313 L207.340555,117.011256 C206.890536,118.325345 206.313949,119.527596 205.610794,120.61801 L205.174838,119.527596 C206.187381,118.157589 206.904599,116.577887 207.340555,114.816449 L205.624857,114.816449 L205.624857,113.851852 L207.340555,113.851852 L207.340555,111.209695 Z M211.489168,117.528504 L212.417332,117.738199 C211.967313,119.695352 211.306347,121.372912 210.462562,122.798838 L209.59065,122.239651 C210.462562,120.827705 211.095401,119.261983 211.489168,117.528504 Z M216.580008,117.458606 C217.170658,119.038308 217.676929,120.729847 218.098822,122.519245 L217.184721,122.924655 C216.720639,120.981481 216.214367,119.261983 215.665906,117.752179 L216.580008,117.458606 Z M213.429875,123.833333 L211.995439,123.833333 L211.798556,122.896696 C212.248575,122.924655 212.670468,122.952614 213.078297,122.952614 C213.458001,122.952614 213.654884,122.742919 213.654884,122.337509 L213.654884,116.368192 L210.223489,116.368192 L210.223489,115.403595 L218.112885,115.403595 L218.112885,116.368192 L214.667427,116.368192 L214.667427,122.589143 C214.667427,123.413943 214.245534,123.833333 213.429875,123.833333 Z M210.968833,112.006536 L217.381604,112.006536 L217.381604,112.957153 L210.968833,112.957153 L210.968833,112.006536 Z M220.827062,111.950617 L230.54466,111.950617 L230.54466,112.929194 L220.827062,112.929194 L220.827062,111.950617 Z M219.744204,116.060639 L231.768149,116.060639 L231.768149,117.039216 L227.886735,117.039216 L227.886735,122.253631 C227.886735,122.645062 228.083618,122.854757 228.505511,122.854757 L230.066515,122.854757 C230.375903,122.854757 230.586849,122.742919 230.699354,122.533224 C230.868111,122.28159 230.966553,121.526688 231.022805,120.268519 L231.950969,120.562092 C231.852528,122.085875 231.669707,123.008533 231.388445,123.330065 C231.149373,123.609659 230.769669,123.763435 230.263398,123.763435 L228.224249,123.763435 C227.338274,123.763435 226.902319,123.330065 226.902319,122.463326 L226.902319,117.039216 L224.370962,117.039216 L224.370962,117.248911 C224.328772,119.066267 223.949069,120.534132 223.245914,121.638526 C222.542759,122.659041 221.417712,123.455882 219.856708,124.029049 L219.308248,123.176289 C220.827062,122.617102 221.881794,121.89016 222.486507,120.967502 C223.049031,120.016885 223.358419,118.772694 223.386545,117.248911 L223.386545,117.039216 L219.744204,117.039216 L219.744204,116.060639 Z M234.369821,112.118373 L239.334094,112.118373 L239.334094,111.139797 L240.346636,111.139797 L240.346636,112.118373 L245.254656,112.118373 L245.254656,112.943174 L240.346636,112.943174 L240.346636,113.893791 L244.664006,113.893791 L244.664006,114.690632 L240.346636,114.690632 L240.346636,115.641249 L245.873432,115.641249 L245.873432,116.494009 L239.502851,116.494009 C238.673128,117.137073 237.843406,117.654321 236.99962,118.045752 C238.251235,118.003813 239.502851,117.961874 240.740403,117.905955 C241.331053,117.584423 241.921703,117.248911 242.49829,116.899419 L243.285823,117.402687 C241.246674,118.576979 239.193463,119.471678 237.140251,120.114742 C238.827822,120.058824 240.881034,119.933007 243.299886,119.737291 C242.976435,119.401779 242.638921,119.066267 242.27328,118.730755 L242.962372,118.297386 C244.04523,119.289942 244.874952,120.156681 245.437476,120.897603 L244.720258,121.386892 C244.467123,121.05138 244.199924,120.729847 243.918662,120.408315 C242.582668,120.506173 241.401368,120.590051 240.388826,120.645969 L240.388826,122.882716 C240.388826,123.623638 240.009122,124.001089 239.277841,124.001089 L237.941847,124.001089 L237.744964,123.106391 C238.166857,123.13435 238.560623,123.162309 238.95439,123.162309 C239.249715,123.162309 239.404409,122.994553 239.404409,122.659041 L239.404409,120.701888 C237.95591,120.771786 236.830863,120.813725 236.04333,120.813725 L234.86203,120.855664 L234.665146,120.016885 L235.213607,120.072803 C236.619916,119.709332 238.012163,119.206064 239.390346,118.576979 C238.209046,118.618918 236.957431,118.660857 235.6355,118.716776 L235.45268,117.975853 C235.649563,117.947894 235.846446,117.905955 236.029266,117.822077 C236.676169,117.598402 237.449639,117.151053 238.321551,116.494009 L233.765108,116.494009 L233.765108,115.641249 L239.334094,115.641249 L239.334094,114.690632 L234.960471,114.690632 L234.960471,113.893791 L239.334094,113.893791 L239.334094,112.943174 L234.369821,112.943174 L234.369821,112.118373 Z M237.534017,121.191176 L238.110604,121.834241 C237.013683,122.617102 235.649563,123.260167 234.018244,123.777415 L233.610414,122.938635 C235.199544,122.491285 236.507412,121.918119 237.534017,121.191176 Z M241.963892,121.149237 C243.426454,121.680465 244.776511,122.30955 246,123.050472 L245.493729,123.819354 C244.185861,122.994553 242.849867,122.337509 241.471684,121.8622 L241.963892,121.149237 Z M154.083618,133.55719 L154.083618,143.091322 L153.099202,143.091322 L153.099202,142.294481 L150.539719,142.294481 L150.539719,143.496732 L149.555302,143.496732 L149.555302,133.55719 L150.86317,133.55719 C151.144432,132.774328 151.341315,131.963508 151.467883,131.124728 L152.480426,131.264524 C152.311669,132.089325 152.100722,132.858206 151.81946,133.55719 L154.083618,133.55719 Z M150.539719,141.357843 L153.099202,141.357843 L153.099202,138.296296 L150.539719,138.296296 L150.539719,141.357843 Z M150.539719,137.387618 L153.099202,137.387618 L153.099202,134.507807 L150.539719,134.507807 L150.539719,137.387618 Z M156.530597,136.800472 C157.543139,137.960784 158.302547,138.9813 158.836944,139.848039 L158.035348,140.407226 C157.458761,139.484568 156.685291,138.450073 155.714937,137.30374 L156.530597,136.800472 Z M161.354238,133.571169 C161.354238,138.212418 161.283922,141.092229 161.143292,142.182643 C161.002661,143.245098 160.355758,143.790305 159.174458,143.790305 C158.893197,143.790305 158.415051,143.762346 157.740023,143.734386 L157.50095,142.811728 C158.0916,142.839688 158.597872,142.853667 159.033827,142.853667 C159.694793,142.853667 160.074496,142.490196 160.187001,141.777233 C160.27138,140.994372 160.327632,138.57589 160.355758,134.549746 L156.488407,134.549746 C156.094641,135.430465 155.630559,136.227306 155.082098,136.940269 L154.477385,136.143428 C155.461802,134.77342 156.122767,133.095861 156.488407,131.110748 L157.486887,131.236565 C157.31813,132.061365 157.121247,132.844227 156.868111,133.571169 L161.354238,133.571169 Z M166.248195,131.054829 L167.190422,131.488199 C166.824781,132.578613 166.374762,133.599129 165.826302,134.563725 L165.826302,143.98602 L164.813759,143.98602 L164.813759,136.101489 C164.349677,136.716594 163.843406,137.31772 163.294945,137.890886 L162.971494,136.814452 C164.462182,135.136892 165.559103,133.221678 166.248195,131.054829 Z M167.120106,133.389434 L170.903079,133.389434 C170.706195,132.648511 170.467123,131.963508 170.213987,131.348402 L171.282782,131.166667 C171.507792,131.809731 171.718738,132.550654 171.915621,133.389434 L175.586089,133.389434 L175.586089,134.354031 L167.120106,134.354031 L167.120106,133.389434 Z M166.881034,142.30846 L171.718738,142.30846 C172.435956,140.435185 173.054732,138.086601 173.58913,135.262709 L174.559483,135.514343 C174.067275,138.072622 173.462562,140.337328 172.759407,142.30846 L175.951729,142.30846 L175.951729,143.301017 L166.881034,143.301017 L166.881034,142.30846 Z M168.849867,135.416485 C169.398328,137.219862 169.890536,139.288853 170.326492,141.609477 L169.384265,141.861111 C169.004561,139.736202 168.512353,137.681191 167.921703,135.696078 L168.849867,135.416485 Z M177.526796,135.094953 L182.997339,135.094953 L183.081718,134.284132 L178.469023,134.284132 L178.469023,131.669935 L188.650703,131.669935 L188.650703,134.284132 L184.094261,134.284132 L184.009882,135.094953 L189.606994,135.094953 L189.606994,135.863834 L183.897377,135.863834 C183.841125,136.143428 183.798936,136.409041 183.742683,136.660675 L187.820981,136.660675 L187.820981,142.825708 L189.860129,142.825708 L189.860129,143.636529 L177.27366,143.636529 L177.27366,142.825708 L179.312809,142.825708 L179.312809,136.660675 L182.730141,136.660675 C182.786393,136.395062 182.828582,136.129448 182.884835,135.863834 L177.526796,135.863834 L177.526796,135.094953 Z M180.297225,142.825708 L186.822501,142.825708 L186.822501,141.90305 L180.297225,141.90305 L180.297225,142.825708 Z M180.297225,141.273965 L186.822501,141.273965 L186.822501,140.393246 L180.297225,140.393246 L180.297225,141.273965 Z M180.297225,139.750182 L186.822501,139.750182 L186.822501,138.869463 L180.297225,138.869463 L180.297225,139.750182 Z M180.297225,138.240378 L186.822501,138.240378 L186.822501,137.359659 L180.297225,137.359659 L180.297225,138.240378 Z M187.694413,133.571169 L187.694413,132.410857 L185.599012,132.410857 L185.599012,133.571169 L187.694413,133.571169 Z M184.670848,133.571169 L184.670848,132.410857 L182.448879,132.410857 L182.448879,133.571169 L184.670848,133.571169 Z M181.534778,133.571169 L181.534778,132.410857 L179.439377,132.410857 L179.439377,133.571169 L181.534778,133.571169 Z M203.388826,132.089325 L203.388826,143.398874 L202.404409,143.398874 L202.404409,142.294481 L198.987077,142.294481 L198.987077,143.538671 L198.016724,143.538671 L198.016724,132.089325 L203.388826,132.089325 Z M198.987077,141.343863 L202.404409,141.343863 L202.404409,133.025962 L198.987077,133.025962 L198.987077,141.343863 Z M191.58989,134.983115 L194.050931,134.983115 L194.050931,132.970044 C193.347777,133.081881 192.630559,133.165759 191.899278,133.221678 L191.575827,132.326979 C193.671228,132.159223 195.415051,131.809731 196.821361,131.278504 L197.299506,132.117284 C196.568225,132.382898 195.822881,132.606572 195.035348,132.774328 L195.035348,134.983115 L197.440137,134.983115 L197.440137,135.919753 L195.035348,135.919753 L195.035348,136.618736 C195.851007,137.331699 196.666667,138.14252 197.496389,139.065178 L196.905739,139.931917 C196.174458,138.939361 195.555682,138.14252 195.035348,137.555374 L195.035348,143.860203 L194.050931,143.860203 L194.050931,137.653232 C193.446218,138.9813 192.644622,140.183551 191.646142,141.259985 L191.224249,140.169572 C192.532117,138.939361 193.474344,137.555374 194.050931,136.017611 L194.050931,135.919753 L191.58989,135.919753 L191.58989,134.983115 Z M205.512353,134.815359 L210.982896,134.815359 C211.095401,134.004539 211.151653,133.165759 211.165716,132.28504 L211.165716,131.152687 L212.206385,131.152687 L212.206385,132.061365 C212.206385,133.039942 212.13607,133.94862 212.023565,134.815359 L217.859749,134.815359 L217.859749,135.793936 L212.31889,135.793936 C213.303307,138.953341 215.244014,141.385802 218.126948,143.091322 L217.494109,143.902142 C214.667427,142.168664 212.72672,139.736202 211.671988,136.576797 C210.800076,139.973856 208.859369,142.448257 205.86393,144 L205.231091,143.16122 C208.22653,141.693355 210.082858,139.232934 210.814139,135.793936 L205.512353,135.793936 L205.512353,134.815359 Z M225.074116,143.804285 L222.922463,143.804285 L222.68339,142.75581 C223.386545,142.811728 224.061574,142.839688 224.694413,142.839688 C225.214747,142.839688 225.481946,142.574074 225.481946,142.056826 L225.481946,131.348402 L226.522615,131.348402 L226.522615,142.32244 C226.522615,143.301017 226.030407,143.804285 225.074116,143.804285 Z M221.713037,134.591685 L222.72558,134.983115 C222.050551,137.779049 221.164576,139.903958 220.067655,141.357843 L219.195743,140.588962 C220.320791,139.107117 221.150513,137.108025 221.713037,134.591685 Z M229.700874,134.256173 C230.811859,136.758533 231.669707,138.939361 232.260357,140.798656 L231.360319,141.427741 C230.72748,139.442629 229.869631,137.247821 228.786773,134.829339 L229.700874,134.256173 Z" id="不要改变图标元素-的位置和大小" fill="#000000"></path>
        <g id="no_icon" transform="translate(222.000000, 66.000000)" stroke="#EA4747" stroke-width="0.923076923">
            <circle id="Oval" cx="6" cy="6" r="6"></circle>
            <path d="M2.30769231,2.30769231 L10.1674091,10.1674091" id="Line" stroke-linecap="square"></path>
        </g>
        <g id="app-icon" transform="translate(147.000000, 10.000000)">
            <mask id="mask-10" fill="white">
                <use xlink:href="#path-9"></use>
            </mask>
            <use fill="url(#linearGradient-5)" xlink:href="#path-9"></use>
            <g id="logo" filter="url(#filter-11)" mask="url(#mask-10)">
                <g transform="translate(12.250000, 12.250000)">
                    <path d="M2.35316667,26.5895173 C1.064,28.1216337 0.29925,30.029177 0.29925,32.0969493 C0.29925,34.5799134 1.40175,36.8318905 3.19083333,38.4797927 C4.19358333,39.8277042 1.54816667,41.2241522 2.98783333,41.2241522 C2.98783333,41.2241522 10.2678333,41.2428651 10.4883333,41.2428651 C11.63225,41.2428651 12.7324167,41.0738645 13.7596667,40.7615934 C5.74466667,36.9289635 3.12608333,30.9817791 2.35316667,26.5895173" id="Fill-14" fill="#8F7CE0"></path>
                    <path d="M41.9000167,31.7257435 C39.8595167,34.4736117 44.3027667,37.1805455 42.3130167,37.3214768 C42.3130167,37.3214768 27.4992667,37.3600721 27.0506833,37.3600721 C15.6004333,37.3600721 6.31843333,29.0112076 6.31843333,18.7126959 C6.31843333,8.4141841 15.6004333,0.0653196163 27.0506833,0.0653196163 C38.5015167,0.0653196163 47.7829333,8.4141841 47.7829333,18.7126959 C47.7829333,23.7745275 45.5411833,28.3661983 41.9000167,31.7257435 Z M33.3524333,27.1668202 C36.1734333,26.7083549 37.9502667,24.7569533 37.9502667,21.9886179 C37.9502667,20.4576711 37.1966,18.9337416 35.54985,17.9314335 C36.8057667,17.0039768 37.4200167,15.7695121 37.4200167,14.409905 C37.4200167,11.9199236 35.8619333,10.1422008 33.3524333,9.63753806 L33.3524333,8.60072803 C33.3524333,8.47441615 33.25035,8.37149536 33.12435,8.37149536 L32.3135167,8.37149536 C32.1875167,8.37149536 32.0854333,8.47441615 32.0854333,8.60072803 L32.0854333,9.49660675 C31.9996833,9.49368286 31.91335,9.4925133 31.82585,9.4925133 L27.5745167,9.4925133 L27.5745167,8.60072803 C27.5745167,8.47441615 27.4724333,8.37149536 27.3464333,8.37149536 L26.5350167,8.37149536 C26.4096,8.37149536 26.3075167,8.47441615 26.3075167,8.60072803 L26.3075167,9.54338892 L23.9852667,9.54338892 C23.8400167,9.54338892 23.7221833,9.66151392 23.7221833,9.80770823 L23.7221833,11.3673091 C23.7221833,11.5135034 23.8400167,11.6322132 23.9852667,11.6322132 L25.34385,11.6322132 L25.34385,25.1317955 L24.0395167,25.1317955 C23.8919333,25.1317955 23.7729333,25.25109 23.7729333,25.3990387 L23.7729333,27.0036674 C23.7729333,27.1510313 23.8919333,27.2709106 24.0395167,27.2709106 L26.3075167,27.2709106 L26.3075167,28.51941 C26.3075167,28.6451371 26.4096,28.7480579 26.5350167,28.7480579 L27.3464333,28.7480579 C27.4724333,28.7480579 27.5745167,28.6451371 27.5745167,28.51941 L27.5745167,27.2709106 L29.7410167,27.2709106 L32.0276833,27.2709106 L32.0854333,27.2709106 L32.0854333,28.51941 C32.0854333,28.6451371 32.1875167,28.7480579 32.3135167,28.7480579 L33.12435,28.7480579 C33.25035,28.7480579 33.3524333,28.6451371 33.3524333,28.51941 L33.3524333,27.1668202 Z M31.5671417,19.3243144 C33.552225,19.3243144 34.9913083,20.5295402 34.9913083,22.0090266 C34.9913083,23.7434759 33.984475,24.7235625 32.0273917,24.7235625 L28.2841417,24.7235625 L28.2841417,19.3243144 L31.5671417,19.3243144 Z M34.4444917,14.4239397 C34.4444917,15.7578165 33.1494917,16.7764985 31.3942417,16.7764985 L28.2839083,16.7764985 L28.2839083,12.0398029 L31.8259083,12.0398029 C33.5817417,12.0398029 34.4444917,12.9105362 34.4444917,14.4239397 Z" id="Combined-Shape" fill="#FFFFFF"></path>
                </g>
            </g>
        </g>
        <path d="M1.39323181,111.88984 L13.3306261,111.88984 L13.3306261,112.877005 L8.75228426,112.877005 C8.49949239,113.447059 8.20456853,114.003209 7.88155668,114.531551 L7.88155668,123.944385 L6.84230118,123.944385 L6.84230118,116.005348 C5.52216582,117.632086 3.79475465,119.078075 1.66006768,120.343316 L1,119.46738 C4.17394247,117.659893 6.3928934,115.463102 7.62876481,112.877005 L1.39323181,112.877005 L1.39323181,111.88984 Z M9.65109983,115.629947 C11.2661591,116.895187 12.6143824,118.160428 13.7098139,119.425668 L12.9373942,120.204278 C11.9543147,118.980749 10.6201354,117.687701 8.92081218,116.31123 L9.65109983,115.629947 Z M15.1984772,111.722995 L27.6133672,111.722995 L27.6133672,112.626738 L23.4703892,112.626738 L23.4703892,113.864171 L26.7426396,113.864171 L26.7426396,117.367914 L20.9003384,117.367914 C20.6475465,117.812834 20.4087986,118.216043 20.1840948,118.605348 L27.7818951,118.605348 L27.7818951,119.522995 L24.7624365,119.522995 C24.4815567,120.357219 23.9619289,121.06631 23.2175973,121.664171 C24.6500846,122.095187 26.1106599,122.595722 27.5993232,123.179679 L26.9673435,124 C25.4225042,123.346524 23.863621,122.776471 22.3047377,122.275936 C20.9705584,122.985027 18.7796954,123.541176 15.7461929,123.944385 L15.3670051,123.054545 C17.8668359,122.762567 19.762775,122.373262 21.0267343,121.886631 C19.8610829,121.539037 18.6954315,121.233155 17.52978,120.968984 C17.8668359,120.482353 18.1758037,119.995722 18.4847716,119.522995 L15.0159052,119.522995 L15.0159052,118.605348 L19.0465313,118.605348 C19.2993232,118.174332 19.5380711,117.757219 19.762775,117.367914 L16.0692047,117.367914 L16.0692047,113.864171 L19.3414552,113.864171 L19.3414552,112.626738 L15.1984772,112.626738 L15.1984772,111.722995 Z M22.1362098,121.344385 C22.9226734,120.857754 23.4563452,120.245989 23.737225,119.522995 L19.636379,119.522995 C19.3976311,119.898396 19.1729272,120.245989 18.9622673,120.551872 C20.0015228,120.774332 21.0548223,121.038503 22.1362098,121.344385 Z M22.5013536,113.864171 L22.5013536,112.626738 L20.3104907,112.626738 L20.3104907,113.864171 L22.5013536,113.864171 Z M25.7736041,116.505882 L25.7736041,114.740107 L23.4703892,114.740107 L23.4703892,116.505882 L25.7736041,116.505882 Z M22.5013536,116.505882 L22.5013536,114.740107 L20.3104907,114.740107 L20.3104907,116.505882 L22.5013536,116.505882 Z M19.3414552,116.505882 L19.3414552,114.740107 L17.0382403,114.740107 L17.0382403,116.505882 L19.3414552,116.505882 Z M39.1575296,114.128342 C40.2248731,114.823529 41.1096447,115.518717 41.8399323,116.213904 L41.1377327,116.909091 C40.491709,116.241711 39.6069374,115.518717 38.4834179,114.767914 L39.1575296,114.128342 Z M35.5903553,111 C35.7588832,111.417112 35.9133672,111.875936 36.0678511,112.390374 L41.4888325,112.390374 L41.4888325,113.363636 L37.6126904,113.363636 L37.6126904,117.117647 L36.6015228,117.117647 L36.6015228,113.363636 L34.3123519,113.363636 L34.3123519,117.117647 L33.3011844,117.117647 L33.3011844,113.363636 L29.4109983,113.363636 L29.4109983,112.390374 L35.0426396,112.390374 C34.8741117,111.945455 34.6915398,111.528342 34.4949239,111.166845 L35.5903553,111 Z M31.7563452,114.170053 L32.5006768,114.823529 C31.7423012,115.616043 30.8013536,116.325134 29.6918782,116.936898 L29.0739425,116.130481 C30.141286,115.574332 31.0260575,114.920856 31.7563452,114.170053 Z M30.3659898,117.854545 L39.9580372,117.854545 L39.9580372,118.619251 C39.0311337,119.759358 37.8935702,120.73262 36.5453469,121.525134 C38.0620981,122.17861 39.8597293,122.651337 41.9241963,122.929412 L41.4607445,123.847059 C39.1434856,123.457754 37.1773266,122.859893 35.5622673,122.053476 C33.8769882,122.873797 31.8967851,123.471658 29.6497462,123.847059 L29.1862944,122.901604 C31.2086294,122.609626 32.9781726,122.136898 34.5230118,121.483422 C33.2730964,120.704813 32.2619289,119.80107 31.4754653,118.744385 L30.3659898,118.744385 L30.3659898,117.854545 Z M32.5989848,118.744385 C33.3573604,119.634225 34.3263959,120.39893 35.4920474,121.024599 C36.6998308,120.385027 37.7250423,119.620321 38.5957699,118.744385 L32.5989848,118.744385 Z M43.3426396,111.709091 L50.3505922,111.709091 L50.3505922,112.654545 L48.9461929,112.654545 L48.9461929,116.672727 L50.5612521,116.672727 L50.5612521,117.632086 L48.9461929,117.632086 L48.9461929,123.819251 L47.9209814,123.819251 L47.9209814,117.632086 L45.8143824,117.632086 C45.7020305,120.454545 45.0419628,122.540107 43.8482234,123.874866 L43.0898477,123.22139 C44.1150592,122.025668 44.676819,120.162567 44.7751269,117.632086 L43.0898477,117.632086 L43.0898477,116.672727 L44.7891709,116.672727 L44.7891709,112.654545 L43.3426396,112.654545 L43.3426396,111.709091 Z M45.8284264,112.654545 L45.8284264,116.672727 L47.9209814,116.672727 L47.9209814,112.654545 L45.8284264,112.654545 Z M54.4514382,111.208556 L55.1115059,111.959358 C53.9739425,113.127273 52.5554992,114.100535 50.842132,114.879144 L50.4067682,113.961497 C52.0358714,113.26631 53.3840948,112.348663 54.4514382,111.208556 Z M55.0553299,114.976471 L55.7153976,115.727273 C54.5637902,116.97861 53.1453469,118.02139 51.4319797,118.855615 L50.9966159,117.951872 C52.6397631,117.20107 53.9879865,116.2 55.0553299,114.976471 Z M55.4064298,118.827807 L56.0805415,119.57861 C54.6480541,121.302674 52.864467,122.720856 50.72978,123.847059 L50.2944162,122.915508 C52.3588832,121.886631 54.0582064,120.524064 55.4064298,118.827807 Z M62.1896785,112.974332 L63.0884941,113.085561 C62.9761421,113.349733 62.8637902,113.6 62.7233503,113.850267 L66.4309645,113.850267 L66.4309645,114.545455 C66.0377327,115.282353 65.4478849,115.935829 64.6473773,116.491979 C65.5883249,116.936898 66.6556684,117.312299 67.8634518,117.590374 L67.32978,118.341176 C65.9675127,117.979679 64.8018613,117.534759 63.8187817,116.992513 C62.7373942,117.562567 61.4032149,118.02139 59.8021997,118.368984 L59.3527919,117.562567 C60.7993232,117.312299 62.0211506,116.950802 63.0042301,116.491979 C62.4565144,116.130481 61.9790186,115.741176 61.5857868,115.324064 C61.164467,115.713369 60.6869712,116.074866 60.1532995,116.408556 L59.5915398,115.685561 C60.8695431,114.934759 61.7402707,114.031016 62.1896785,112.974332 Z M63.8187817,116.060963 C64.5069374,115.64385 65.0406091,115.157219 65.419797,114.60107 L62.2318105,114.60107 C62.1756345,114.656684 62.1335025,114.712299 62.1054146,114.767914 C62.5969543,115.240642 63.172758,115.671658 63.8187817,116.060963 Z M61.0380711,119.80107 C62.9059222,120.148663 64.7035533,120.649198 66.4169205,121.28877 L66.0798646,122.095187 C64.3384095,121.427807 62.5267343,120.913369 60.6448393,120.551872 L61.0380711,119.80107 Z M62.4986464,117.854545 C63.5940778,118.216043 64.6052453,118.660963 65.5181049,119.161497 L65.0406091,119.884492 C64.0715736,119.300535 63.0744501,118.855615 62.0351946,118.521925 L62.4986464,117.854545 Z M69.2678511,111.77861 L69.2678511,123.916578 L68.2847716,123.916578 L68.2847716,123.346524 L58.7910321,123.346524 L58.7910321,123.916578 L57.8079526,123.916578 L57.8079526,111.77861 L69.2678511,111.77861 Z M58.7910321,122.456684 L68.2847716,122.456684 L68.2847716,112.668449 L58.7910321,112.668449 L58.7910321,122.456684 Z M73.2423012,111.208556 L74.2394247,111.208556 L74.2394247,113.836364 L75.8685279,113.836364 L75.8685279,114.795722 L74.2394247,114.795722 L74.2394247,115.86631 C74.9275804,116.561497 75.615736,117.340107 76.3038917,118.188235 L75.728088,119.036364 C75.1522843,118.160428 74.6607445,117.465241 74.2394247,116.936898 L74.2394247,123.902674 L73.2423012,123.902674 L73.2423012,116.97861 C72.7928934,118.285561 72.2170897,119.481283 71.51489,120.565775 L71.0795262,119.481283 C72.0906937,118.118717 72.8069374,116.547594 73.2423012,114.795722 L71.528934,114.795722 L71.528934,113.836364 L73.2423012,113.836364 L73.2423012,111.208556 Z M77.3852792,117.493048 L78.3121827,117.701604 C77.862775,119.648128 77.2027073,121.316578 76.3600677,122.734759 L75.4893401,122.17861 C76.3600677,120.774332 76.9920474,119.217112 77.3852792,117.493048 Z M82.4692047,117.423529 C83.0590525,118.994652 83.5646362,120.677005 83.985956,122.456684 L83.0730964,122.859893 C82.6096447,120.927273 82.1040609,119.217112 81.5563452,117.715508 L82.4692047,117.423529 Z M79.3233503,123.763636 L77.8908629,123.763636 L77.694247,122.832086 C78.1436548,122.859893 78.5649746,122.887701 78.9722504,122.887701 C79.3514382,122.887701 79.5480541,122.679144 79.5480541,122.275936 L79.5480541,116.339037 L76.1213198,116.339037 L76.1213198,115.379679 L84,115.379679 L84,116.339037 L80.5592217,116.339037 L80.5592217,122.526203 C80.5592217,123.346524 80.1379019,123.763636 79.3233503,123.763636 Z M76.8656514,112.00107 L83.2697124,112.00107 L83.2697124,112.946524 L76.8656514,112.946524 L76.8656514,112.00107 Z" id="不要变形图标" fill="#000000"></path>
        <g id="no_icon" transform="translate(75.000000, 66.000000)" stroke="#EA4747" stroke-width="0.923076923">
            <circle id="Oval" cx="6" cy="6" r="6"></circle>
            <path d="M2.30769231,2.30769231 L10.1674091,10.1674091" id="Line" stroke-linecap="square"></path>
        </g>
        <g id="app-icon" transform="translate(0.000000, 9.000000)">
            <path d="M41.956,0 C41.12,0 40.284,0 39.447,0.005 C38.74,0.01 38.033,0.018 37.323,0.036 C35.774,0.078 34.194,0.168 32.581,0.441 C30.944,0.717 29.352,1.169 27.703,1.881 C26.08,2.581 24.499,3.495 23.024,4.585 C21.548,5.676 20.191,6.932 19.003,8.308 C17.797,9.706 16.839,11.139 16.018,12.679 C15.21,14.195 14.572,15.743 13.989,17.277 C13.722,17.981 13.464,18.686 13.211,19.389 C12.91,20.225 12.614,21.061 12.319,21.897 L3.056,48.102 C2.761,48.939 2.466,49.774 2.176,50.611 C1.93,51.314 1.691,52.02 1.462,52.723 C0.959,54.257 0.504,55.803 0.239,57.32 C-0.028,58.861 -0.084,60.295 0.135,61.693 C0.349,63.067 0.819,64.325 1.525,65.415 C2.227,66.506 3.163,67.419 4.291,68.119 C5.437,68.831 6.71,69.282 8.151,69.559 C9.572,69.831 11.087,69.923 12.607,69.964 C13.304,69.982 14.006,69.99 14.709,69.995 C15.542,70 16.379,70 17.214,70 L43.42,70 C44.256,70 45.093,70 45.93,69.995 C46.636,69.99 47.343,69.982 48.054,69.964 C49.603,69.923 51.182,69.831 52.796,69.559 C54.433,69.282 56.025,68.831 57.674,68.119 C59.297,67.419 60.876,66.506 62.353,65.415 C63.83,64.325 65.187,63.067 66.372,61.693 C67.579,60.295 68.539,58.861 69.359,57.32 C70.167,55.803 70.804,54.257 71.388,52.723 C71.654,52.02 71.913,51.314 72.166,50.611 C72.466,49.774 72.761,48.939 73.057,48.102 L82.318,21.897 C82.615,21.061 82.91,20.225 83.201,19.389 C83.444,18.686 83.686,17.981 83.915,17.277 C84.417,15.743 84.874,14.195 85.137,12.679 C85.405,11.139 85.46,9.706 85.242,8.308 C85.027,6.932 84.558,5.676 83.853,4.585 C83.146,3.495 82.214,2.581 81.086,1.881 C79.94,1.169 78.666,0.717 77.226,0.441 C75.804,0.168 74.29,0.078 72.77,0.036 C72.072,0.018 71.372,0.01 70.668,0.005 C69.835,0 68.998,0 68.161,0 L41.956,0 Z" id="Fill-1" fill="url(#linearGradient-5)"></path>
            <path d="M20.9339,38.8398 C19.1029,40.3718 17.6639,42.2788 16.9339,44.3468 C16.0559,46.8298 16.3619,49.0818 17.5689,50.7298 C18.0959,52.0778 14.9559,53.4748 16.3959,53.4748 C16.3959,53.4748 23.6689,53.4928 23.8899,53.4928 C25.0339,53.4928 26.1939,53.3238 27.3309,53.0118 C20.6709,49.1788 20.1549,43.2318 20.9339,38.8398" id="Fill-4" fill="#8F7CE0"></path>
            <path d="M49.2161,31.0488 C48.7441,32.3828 47.0901,33.4018 45.3341,33.4018 L42.2241,33.4018 L43.8991,28.6648 L47.4411,28.6648 C49.1961,28.6648 49.7511,29.5358 49.2161,31.0488 Z M44.6071,35.9488 C46.5921,35.9488 47.6051,37.1538 47.0821,38.6338 C46.4691,40.3678 45.1151,41.3488 43.1591,41.3488 L39.4151,41.3488 L41.3241,35.9488 L44.6071,35.9488 Z M43.6201,43.7918 C46.6031,43.3328 49.0701,41.3818 50.0481,38.6128 C50.5891,37.0828 50.3741,35.5588 49.0821,34.5568 C50.6651,33.6288 51.7161,32.3948 52.1961,31.0348 C53.0761,28.5448 52.1471,26.7668 49.8161,26.2628 L50.1831,25.2258 C50.2271,25.0998 50.1611,24.9968 50.0351,24.9968 L49.2251,24.9968 C49.0991,24.9968 48.9601,25.0998 48.9151,25.2258 L48.5991,26.1218 C48.5141,26.1188 48.4281,26.1178 48.3411,26.1178 L44.0891,26.1178 L44.4041,25.2258 C44.4491,25.0998 44.3831,24.9968 44.2571,24.9968 L43.4461,24.9968 C43.3201,24.9968 43.1821,25.0998 43.1371,25.2258 L42.8041,26.1688 L40.4821,26.1688 C40.3371,26.1688 40.1771,26.2868 40.1261,26.4328 L39.5741,27.9918 C39.5231,28.1388 39.5981,28.2568 39.7441,28.2568 L41.1021,28.2568 L36.3311,41.7568 L35.0271,41.7568 C34.8791,41.7568 34.7181,41.8758 34.6661,42.0248 L34.0981,43.6288 C34.0461,43.7768 34.1231,43.8958 34.2711,43.8958 L36.5381,43.8958 L36.0971,45.1448 C36.0531,45.2708 36.1181,45.3728 36.2441,45.3728 L37.0551,45.3728 C37.1811,45.3728 37.3201,45.2708 37.3641,45.1448 L37.8051,43.8958 L39.9721,43.8958 L42.2581,43.8958 L42.3171,43.8958 L41.8751,45.1448 C41.8311,45.2708 41.8961,45.3728 42.0221,45.3728 L42.8331,45.3728 C42.9591,45.3728 43.0981,45.2708 43.1421,45.1448 L43.6201,43.7918 Z M54.4941,48.3508 C51.4831,51.0988 54.9691,53.8058 52.9291,53.9458 C52.9291,53.9458 38.1021,53.9858 37.6531,53.9858 C26.2031,53.9858 19.8721,45.6358 23.5121,35.3378 C27.1521,25.0388 39.3841,16.6908 50.8351,16.6908 C62.2851,16.6908 68.6161,25.0388 64.9761,35.3378 C63.1871,40.3998 59.3221,44.9908 54.4941,48.3508 Z" id="Fill-6" fill="#FFFFFF"></path>
        </g>
    </g>
</svg>