<?xml version="1.0" encoding="UTF-8"?>
<svg width="600px" height="200px" viewBox="0 0 600 200" version="1.1" xmlns="http://www.w3.org/2000/svg" xmlns:xlink="http://www.w3.org/1999/xlink" style="background: #FFFFFF;">
    <!-- Generator: Sketch 49.2 (51160) - http://www.bohemiancoding.com/sketch -->
    <title>demo04 svg</title>
    <desc>Created with Sketch.</desc>
    <defs>
        <linearGradient x1="50%" y1="0%" x2="50%" y2="100%" id="linearGradient-1">
            <stop stop-color="#B4EC51" offset="0%"></stop>
            <stop stop-color="#429321" offset="100%"></stop>
        </linearGradient>
        <path d="M70,21.8971667 C70,21.0606667 70,20.2253333 69.9953333,19.3888333 C69.9906667,18.6853333 69.9825,17.9806667 69.9638333,17.2771667 C69.923,15.743 69.832,14.196 69.5601667,12.6793333 C69.2836667,11.1393333 68.8321667,9.70666667 68.1193333,8.30783333 C67.4193333,6.93233333 66.5058333,5.67583333 65.415,4.585 C64.3241667,3.49533333 63.0676667,2.58066667 61.6921667,1.88066667 C60.2945,1.169 58.8618333,0.7175 57.323,0.441 C55.8051667,0.168 54.2581667,0.0781666667 52.724,0.0361666667 C52.0193333,0.0175 51.3158333,0.00933333333 50.6111667,0.00466666667 C49.7758333,0 48.9393333,0 48.1028333,0 L21.8971667,0 C21.0618333,0 20.2253333,0 19.39,0.00466666667 C18.6853333,0.00933333333 17.9806667,0.0175 17.2771667,0.0361666667 C15.743,0.0781666667 14.1948333,0.168 12.6781667,0.441 C11.1393333,0.7175 9.70666667,1.169 8.309,1.88066667 C6.9335,2.58066667 5.67583333,3.49533333 4.58616667,4.585 C3.49533333,5.67583333 2.58183333,6.93233333 1.88183333,8.30783333 C1.169,9.70666667 0.7175,11.1393333 0.441,12.6793333 C0.169166667,14.196 0.0781666667,15.743 0.0373333333,17.2771667 C0.0186666667,17.9806667 0.00933333333,18.6853333 0.00583333333,19.3888333 C0,20.2253333 0,21.0606667 0,21.8971667 L0,48.1028333 C0,48.9393333 0,49.7746667 0.00583333333,50.6111667 C0.00933333333,51.3146667 0.0186666667,52.0193333 0.0373333333,52.7228333 C0.0781666667,54.257 0.169166667,55.804 0.441,57.3206667 C0.7175,58.8606667 1.169,60.2945 1.88183333,61.6933333 C2.58183333,63.0676667 3.49533333,64.3241667 4.58616667,65.4138333 C5.67583333,66.5058333 6.9335,67.4193333 8.309,68.1193333 C9.70666667,68.831 11.1393333,69.2825 12.6781667,69.559 C14.1948333,69.8308333 15.743,69.923 17.2771667,69.9638333 C17.9806667,69.9825 18.6853333,69.9906667 19.39,69.9953333 C20.2253333,70 21.0618333,70 21.8971667,70 L48.1028333,70 C48.9393333,70 49.7758333,70 50.6111667,69.9953333 C51.3158333,69.9906667 52.0193333,69.9825 52.724,69.9638333 C54.2581667,69.923 55.8051667,69.8308333 57.323,69.559 C58.8618333,69.2825 60.2945,68.831 61.6921667,68.1193333 C63.0676667,67.4193333 64.3241667,66.5058333 65.415,65.4138333 C66.5058333,64.3241667 67.4193333,63.0676667 68.1193333,61.6933333 C68.8321667,60.2945 69.2836667,58.8606667 69.5601667,57.3206667 C69.832,55.804 69.923,54.257 69.9638333,52.7228333 C69.9825,52.0193333 69.9906667,51.3146667 69.9953333,50.6111667 C70,49.7746667 70,48.9393333 70,48.1028333 L70,21.8971667 Z" id="path-2"></path>
        <filter x="-6.5%" y="-7.9%" width="113.0%" height="115.8%" filterUnits="objectBoundingBox" id="filter-4">
            <feOffset dx="0" dy="0" in="SourceAlpha" result="shadowOffsetOuter1"></feOffset>
            <feGaussianBlur stdDeviation="1" in="shadowOffsetOuter1" result="shadowBlurOuter1"></feGaussianBlur>
            <feColorMatrix values="0 0 0 0 0   0 0 0 0 0   0 0 0 0 0  0 0 0 0.4 0" type="matrix" in="shadowBlurOuter1" result="shadowMatrixOuter1"></feColorMatrix>
            <feMerge>
                <feMergeNode in="shadowMatrixOuter1"></feMergeNode>
                <feMergeNode in="SourceGraphic"></feMergeNode>
            </feMerge>
        </filter>
        <linearGradient x1="50%" y1="0%" x2="50%" y2="100%" id="linearGradient-5">
            <stop stop-color="#7355FE" offset="0%"></stop>
            <stop stop-color="#5C36FB" offset="62.5835441%"></stop>
            <stop stop-color="#3C19C4" offset="100%"></stop>
        </linearGradient>
        <path d="M70,21.8971667 C70,21.0606667 70,20.2253333 69.9953333,19.3888333 C69.9906667,18.6853333 69.9825,17.9806667 69.9638333,17.2771667 C69.923,15.743 69.832,14.196 69.5601667,12.6793333 C69.2836667,11.1393333 68.8321667,9.70666667 68.1193333,8.30783333 C67.4193333,6.93233333 66.5058333,5.67583333 65.415,4.585 C64.3241667,3.49533333 63.0676667,2.58066667 61.6921667,1.88066667 C60.2945,1.169 58.8618333,0.7175 57.323,0.441 C55.8051667,0.168 54.2581667,0.0781666667 52.724,0.0361666667 C52.0193333,0.0175 51.3158333,0.00933333333 50.6111667,0.00466666667 C49.7758333,0 48.9393333,0 48.1028333,0 L21.8971667,0 C21.0618333,0 20.2253333,0 19.39,0.00466666667 C18.6853333,0.00933333333 17.9806667,0.0175 17.2771667,0.0361666667 C15.743,0.0781666667 14.1948333,0.168 12.6781667,0.441 C11.1393333,0.7175 9.70666667,1.169 8.309,1.88066667 C6.9335,2.58066667 5.67583333,3.49533333 4.58616667,4.585 C3.49533333,5.67583333 2.58183333,6.93233333 1.88183333,8.30783333 C1.169,9.70666667 0.7175,11.1393333 0.441,12.6793333 C0.169166667,14.196 0.0781666667,15.743 0.0373333333,17.2771667 C0.0186666667,17.9806667 0.00933333333,18.6853333 0.00583333333,19.3888333 C0,20.2253333 0,21.0606667 0,21.8971667 L0,48.1028333 C0,48.9393333 0,49.7746667 0.00583333333,50.6111667 C0.00933333333,51.3146667 0.0186666667,52.0193333 0.0373333333,52.7228333 C0.0781666667,54.257 0.169166667,55.804 0.441,57.3206667 C0.7175,58.8606667 1.169,60.2945 1.88183333,61.6933333 C2.58183333,63.0676667 3.49533333,64.3241667 4.58616667,65.4138333 C5.67583333,66.5058333 6.9335,67.4193333 8.309,68.1193333 C9.70666667,68.831 11.1393333,69.2825 12.6781667,69.559 C14.1948333,69.8308333 15.743,69.923 17.2771667,69.9638333 C17.9806667,69.9825 18.6853333,69.9906667 19.39,69.9953333 C20.2253333,70 21.0618333,70 21.8971667,70 L48.1028333,70 C48.9393333,70 49.7758333,70 50.6111667,69.9953333 C51.3158333,69.9906667 52.0193333,69.9825 52.724,69.9638333 C54.2581667,69.923 55.8051667,69.8308333 57.323,69.559 C58.8618333,69.2825 60.2945,68.831 61.6921667,68.1193333 C63.0676667,67.4193333 64.3241667,66.5058333 65.415,65.4138333 C66.5058333,64.3241667 67.4193333,63.0676667 68.1193333,61.6933333 C68.8321667,60.2945 69.2836667,58.8606667 69.5601667,57.3206667 C69.832,55.804 69.923,54.257 69.9638333,52.7228333 C69.9825,52.0193333 69.9906667,51.3146667 69.9953333,50.6111667 C70,49.7746667 70,48.9393333 70,48.1028333 L70,21.8971667 Z" id="path-6"></path>
        <filter x="-6.5%" y="-7.9%" width="113.0%" height="115.8%" filterUnits="objectBoundingBox" id="filter-8">
            <feOffset dx="0" dy="0" in="SourceAlpha" result="shadowOffsetOuter1"></feOffset>
            <feGaussianBlur stdDeviation="1" in="shadowOffsetOuter1" result="shadowBlurOuter1"></feGaussianBlur>
            <feColorMatrix values="0 0 0 0 0   0 0 0 0 0   0 0 0 0 0  0 0 0 0.4 0" type="matrix" in="shadowBlurOuter1" result="shadowMatrixOuter1"></feColorMatrix>
            <feMerge>
                <feMergeNode in="shadowMatrixOuter1"></feMergeNode>
                <feMergeNode in="SourceGraphic"></feMergeNode>
            </feMerge>
        </filter>
        <path d="M70,21.8971667 C70,21.0606667 70,20.2253333 69.9953333,19.3888333 C69.9906667,18.6853333 69.9825,17.9806667 69.9638333,17.2771667 C69.923,15.743 69.832,14.196 69.5601667,12.6793333 C69.2836667,11.1393333 68.8321667,9.70666667 68.1193333,8.30783333 C67.4193333,6.93233333 66.5058333,5.67583333 65.415,4.585 C64.3241667,3.49533333 63.0676667,2.58066667 61.6921667,1.88066667 C60.2945,1.169 58.8618333,0.7175 57.323,0.441 C55.8051667,0.168 54.2581667,0.0781666667 52.724,0.0361666667 C52.0193333,0.0175 51.3158333,0.00933333333 50.6111667,0.00466666667 C49.7758333,0 48.9393333,0 48.1028333,0 L21.8971667,0 C21.0618333,0 20.2253333,0 19.39,0.00466666667 C18.6853333,0.00933333333 17.9806667,0.0175 17.2771667,0.0361666667 C15.743,0.0781666667 14.1948333,0.168 12.6781667,0.441 C11.1393333,0.7175 9.70666667,1.169 8.309,1.88066667 C6.9335,2.58066667 5.67583333,3.49533333 4.58616667,4.585 C3.49533333,5.67583333 2.58183333,6.93233333 1.88183333,8.30783333 C1.169,9.70666667 0.7175,11.1393333 0.441,12.6793333 C0.169166667,14.196 0.0781666667,15.743 0.0373333333,17.2771667 C0.0186666667,17.9806667 0.00933333333,18.6853333 0.00583333333,19.3888333 C0,20.2253333 0,21.0606667 0,21.8971667 L0,48.1028333 C0,48.9393333 0,49.7746667 0.00583333333,50.6111667 C0.00933333333,51.3146667 0.0186666667,52.0193333 0.0373333333,52.7228333 C0.0781666667,54.257 0.169166667,55.804 0.441,57.3206667 C0.7175,58.8606667 1.169,60.2945 1.88183333,61.6933333 C2.58183333,63.0676667 3.49533333,64.3241667 4.58616667,65.4138333 C5.67583333,66.5058333 6.9335,67.4193333 8.309,68.1193333 C9.70666667,68.831 11.1393333,69.2825 12.6781667,69.559 C14.1948333,69.8308333 15.743,69.923 17.2771667,69.9638333 C17.9806667,69.9825 18.6853333,69.9906667 19.39,69.9953333 C20.2253333,70 21.0618333,70 21.8971667,70 L48.1028333,70 C48.9393333,70 49.7758333,70 50.6111667,69.9953333 C51.3158333,69.9906667 52.0193333,69.9825 52.724,69.9638333 C54.2581667,69.923 55.8051667,69.8308333 57.323,69.559 C58.8618333,69.2825 60.2945,68.831 61.6921667,68.1193333 C63.0676667,67.4193333 64.3241667,66.5058333 65.415,65.4138333 C66.5058333,64.3241667 67.4193333,63.0676667 68.1193333,61.6933333 C68.8321667,60.2945 69.2836667,58.8606667 69.5601667,57.3206667 C69.832,55.804 69.923,54.257 69.9638333,52.7228333 C69.9825,52.0193333 69.9906667,51.3146667 69.9953333,50.6111667 C70,49.7746667 70,48.9393333 70,48.1028333 L70,21.8971667 Z" id="path-9"></path>
        <filter x="-6.2%" y="-7.2%" width="112.5%" height="115.5%" filterUnits="objectBoundingBox" id="filter-11">
            <feOffset dx="0" dy="0" in="SourceAlpha" result="shadowOffsetOuter1"></feOffset>
            <feGaussianBlur stdDeviation="1" in="shadowOffsetOuter1" result="shadowBlurOuter1"></feGaussianBlur>
            <feColorMatrix values="0 0 0 0 0   0 0 0 0 0   0 0 0 0 0  0 0 0 0.4 0" type="matrix" in="shadowBlurOuter1" result="shadowMatrixOuter1"></feColorMatrix>
            <feMerge>
                <feMergeNode in="shadowMatrixOuter1"></feMergeNode>
                <feMergeNode in="SourceGraphic"></feMergeNode>
            </feMerge>
        </filter>
    </defs>
    <g id="demo04-svg" stroke="none" stroke-width="1" fill="none" fill-rule="evenodd">
        <path d="M449.05,112.29 L460.95,112.29 L460.95,113.284 L456.386,113.284 C456.134,113.858 455.84,114.418 455.518,114.95 L455.518,124.428 L454.482,124.428 L454.482,116.434 C453.166,118.072 451.444,119.528 449.316,120.802 L448.658,119.92 C451.822,118.1 454.034,115.888 455.266,113.284 L449.05,113.284 L449.05,112.29 Z M457.282,116.056 C458.892,117.33 460.236,118.604 461.328,119.878 L460.558,120.662 C459.578,119.43 458.248,118.128 456.554,116.742 L457.282,116.056 Z M462.812,112.122 L475.188,112.122 L475.188,113.032 L471.058,113.032 L471.058,114.278 L474.32,114.278 L474.32,117.806 L468.496,117.806 C468.244,118.254 468.006,118.66 467.782,119.052 L475.356,119.052 L475.356,119.976 L472.346,119.976 C472.066,120.816 471.548,121.53 470.806,122.132 C472.234,122.566 473.69,123.07 475.174,123.658 L474.544,124.484 C473.004,123.826 471.45,123.252 469.896,122.748 C468.566,123.462 466.382,124.022 463.358,124.428 L462.98,123.532 C465.472,123.238 467.362,122.846 468.622,122.356 C467.46,122.006 466.298,121.698 465.136,121.432 C465.472,120.942 465.78,120.452 466.088,119.976 L462.63,119.976 L462.63,119.052 L466.648,119.052 C466.9,118.618 467.138,118.198 467.362,117.806 L463.68,117.806 L463.68,114.278 L466.942,114.278 L466.942,113.032 L462.812,113.032 L462.812,112.122 Z M469.728,121.81 C470.512,121.32 471.044,120.704 471.324,119.976 L467.236,119.976 C466.998,120.354 466.774,120.704 466.564,121.012 C467.6,121.236 468.65,121.502 469.728,121.81 Z M470.092,114.278 L470.092,113.032 L467.908,113.032 L467.908,114.278 L470.092,114.278 Z M473.354,116.938 L473.354,115.16 L471.058,115.16 L471.058,116.938 L473.354,116.938 Z M470.092,116.938 L470.092,115.16 L467.908,115.16 L467.908,116.938 L470.092,116.938 Z M466.942,116.938 L466.942,115.16 L464.646,115.16 L464.646,116.938 L466.942,116.938 Z M484.344,114.6 C484.232,114.936 484.12,115.244 484.008,115.538 C484.456,117.162 485.058,118.59 485.786,119.794 C486.584,118.352 487.004,116.616 487.032,114.6 L484.344,114.6 Z M487.998,114.6 C487.942,117.022 487.396,119.052 486.374,120.69 C487.256,121.922 488.306,122.888 489.538,123.588 L488.964,124.428 C487.732,123.728 486.668,122.762 485.786,121.53 C484.862,122.72 483.63,123.672 482.118,124.386 L481.488,123.56 C483.07,122.86 484.316,121.908 485.226,120.676 C484.526,119.542 483.938,118.226 483.476,116.728 C483.196,117.26 482.902,117.736 482.58,118.156 L481.964,117.372 C482.986,115.944 483.672,113.998 484.036,111.548 L485.016,111.716 C484.904,112.402 484.764,113.046 484.624,113.634 L489.09,113.634 L489.09,114.6 L487.998,114.6 Z M478.478,122.272 C479.654,121.88 480.872,121.376 482.104,120.76 L482.258,121.684 C480.802,122.384 479.192,123.042 477.4,123.63 L477.106,122.762 C477.358,122.65 477.498,122.426 477.498,122.062 L477.498,116.84 L480.634,116.84 L480.634,113.522 L476.798,113.522 L476.798,112.556 L481.614,112.556 L481.614,117.764 L478.478,117.764 L478.478,122.272 Z M500.696,114.544 C501.76,115.244 502.642,115.944 503.37,116.644 L502.67,117.344 C502.026,116.672 501.144,115.944 500.024,115.188 L500.696,114.544 Z M497.14,111.394 C497.308,111.814 497.462,112.276 497.616,112.794 L503.02,112.794 L503.02,113.774 L499.156,113.774 L499.156,117.554 L498.148,117.554 L498.148,113.774 L495.866,113.774 L495.866,117.554 L494.858,117.554 L494.858,113.774 L490.98,113.774 L490.98,112.794 L496.594,112.794 C496.426,112.346 496.244,111.926 496.048,111.562 L497.14,111.394 Z M493.318,114.586 L494.06,115.244 C493.304,116.042 492.366,116.756 491.26,117.372 L490.644,116.56 C491.708,116 492.59,115.342 493.318,114.586 Z M491.932,118.296 L501.494,118.296 L501.494,119.066 C500.57,120.214 499.436,121.194 498.092,121.992 C499.604,122.65 501.396,123.126 503.454,123.406 L502.992,124.33 C500.682,123.938 498.722,123.336 497.112,122.524 C495.432,123.35 493.458,123.952 491.218,124.33 L490.756,123.378 C492.772,123.084 494.536,122.608 496.076,121.95 C494.83,121.166 493.822,120.256 493.038,119.192 L491.932,119.192 L491.932,118.296 Z M494.158,119.192 C494.914,120.088 495.88,120.858 497.042,121.488 C498.246,120.844 499.268,120.074 500.136,119.192 L494.158,119.192 Z M511.154,112.15 L517.3,112.15 L517.3,113.102 L514.738,113.102 C514.668,113.634 514.584,114.124 514.472,114.6 L516.908,114.6 L516.908,121.32 L515.942,121.32 L515.942,115.51 L512.512,115.51 L512.512,121.32 L511.574,121.32 L511.574,114.6 L513.478,114.6 C513.59,114.124 513.66,113.62 513.716,113.102 L511.154,113.102 L511.154,112.15 Z M515.144,121.334 C516.012,122.104 516.754,122.874 517.37,123.644 L516.656,124.358 C516.124,123.616 515.396,122.818 514.472,121.978 L515.144,121.334 Z M513.716,116.294 L514.682,116.294 L514.682,118.702 C514.64,120.242 514.346,121.488 513.8,122.412 C513.24,123.266 512.344,123.938 511.112,124.414 L510.566,123.532 C511.728,123.084 512.554,122.496 513.03,121.754 C513.45,120.97 513.688,119.948 513.716,118.702 L513.716,116.294 Z M508.158,111.436 C508.27,111.814 508.382,112.248 508.494,112.724 L510.734,112.724 L510.734,113.62 L509.978,113.62 C509.866,114.292 509.712,114.95 509.516,115.58 L510.986,115.58 L510.986,116.462 L506.03,116.462 L506.03,118.912 C506.002,121.152 505.736,122.944 505.232,124.288 L504.448,123.574 C504.882,122.468 505.106,120.914 505.134,118.912 L505.134,115.58 L506.492,115.58 C506.366,114.852 506.24,114.208 506.1,113.62 L505.064,113.62 L505.064,112.724 L507.5,112.724 C507.388,112.332 507.262,111.954 507.122,111.618 L508.158,111.436 Z M508.62,115.58 C508.816,114.964 508.97,114.306 509.082,113.62 L507.024,113.62 C507.136,114.222 507.262,114.88 507.388,115.58 L508.62,115.58 Z M510.468,120.802 L511.154,121.32 C510.118,122.65 508.62,123.602 506.632,124.19 L506.24,123.322 C508.116,122.818 509.516,121.978 510.468,120.802 Z M509.964,118.73 L510.636,119.234 C509.824,120.326 508.606,121.11 506.996,121.586 L506.632,120.76 C508.116,120.34 509.222,119.668 509.964,118.73 Z M509.614,116.756 L510.258,117.246 C509.474,118.24 508.326,118.954 506.814,119.388 L506.436,118.562 C507.836,118.198 508.9,117.596 509.614,116.756 Z M524.748,116.49 L521.402,116.49 L521.402,119.024 L524.748,119.024 L524.748,116.49 Z M525.77,119.024 L529.06,119.024 L529.06,116.49 L525.77,116.49 L525.77,119.024 Z M522.494,113.788 C521.906,114.432 521.262,115.02 520.576,115.552 L525.406,115.552 C525.966,115.048 526.512,114.46 527.058,113.788 L522.494,113.788 Z M520.38,115.692 C520.016,115.972 519.652,116.224 519.288,116.462 L518.616,115.65 C520.408,114.586 521.892,113.2 523.054,111.478 L524.062,111.702 C523.81,112.108 523.544,112.5 523.264,112.864 L528.36,112.864 L528.36,113.634 C527.828,114.39 527.296,115.02 526.764,115.552 L530.082,115.552 L530.082,119.976 L521.402,119.976 L521.402,122.552 C521.402,122.972 521.64,123.196 522.088,123.196 L528.85,123.196 C529.326,123.182 529.648,123.028 529.83,122.734 C529.97,122.496 530.082,121.894 530.18,120.942 L531.174,121.25 C531.076,122.174 530.95,122.832 530.782,123.224 C530.502,123.84 529.97,124.148 529.158,124.176 L521.696,124.176 C520.814,124.176 520.38,123.756 520.38,122.916 L520.38,115.692 Z" id="不要改变颜色" fill="#000000"></path>
        <g id="no_icon" transform="translate(521.000000, 66.000000)" stroke="#EA4747" stroke-width="0.923076923">
            <circle id="Oval" cx="6" cy="6" r="6"></circle>
            <path d="M2.30769231,2.30769231 L10.1674091,10.1674091" id="Line" stroke-linecap="square"></path>
        </g>
        <g id="app-icon" transform="translate(447.000000, 10.000000)">
            <mask id="mask-3" fill="white">
                <use xlink:href="#path-2"></use>
            </mask>
            <use fill="url(#linearGradient-1)" xlink:href="#path-2"></use>
            <g id="logo" filter="url(#filter-4)" mask="url(#mask-3)" fill="#FFFFFF">
                <g transform="translate(12.250000, 16.625000)">
                    <path d="M2.35316667,22.2145173 C1.064,23.7466337 0.29925,25.654177 0.29925,27.7219493 C0.29925,30.2049134 1.40175,32.4568905 3.19083333,34.1047927 C4.19358333,35.4527042 1.54816667,36.8491522 2.98783333,36.8491522 C2.98783333,36.8491522 10.2678333,36.8678651 10.4883333,36.8678651 C11.63225,36.8678651 12.7324167,36.6988645 13.7596667,36.3865934 C5.74466667,32.5539635 3.12608333,26.6067791 2.35316667,22.2145173" id="Fill-14"></path>
                    <path d="M39.2750167,31.7257435 C37.2345167,34.4736117 41.6777667,37.1805455 39.6880167,37.3214768 C39.6880167,37.3214768 24.8742667,37.3600721 24.4256833,37.3600721 C12.9754333,37.3600721 3.69343333,29.0112076 3.69343333,18.7126959 C3.69343333,8.4141841 12.9754333,0.0653196163 24.4256833,0.0653196163 C35.8765167,0.0653196163 45.1579333,8.4141841 45.1579333,18.7126959 C45.1579333,23.7745275 42.9161833,28.3661983 39.2750167,31.7257435 Z M26.7899333,27.1668202 C29.6109333,26.7083549 31.3877667,24.7569533 31.3877667,21.9886179 C31.3877667,20.4576711 30.6341,18.9337416 28.98735,17.9314335 C30.2432667,17.0039768 30.8575167,15.7695121 30.8575167,14.409905 C30.8575167,11.9199236 29.2994333,10.1422008 26.7899333,9.63753806 L26.7899333,8.60072803 C26.7899333,8.47441615 26.68785,8.37149536 26.56185,8.37149536 L25.7510167,8.37149536 C25.6250167,8.37149536 25.5229333,8.47441615 25.5229333,8.60072803 L25.5229333,9.49660675 C25.4371833,9.49368286 25.35085,9.4925133 25.26335,9.4925133 L21.0120167,9.4925133 L21.0120167,8.60072803 C21.0120167,8.47441615 20.9099333,8.37149536 20.7839333,8.37149536 L19.9725167,8.37149536 C19.8471,8.37149536 19.7450167,8.47441615 19.7450167,8.60072803 L19.7450167,9.54338892 L17.4227667,9.54338892 C17.2775167,9.54338892 17.1596833,9.66151392 17.1596833,9.80770823 L17.1596833,11.3673091 C17.1596833,11.5135034 17.2775167,11.6322132 17.4227667,11.6322132 L18.78135,11.6322132 L18.78135,25.1317955 L17.4770167,25.1317955 C17.3294333,25.1317955 17.2104333,25.25109 17.2104333,25.3990387 L17.2104333,27.0036674 C17.2104333,27.1510313 17.3294333,27.2709106 17.4770167,27.2709106 L19.7450167,27.2709106 L19.7450167,28.51941 C19.7450167,28.6451371 19.8471,28.7480579 19.9725167,28.7480579 L20.7839333,28.7480579 C20.9099333,28.7480579 21.0120167,28.6451371 21.0120167,28.51941 L21.0120167,27.2709106 L23.1785167,27.2709106 L25.4651833,27.2709106 L25.5229333,27.2709106 L25.5229333,28.51941 C25.5229333,28.6451371 25.6250167,28.7480579 25.7510167,28.7480579 L26.56185,28.7480579 C26.68785,28.7480579 26.7899333,28.6451371 26.7899333,28.51941 L26.7899333,27.1668202 Z M25.0046417,19.3243144 C26.989725,19.3243144 28.4288083,20.5295402 28.4288083,22.0090266 C28.4288083,23.7434759 27.421975,24.7235625 25.4648917,24.7235625 L21.7216417,24.7235625 L21.7216417,19.3243144 L25.0046417,19.3243144 Z M27.8819917,14.4239397 C27.8819917,15.7578165 26.5869917,16.7764985 24.8317417,16.7764985 L21.7214083,16.7764985 L21.7214083,12.0398029 L25.2634083,12.0398029 C27.0192417,12.0398029 27.8819917,12.9105362 27.8819917,14.4239397 Z" id="Combined-Shape"></path>
                </g>
            </g>
        </g>
        <path d="M291.05,112.29 L302.95,112.29 L302.95,113.284 L298.386,113.284 C298.134,113.858 297.84,114.418 297.518,114.95 L297.518,124.428 L296.482,124.428 L296.482,116.434 C295.166,118.072 293.444,119.528 291.316,120.802 L290.658,119.92 C293.822,118.1 296.034,115.888 297.266,113.284 L291.05,113.284 L291.05,112.29 Z M299.282,116.056 C300.892,117.33 302.236,118.604 303.328,119.878 L302.558,120.662 C301.578,119.43 300.248,118.128 298.554,116.742 L299.282,116.056 Z M304.812,112.122 L317.188,112.122 L317.188,113.032 L313.058,113.032 L313.058,114.278 L316.32,114.278 L316.32,117.806 L310.496,117.806 C310.244,118.254 310.006,118.66 309.782,119.052 L317.356,119.052 L317.356,119.976 L314.346,119.976 C314.066,120.816 313.548,121.53 312.806,122.132 C314.234,122.566 315.69,123.07 317.174,123.658 L316.544,124.484 C315.004,123.826 313.45,123.252 311.896,122.748 C310.566,123.462 308.382,124.022 305.358,124.428 L304.98,123.532 C307.472,123.238 309.362,122.846 310.622,122.356 C309.46,122.006 308.298,121.698 307.136,121.432 C307.472,120.942 307.78,120.452 308.088,119.976 L304.63,119.976 L304.63,119.052 L308.648,119.052 C308.9,118.618 309.138,118.198 309.362,117.806 L305.68,117.806 L305.68,114.278 L308.942,114.278 L308.942,113.032 L304.812,113.032 L304.812,112.122 Z M311.728,121.81 C312.512,121.32 313.044,120.704 313.324,119.976 L309.236,119.976 C308.998,120.354 308.774,120.704 308.564,121.012 C309.6,121.236 310.65,121.502 311.728,121.81 Z M312.092,114.278 L312.092,113.032 L309.908,113.032 L309.908,114.278 L312.092,114.278 Z M315.354,116.938 L315.354,115.16 L313.058,115.16 L313.058,116.938 L315.354,116.938 Z M312.092,116.938 L312.092,115.16 L309.908,115.16 L309.908,116.938 L312.092,116.938 Z M308.942,116.938 L308.942,115.16 L306.646,115.16 L306.646,116.938 L308.942,116.938 Z M319.218,112.584 L321.458,112.584 L321.458,111.618 L322.368,111.618 L322.368,112.584 L324.608,112.584 L324.608,113.466 L322.354,113.466 C322.326,113.914 322.284,114.32 322.228,114.712 L324.734,114.712 L324.734,115.608 L322.046,115.608 C322.018,115.692 322.004,115.776 321.976,115.86 C322.872,116.378 323.768,116.98 324.664,117.652 L324.132,118.464 C323.18,117.652 322.368,117.022 321.696,116.602 C321.64,116.7 321.598,116.798 321.556,116.896 C321.052,117.778 320.24,118.464 319.12,118.968 L318.602,118.156 C319.666,117.68 320.408,117.05 320.828,116.266 C320.926,116.056 321.01,115.832 321.094,115.608 L318.714,115.608 L318.714,114.712 L321.304,114.712 C321.374,114.32 321.416,113.914 321.444,113.466 L319.218,113.466 L319.218,112.584 Z M325.392,112.584 L327.604,112.584 L327.604,111.618 L328.528,111.618 L328.528,112.584 L330.908,112.584 L330.908,113.466 L328.528,113.466 C328.5,113.914 328.458,114.32 328.402,114.712 L331.3,114.712 L331.3,115.608 L328.612,115.608 C329.172,116.518 330.124,117.33 331.454,118.058 L330.852,118.814 C329.55,117.988 328.584,117.092 327.968,116.126 C327.884,116.28 327.814,116.42 327.73,116.56 C327.24,117.288 326.442,117.848 325.35,118.268 L324.832,117.456 C325.868,117.078 326.582,116.574 327.002,115.958 C327.072,115.832 327.128,115.72 327.184,115.608 L325.252,115.608 L325.252,114.712 L327.464,114.712 C327.548,114.32 327.59,113.9 327.604,113.466 L325.392,113.466 L325.392,112.584 Z M329.48,118.534 L329.48,124.414 L328.472,124.414 L328.472,123.812 L321.71,123.812 L321.71,124.414 L320.702,124.414 L320.702,118.534 L329.48,118.534 Z M321.71,122.916 L328.472,122.916 L328.472,121.6 L321.71,121.6 L321.71,122.916 Z M321.71,120.746 L328.472,120.746 L328.472,119.43 L321.71,119.43 L321.71,120.746 Z M344.558,115.426 L344.558,119.234 L345.44,119.234 L345.44,120.158 L341.912,120.158 C342.654,121.586 343.858,122.692 345.51,123.504 L345.048,124.456 C343.2,123.42 341.87,122.048 341.086,120.368 C340.498,121.992 339.168,123.35 337.096,124.442 L336.438,123.602 C338.342,122.706 339.574,121.558 340.134,120.158 L336.872,120.158 L336.872,119.234 L337.866,119.234 L337.866,115.426 L341.058,115.426 C341.464,114.866 341.87,114.222 342.262,113.48 L339.826,113.48 C339.238,114.292 338.468,115.02 337.544,115.65 L336.956,114.866 C338.356,113.942 339.308,112.808 339.812,111.478 L340.792,111.604 C340.666,111.954 340.526,112.29 340.358,112.612 L343.326,112.612 L343.326,113.34 C342.92,114.152 342.5,114.852 342.08,115.426 L344.558,115.426 Z M338.762,119.234 L340.414,119.234 C340.582,118.422 340.68,117.442 340.708,116.308 L338.762,116.308 L338.762,119.234 Z M341.38,119.234 L343.662,119.234 L343.662,116.308 L341.632,116.308 C341.604,117.47 341.52,118.45 341.38,119.234 Z M334.198,124.246 L333.008,124.246 L332.798,123.28 C333.162,123.322 333.512,123.35 333.848,123.35 C334.212,123.35 334.408,123.14 334.408,122.748 L334.408,119.374 C333.848,119.598 333.288,119.794 332.728,119.976 L332.476,118.968 C333.134,118.8 333.778,118.604 334.408,118.366 L334.408,115.104 L332.742,115.104 L332.742,114.138 L334.408,114.138 L334.408,111.576 L335.416,111.576 L335.416,114.138 L336.844,114.138 L336.844,115.104 L335.416,115.104 L335.416,117.96 C335.92,117.736 336.41,117.484 336.9,117.204 L336.9,118.226 C336.41,118.478 335.92,118.73 335.416,118.954 L335.416,123 C335.416,123.826 335.01,124.246 334.198,124.246 Z M352.958,117.302 C352.384,118.898 351.292,120.214 349.668,121.278 L348.996,120.452 C350.564,119.416 351.6,118.128 352.104,116.574 C352.258,116.028 352.384,115.44 352.482,114.796 L348.492,114.796 L348.492,124.386 L347.47,124.386 L347.47,113.816 L352.594,113.816 C352.664,113.102 352.706,112.332 352.706,111.52 L353.728,111.52 C353.728,112.346 353.686,113.116 353.63,113.816 L358.544,113.816 L358.544,122.832 C358.544,123.77 358.082,124.246 357.186,124.246 L354.988,124.246 L354.708,123.238 L356.85,123.294 C357.298,123.294 357.522,123.056 357.522,122.608 L357.522,114.796 L353.518,114.796 C353.448,115.328 353.364,115.832 353.252,116.294 C354.708,117.666 355.926,119.024 356.92,120.354 L356.164,121.124 C355.352,119.92 354.274,118.646 352.958,117.302 Z M362.632,114.418 C362.968,115.062 363.29,115.846 363.57,116.77 L365.04,116.77 C365.446,116 365.796,115.174 366.076,114.306 L367.014,114.628 C366.72,115.426 366.398,116.14 366.034,116.77 L367.728,116.77 L367.728,117.75 L360.714,117.75 L360.714,116.77 L362.604,116.77 C362.352,116.042 362.058,115.37 361.708,114.754 L362.632,114.418 Z M368.372,112.15 L372.964,112.15 L372.964,112.906 C372.53,114.376 372.068,115.748 371.564,117.008 C372.614,118.324 373.146,119.416 373.16,120.256 C373.16,121.124 372.978,121.726 372.614,122.062 C372.222,122.398 371.452,122.58 370.304,122.58 L369.982,121.516 C370.374,121.544 370.696,121.572 370.962,121.572 C371.466,121.544 371.788,121.446 371.928,121.278 C372.068,121.096 372.138,120.76 372.152,120.256 C372.138,119.43 371.578,118.352 370.486,117.008 C370.948,115.902 371.41,114.586 371.858,113.074 L369.352,113.074 L369.352,124.372 L368.372,124.372 L368.372,112.15 Z M360.98,112.92 L363.794,112.92 C363.626,112.458 363.458,112.038 363.276,111.66 L364.312,111.478 C364.466,111.898 364.62,112.388 364.774,112.92 L367.63,112.92 L367.63,113.9 L360.98,113.9 L360.98,112.92 Z M367.084,119.024 L367.084,124.302 L366.09,124.302 L366.09,123.518 L362.506,123.518 L362.506,124.302 L361.512,124.302 L361.512,119.024 L367.084,119.024 Z M362.506,122.566 L366.09,122.566 L366.09,119.976 L362.506,119.976 L362.506,122.566 Z M376.1,112.346 L385.774,112.346 L385.774,113.326 L376.1,113.326 L376.1,112.346 Z M375.022,116.462 L386.992,116.462 L386.992,117.442 L383.128,117.442 L383.128,122.664 C383.128,123.056 383.324,123.266 383.744,123.266 L385.298,123.266 C385.606,123.266 385.816,123.154 385.928,122.944 C386.096,122.692 386.194,121.936 386.25,120.676 L387.174,120.97 C387.076,122.496 386.894,123.42 386.614,123.742 C386.376,124.022 385.998,124.176 385.494,124.176 L383.464,124.176 C382.582,124.176 382.148,123.742 382.148,122.874 L382.148,117.442 L379.628,117.442 L379.628,117.652 C379.586,119.472 379.208,120.942 378.508,122.048 C377.808,123.07 376.688,123.868 375.134,124.442 L374.588,123.588 C376.1,123.028 377.15,122.3 377.752,121.376 C378.312,120.424 378.62,119.178 378.648,117.652 L378.648,117.442 L375.022,117.442 L375.022,116.462 Z M389.582,112.514 L394.524,112.514 L394.524,111.534 L395.532,111.534 L395.532,112.514 L400.418,112.514 L400.418,113.34 L395.532,113.34 L395.532,114.292 L399.83,114.292 L399.83,115.09 L395.532,115.09 L395.532,116.042 L401.034,116.042 L401.034,116.896 L394.692,116.896 C393.866,117.54 393.04,118.058 392.2,118.45 C393.446,118.408 394.692,118.366 395.924,118.31 C396.512,117.988 397.1,117.652 397.674,117.302 L398.458,117.806 C396.428,118.982 394.384,119.878 392.34,120.522 C394.02,120.466 396.064,120.34 398.472,120.144 C398.15,119.808 397.814,119.472 397.45,119.136 L398.136,118.702 C399.214,119.696 400.04,120.564 400.6,121.306 L399.886,121.796 C399.634,121.46 399.368,121.138 399.088,120.816 C397.758,120.914 396.582,120.998 395.574,121.054 L395.574,123.294 C395.574,124.036 395.196,124.414 394.468,124.414 L393.138,124.414 L392.942,123.518 C393.362,123.546 393.754,123.574 394.146,123.574 C394.44,123.574 394.594,123.406 394.594,123.07 L394.594,121.11 C393.152,121.18 392.032,121.222 391.248,121.222 L390.072,121.264 L389.876,120.424 L390.422,120.48 C391.822,120.116 393.208,119.612 394.58,118.982 C393.404,119.024 392.158,119.066 390.842,119.122 L390.66,118.38 C390.856,118.352 391.052,118.31 391.234,118.226 C391.878,118.002 392.648,117.554 393.516,116.896 L388.98,116.896 L388.98,116.042 L394.524,116.042 L394.524,115.09 L390.17,115.09 L390.17,114.292 L394.524,114.292 L394.524,113.34 L389.582,113.34 L389.582,112.514 Z M392.732,121.6 L393.306,122.244 C392.214,123.028 390.856,123.672 389.232,124.19 L388.826,123.35 C390.408,122.902 391.71,122.328 392.732,121.6 Z M397.142,121.558 C398.598,122.09 399.942,122.72 401.16,123.462 L400.656,124.232 C399.354,123.406 398.024,122.748 396.652,122.272 L397.142,121.558 Z" id="不要替换内部元素" fill="#000000"></path>
        <g id="no_icon" transform="translate(378.000000, 66.000000)" stroke="#EA4747" stroke-width="0.923076923">
            <circle id="Oval" cx="6" cy="6" r="6"></circle>
            <path d="M2.30769231,2.30769231 L10.1674091,10.1674091" id="Line" stroke-linecap="square"></path>
        </g>
        <g id="app-icon" transform="translate(304.000000, 10.000000)">
            <mask id="mask-7" fill="white">
                <use xlink:href="#path-6"></use>
            </mask>
            <use fill="url(#linearGradient-5)" xlink:href="#path-6"></use>
            <g id="logo" filter="url(#filter-8)" mask="url(#mask-7)">
                <g transform="translate(12.250000, 16.625000)">
                    <path d="M2.35316667,22.2145173 C1.064,23.7466337 0.29925,25.654177 0.29925,27.7219493 C0.29925,30.2049134 1.40175,32.4568905 3.19083333,34.1047927 C4.19358333,35.4527042 1.54816667,36.8491522 2.98783333,36.8491522 C2.98783333,36.8491522 10.2678333,36.8678651 10.4883333,36.8678651 C11.63225,36.8678651 12.7324167,36.6988645 13.7596667,36.3865934 C5.74466667,32.5539635 3.12608333,26.6067791 2.35316667,22.2145173" id="Fill-14" fill="#8F7CE0" fill-rule="evenodd"></path>
                    <path d="M39.2750167,31.7257435 C42.9161833,28.3661983 45.1579333,23.7745275 45.1579333,18.7126959 C45.1579333,8.4141841 35.8765167,0.0653196163 24.4256833,0.0653196163 C12.9754333,0.0653196163 3.69343333,8.4141841 3.69343333,18.7126959 C3.69343333,29.0112076 12.9754333,37.3600721 24.4256833,37.3600721 C24.8742667,37.3600721 39.6880167,37.3214768 39.6880167,37.3214768 C41.6777667,37.1805455 37.2345167,34.4736117 39.2750167,31.7257435" id="Combined-Shape" fill="#FFFFFF" fill-rule="evenodd"></path>
                    <text id="B" fill="none" font-family="SFCompactDisplay-Black, SF Compact Display" font-size="26" font-weight="700">
                        <tspan x="16.152832" y="27" fill="#5C26FF">B</tspan>
                    </text>
                </g>
            </g>
        </g>
        <path d="M135.05,112.29 L146.95,112.29 L146.95,113.284 L142.386,113.284 C142.134,113.858 141.84,114.418 141.518,114.95 L141.518,124.428 L140.482,124.428 L140.482,116.434 C139.166,118.072 137.444,119.528 135.316,120.802 L134.658,119.92 C137.822,118.1 140.034,115.888 141.266,113.284 L135.05,113.284 L135.05,112.29 Z M143.282,116.056 C144.892,117.33 146.236,118.604 147.328,119.878 L146.558,120.662 C145.578,119.43 144.248,118.128 142.554,116.742 L143.282,116.056 Z M148.812,112.122 L161.188,112.122 L161.188,113.032 L157.058,113.032 L157.058,114.278 L160.32,114.278 L160.32,117.806 L154.496,117.806 C154.244,118.254 154.006,118.66 153.782,119.052 L161.356,119.052 L161.356,119.976 L158.346,119.976 C158.066,120.816 157.548,121.53 156.806,122.132 C158.234,122.566 159.69,123.07 161.174,123.658 L160.544,124.484 C159.004,123.826 157.45,123.252 155.896,122.748 C154.566,123.462 152.382,124.022 149.358,124.428 L148.98,123.532 C151.472,123.238 153.362,122.846 154.622,122.356 C153.46,122.006 152.298,121.698 151.136,121.432 C151.472,120.942 151.78,120.452 152.088,119.976 L148.63,119.976 L148.63,119.052 L152.648,119.052 C152.9,118.618 153.138,118.198 153.362,117.806 L149.68,117.806 L149.68,114.278 L152.942,114.278 L152.942,113.032 L148.812,113.032 L148.812,112.122 Z M155.728,121.81 C156.512,121.32 157.044,120.704 157.324,119.976 L153.236,119.976 C152.998,120.354 152.774,120.704 152.564,121.012 C153.6,121.236 154.65,121.502 155.728,121.81 Z M156.092,114.278 L156.092,113.032 L153.908,113.032 L153.908,114.278 L156.092,114.278 Z M159.354,116.938 L159.354,115.16 L157.058,115.16 L157.058,116.938 L159.354,116.938 Z M156.092,116.938 L156.092,115.16 L153.908,115.16 L153.908,116.938 L156.092,116.938 Z M152.942,116.938 L152.942,115.16 L150.646,115.16 L150.646,116.938 L152.942,116.938 Z M170.344,114.6 C170.232,114.936 170.12,115.244 170.008,115.538 C170.456,117.162 171.058,118.59 171.786,119.794 C172.584,118.352 173.004,116.616 173.032,114.6 L170.344,114.6 Z M173.998,114.6 C173.942,117.022 173.396,119.052 172.374,120.69 C173.256,121.922 174.306,122.888 175.538,123.588 L174.964,124.428 C173.732,123.728 172.668,122.762 171.786,121.53 C170.862,122.72 169.63,123.672 168.118,124.386 L167.488,123.56 C169.07,122.86 170.316,121.908 171.226,120.676 C170.526,119.542 169.938,118.226 169.476,116.728 C169.196,117.26 168.902,117.736 168.58,118.156 L167.964,117.372 C168.986,115.944 169.672,113.998 170.036,111.548 L171.016,111.716 C170.904,112.402 170.764,113.046 170.624,113.634 L175.09,113.634 L175.09,114.6 L173.998,114.6 Z M164.478,122.272 C165.654,121.88 166.872,121.376 168.104,120.76 L168.258,121.684 C166.802,122.384 165.192,123.042 163.4,123.63 L163.106,122.762 C163.358,122.65 163.498,122.426 163.498,122.062 L163.498,116.84 L166.634,116.84 L166.634,113.522 L162.798,113.522 L162.798,112.556 L167.614,112.556 L167.614,117.764 L164.478,117.764 L164.478,122.272 Z M186.696,114.544 C187.76,115.244 188.642,115.944 189.37,116.644 L188.67,117.344 C188.026,116.672 187.144,115.944 186.024,115.188 L186.696,114.544 Z M183.14,111.394 C183.308,111.814 183.462,112.276 183.616,112.794 L189.02,112.794 L189.02,113.774 L185.156,113.774 L185.156,117.554 L184.148,117.554 L184.148,113.774 L181.866,113.774 L181.866,117.554 L180.858,117.554 L180.858,113.774 L176.98,113.774 L176.98,112.794 L182.594,112.794 C182.426,112.346 182.244,111.926 182.048,111.562 L183.14,111.394 Z M179.318,114.586 L180.06,115.244 C179.304,116.042 178.366,116.756 177.26,117.372 L176.644,116.56 C177.708,116 178.59,115.342 179.318,114.586 Z M177.932,118.296 L187.494,118.296 L187.494,119.066 C186.57,120.214 185.436,121.194 184.092,121.992 C185.604,122.65 187.396,123.126 189.454,123.406 L188.992,124.33 C186.682,123.938 184.722,123.336 183.112,122.524 C181.432,123.35 179.458,123.952 177.218,124.33 L176.756,123.378 C178.772,123.084 180.536,122.608 182.076,121.95 C180.83,121.166 179.822,120.256 179.038,119.192 L177.932,119.192 L177.932,118.296 Z M180.158,119.192 C180.914,120.088 181.88,120.858 183.042,121.488 C184.246,120.844 185.268,120.074 186.136,119.192 L180.158,119.192 Z M195.656,113.382 L196.552,113.494 C196.44,113.76 196.328,114.012 196.188,114.264 L199.884,114.264 L199.884,114.964 C199.492,115.706 198.904,116.364 198.106,116.924 C199.044,117.372 200.108,117.75 201.312,118.03 L200.78,118.786 C199.422,118.422 198.26,117.974 197.28,117.428 C196.202,118.002 194.872,118.464 193.276,118.814 L192.828,118.002 C194.27,117.75 195.488,117.386 196.468,116.924 C195.922,116.56 195.446,116.168 195.054,115.748 C194.634,116.14 194.158,116.504 193.626,116.84 L193.066,116.112 C194.34,115.356 195.208,114.446 195.656,113.382 Z M197.28,116.49 C197.966,116.07 198.498,115.58 198.876,115.02 L195.698,115.02 C195.642,115.076 195.6,115.132 195.572,115.188 C196.062,115.664 196.636,116.098 197.28,116.49 Z M194.508,120.256 C196.37,120.606 198.162,121.11 199.87,121.754 L199.534,122.566 C197.798,121.894 195.992,121.376 194.116,121.012 L194.508,120.256 Z M195.964,118.296 C197.056,118.66 198.064,119.108 198.974,119.612 L198.498,120.34 C197.532,119.752 196.538,119.304 195.502,118.968 L195.964,118.296 Z M202.712,112.178 L202.712,124.4 L201.732,124.4 L201.732,123.826 L192.268,123.826 L192.268,124.4 L191.288,124.4 L191.288,112.178 L202.712,112.178 Z M192.268,122.93 L201.732,122.93 L201.732,113.074 L192.268,113.074 L192.268,122.93 Z M206.674,111.604 L207.668,111.604 L207.668,114.25 L209.292,114.25 L209.292,115.216 L207.668,115.216 L207.668,116.294 C208.354,116.994 209.04,117.778 209.726,118.632 L209.152,119.486 C208.578,118.604 208.088,117.904 207.668,117.372 L207.668,124.386 L206.674,124.386 L206.674,117.414 C206.226,118.73 205.652,119.934 204.952,121.026 L204.518,119.934 C205.526,118.562 206.24,116.98 206.674,115.216 L204.966,115.216 L204.966,114.25 L206.674,114.25 L206.674,111.604 Z M210.804,117.932 L211.728,118.142 C211.28,120.102 210.622,121.782 209.782,123.21 L208.914,122.65 C209.782,121.236 210.412,119.668 210.804,117.932 Z M215.872,117.862 C216.46,119.444 216.964,121.138 217.384,122.93 L216.474,123.336 C216.012,121.39 215.508,119.668 214.962,118.156 L215.872,117.862 Z M212.736,124.246 L211.308,124.246 L211.112,123.308 C211.56,123.336 211.98,123.364 212.386,123.364 C212.764,123.364 212.96,123.154 212.96,122.748 L212.96,116.77 L209.544,116.77 L209.544,115.804 L217.398,115.804 L217.398,116.77 L213.968,116.77 L213.968,123 C213.968,123.826 213.548,124.246 212.736,124.246 Z M210.286,112.402 L216.67,112.402 L216.67,113.354 L210.286,113.354 L210.286,112.402 Z M220.1,112.346 L229.774,112.346 L229.774,113.326 L220.1,113.326 L220.1,112.346 Z M219.022,116.462 L230.992,116.462 L230.992,117.442 L227.128,117.442 L227.128,122.664 C227.128,123.056 227.324,123.266 227.744,123.266 L229.298,123.266 C229.606,123.266 229.816,123.154 229.928,122.944 C230.096,122.692 230.194,121.936 230.25,120.676 L231.174,120.97 C231.076,122.496 230.894,123.42 230.614,123.742 C230.376,124.022 229.998,124.176 229.494,124.176 L227.464,124.176 C226.582,124.176 226.148,123.742 226.148,122.874 L226.148,117.442 L223.628,117.442 L223.628,117.652 C223.586,119.472 223.208,120.942 222.508,122.048 C221.808,123.07 220.688,123.868 219.134,124.442 L218.588,123.588 C220.1,123.028 221.15,122.3 221.752,121.376 C222.312,120.424 222.62,119.178 222.648,117.652 L222.648,117.442 L219.022,117.442 L219.022,116.462 Z M233.582,112.514 L238.524,112.514 L238.524,111.534 L239.532,111.534 L239.532,112.514 L244.418,112.514 L244.418,113.34 L239.532,113.34 L239.532,114.292 L243.83,114.292 L243.83,115.09 L239.532,115.09 L239.532,116.042 L245.034,116.042 L245.034,116.896 L238.692,116.896 C237.866,117.54 237.04,118.058 236.2,118.45 C237.446,118.408 238.692,118.366 239.924,118.31 C240.512,117.988 241.1,117.652 241.674,117.302 L242.458,117.806 C240.428,118.982 238.384,119.878 236.34,120.522 C238.02,120.466 240.064,120.34 242.472,120.144 C242.15,119.808 241.814,119.472 241.45,119.136 L242.136,118.702 C243.214,119.696 244.04,120.564 244.6,121.306 L243.886,121.796 C243.634,121.46 243.368,121.138 243.088,120.816 C241.758,120.914 240.582,120.998 239.574,121.054 L239.574,123.294 C239.574,124.036 239.196,124.414 238.468,124.414 L237.138,124.414 L236.942,123.518 C237.362,123.546 237.754,123.574 238.146,123.574 C238.44,123.574 238.594,123.406 238.594,123.07 L238.594,121.11 C237.152,121.18 236.032,121.222 235.248,121.222 L234.072,121.264 L233.876,120.424 L234.422,120.48 C235.822,120.116 237.208,119.612 238.58,118.982 C237.404,119.024 236.158,119.066 234.842,119.122 L234.66,118.38 C234.856,118.352 235.052,118.31 235.234,118.226 C235.878,118.002 236.648,117.554 237.516,116.896 L232.98,116.896 L232.98,116.042 L238.524,116.042 L238.524,115.09 L234.17,115.09 L234.17,114.292 L238.524,114.292 L238.524,113.34 L233.582,113.34 L233.582,112.514 Z M236.732,121.6 L237.306,122.244 C236.214,123.028 234.856,123.672 233.232,124.19 L232.826,123.35 C234.408,122.902 235.71,122.328 236.732,121.6 Z M241.142,121.558 C242.598,122.09 243.942,122.72 245.16,123.462 L244.656,124.232 C243.354,123.406 242.024,122.748 240.652,122.272 L241.142,121.558 Z M153.656,133.984 L153.656,143.532 L152.676,143.532 L152.676,142.734 L150.128,142.734 L150.128,143.938 L149.148,143.938 L149.148,133.984 L150.45,133.984 C150.73,133.2 150.926,132.388 151.052,131.548 L152.06,131.688 C151.892,132.514 151.682,133.284 151.402,133.984 L153.656,133.984 Z M150.128,141.796 L152.676,141.796 L152.676,138.73 L150.128,138.73 L150.128,141.796 Z M150.128,137.82 L152.676,137.82 L152.676,134.936 L150.128,134.936 L150.128,137.82 Z M156.092,137.232 C157.1,138.394 157.856,139.416 158.388,140.284 L157.59,140.844 C157.016,139.92 156.246,138.884 155.28,137.736 L156.092,137.232 Z M160.894,133.998 C160.894,138.646 160.824,141.53 160.684,142.622 C160.544,143.686 159.9,144.232 158.724,144.232 C158.444,144.232 157.968,144.204 157.296,144.176 L157.058,143.252 C157.646,143.28 158.15,143.294 158.584,143.294 C159.242,143.294 159.62,142.93 159.732,142.216 C159.816,141.432 159.872,139.01 159.9,134.978 L156.05,134.978 C155.658,135.86 155.196,136.658 154.65,137.372 L154.048,136.574 C155.028,135.202 155.686,133.522 156.05,131.534 L157.044,131.66 C156.876,132.486 156.68,133.27 156.428,133.998 L160.894,133.998 Z M165.766,131.478 L166.704,131.912 C166.34,133.004 165.892,134.026 165.346,134.992 L165.346,144.428 L164.338,144.428 L164.338,136.532 C163.876,137.148 163.372,137.75 162.826,138.324 L162.504,137.246 C163.988,135.566 165.08,133.648 165.766,131.478 Z M166.634,133.816 L170.4,133.816 C170.204,133.074 169.966,132.388 169.714,131.772 L170.778,131.59 C171.002,132.234 171.212,132.976 171.408,133.816 L175.062,133.816 L175.062,134.782 L166.634,134.782 L166.634,133.816 Z M166.396,142.748 L171.212,142.748 C171.926,140.872 172.542,138.52 173.074,135.692 L174.04,135.944 C173.55,138.506 172.948,140.774 172.248,142.748 L175.426,142.748 L175.426,143.742 L166.396,143.742 L166.396,142.748 Z M168.356,135.846 C168.902,137.652 169.392,139.724 169.826,142.048 L168.888,142.3 C168.51,140.172 168.02,138.114 167.432,136.126 L168.356,135.846 Z M176.994,135.524 L182.44,135.524 L182.524,134.712 L177.932,134.712 L177.932,132.094 L188.068,132.094 L188.068,134.712 L183.532,134.712 L183.448,135.524 L189.02,135.524 L189.02,136.294 L183.336,136.294 C183.28,136.574 183.238,136.84 183.182,137.092 L187.242,137.092 L187.242,143.266 L189.272,143.266 L189.272,144.078 L176.742,144.078 L176.742,143.266 L178.772,143.266 L178.772,137.092 L182.174,137.092 C182.23,136.826 182.272,136.56 182.328,136.294 L176.994,136.294 L176.994,135.524 Z M179.752,143.266 L186.248,143.266 L186.248,142.342 L179.752,142.342 L179.752,143.266 Z M179.752,141.712 L186.248,141.712 L186.248,140.83 L179.752,140.83 L179.752,141.712 Z M179.752,140.186 L186.248,140.186 L186.248,139.304 L179.752,139.304 L179.752,140.186 Z M179.752,138.674 L186.248,138.674 L186.248,137.792 L179.752,137.792 L179.752,138.674 Z M187.116,133.998 L187.116,132.836 L185.03,132.836 L185.03,133.998 L187.116,133.998 Z M184.106,133.998 L184.106,132.836 L181.894,132.836 L181.894,133.998 L184.106,133.998 Z M180.984,133.998 L180.984,132.836 L178.898,132.836 L178.898,133.998 L180.984,133.998 Z M202.74,132.514 L202.74,143.84 L201.76,143.84 L201.76,142.734 L198.358,142.734 L198.358,143.98 L197.392,143.98 L197.392,132.514 L202.74,132.514 Z M198.358,141.782 L201.76,141.782 L201.76,133.452 L198.358,133.452 L198.358,141.782 Z M190.994,135.412 L193.444,135.412 L193.444,133.396 C192.744,133.508 192.03,133.592 191.302,133.648 L190.98,132.752 C193.066,132.584 194.802,132.234 196.202,131.702 L196.678,132.542 C195.95,132.808 195.208,133.032 194.424,133.2 L194.424,135.412 L196.818,135.412 L196.818,136.35 L194.424,136.35 L194.424,137.05 C195.236,137.764 196.048,138.576 196.874,139.5 L196.286,140.368 C195.558,139.374 194.942,138.576 194.424,137.988 L194.424,144.302 L193.444,144.302 L193.444,138.086 C192.842,139.416 192.044,140.62 191.05,141.698 L190.63,140.606 C191.932,139.374 192.87,137.988 193.444,136.448 L193.444,136.35 L190.994,136.35 L190.994,135.412 Z M204.854,135.244 L210.3,135.244 C210.412,134.432 210.468,133.592 210.482,132.71 L210.482,131.576 L211.518,131.576 L211.518,132.486 C211.518,133.466 211.448,134.376 211.336,135.244 L217.146,135.244 L217.146,136.224 L211.63,136.224 C212.61,139.388 214.542,141.824 217.412,143.532 L216.782,144.344 C213.968,142.608 212.036,140.172 210.986,137.008 C210.118,140.41 208.186,142.888 205.204,144.442 L204.574,143.602 C207.556,142.132 209.404,139.668 210.132,136.224 L204.854,136.224 L204.854,135.244 Z M224.328,144.246 L222.186,144.246 L221.948,143.196 C222.648,143.252 223.32,143.28 223.95,143.28 C224.468,143.28 224.734,143.014 224.734,142.496 L224.734,131.772 L225.77,131.772 L225.77,142.762 C225.77,143.742 225.28,144.246 224.328,144.246 Z M220.982,135.02 L221.99,135.412 C221.318,138.212 220.436,140.34 219.344,141.796 L218.476,141.026 C219.596,139.542 220.422,137.54 220.982,135.02 Z M228.934,134.684 C230.04,137.19 230.894,139.374 231.482,141.236 L230.586,141.866 C229.956,139.878 229.102,137.68 228.024,135.258 L228.934,134.684 Z" id="不要改变图标元素-的位置和大小" fill="#000000"></path>
        <g id="no_icon" transform="translate(222.000000, 66.000000)" stroke="#EA4747" stroke-width="0.923076923">
            <circle id="Oval" cx="6" cy="6" r="6"></circle>
            <path d="M2.30769231,2.30769231 L10.1674091,10.1674091" id="Line" stroke-linecap="square"></path>
        </g>
        <g id="app-icon" transform="translate(147.000000, 10.000000)">
            <mask id="mask-10" fill="white">
                <use xlink:href="#path-9"></use>
            </mask>
            <use fill="url(#linearGradient-5)" xlink:href="#path-9"></use>
            <g id="logo" filter="url(#filter-11)" mask="url(#mask-10)">
                <g transform="translate(12.250000, 12.250000)">
                    <path d="M2.35316667,26.5895173 C1.064,28.1216337 0.29925,30.029177 0.29925,32.0969493 C0.29925,34.5799134 1.40175,36.8318905 3.19083333,38.4797927 C4.19358333,39.8277042 1.54816667,41.2241522 2.98783333,41.2241522 C2.98783333,41.2241522 10.2678333,41.2428651 10.4883333,41.2428651 C11.63225,41.2428651 12.7324167,41.0738645 13.7596667,40.7615934 C5.74466667,36.9289635 3.12608333,30.9817791 2.35316667,26.5895173" id="Fill-14" fill="#8F7CE0"></path>
                    <path d="M41.9000167,31.7257435 C39.8595167,34.4736117 44.3027667,37.1805455 42.3130167,37.3214768 C42.3130167,37.3214768 27.4992667,37.3600721 27.0506833,37.3600721 C15.6004333,37.3600721 6.31843333,29.0112076 6.31843333,18.7126959 C6.31843333,8.4141841 15.6004333,0.0653196163 27.0506833,0.0653196163 C38.5015167,0.0653196163 47.7829333,8.4141841 47.7829333,18.7126959 C47.7829333,23.7745275 45.5411833,28.3661983 41.9000167,31.7257435 Z M33.3524333,27.1668202 C36.1734333,26.7083549 37.9502667,24.7569533 37.9502667,21.9886179 C37.9502667,20.4576711 37.1966,18.9337416 35.54985,17.9314335 C36.8057667,17.0039768 37.4200167,15.7695121 37.4200167,14.409905 C37.4200167,11.9199236 35.8619333,10.1422008 33.3524333,9.63753806 L33.3524333,8.60072803 C33.3524333,8.47441615 33.25035,8.37149536 33.12435,8.37149536 L32.3135167,8.37149536 C32.1875167,8.37149536 32.0854333,8.47441615 32.0854333,8.60072803 L32.0854333,9.49660675 C31.9996833,9.49368286 31.91335,9.4925133 31.82585,9.4925133 L27.5745167,9.4925133 L27.5745167,8.60072803 C27.5745167,8.47441615 27.4724333,8.37149536 27.3464333,8.37149536 L26.5350167,8.37149536 C26.4096,8.37149536 26.3075167,8.47441615 26.3075167,8.60072803 L26.3075167,9.54338892 L23.9852667,9.54338892 C23.8400167,9.54338892 23.7221833,9.66151392 23.7221833,9.80770823 L23.7221833,11.3673091 C23.7221833,11.5135034 23.8400167,11.6322132 23.9852667,11.6322132 L25.34385,11.6322132 L25.34385,25.1317955 L24.0395167,25.1317955 C23.8919333,25.1317955 23.7729333,25.25109 23.7729333,25.3990387 L23.7729333,27.0036674 C23.7729333,27.1510313 23.8919333,27.2709106 24.0395167,27.2709106 L26.3075167,27.2709106 L26.3075167,28.51941 C26.3075167,28.6451371 26.4096,28.7480579 26.5350167,28.7480579 L27.3464333,28.7480579 C27.4724333,28.7480579 27.5745167,28.6451371 27.5745167,28.51941 L27.5745167,27.2709106 L29.7410167,27.2709106 L32.0276833,27.2709106 L32.0854333,27.2709106 L32.0854333,28.51941 C32.0854333,28.6451371 32.1875167,28.7480579 32.3135167,28.7480579 L33.12435,28.7480579 C33.25035,28.7480579 33.3524333,28.6451371 33.3524333,28.51941 L33.3524333,27.1668202 Z M31.5671417,19.3243144 C33.552225,19.3243144 34.9913083,20.5295402 34.9913083,22.0090266 C34.9913083,23.7434759 33.984475,24.7235625 32.0273917,24.7235625 L28.2841417,24.7235625 L28.2841417,19.3243144 L31.5671417,19.3243144 Z M34.4444917,14.4239397 C34.4444917,15.7578165 33.1494917,16.7764985 31.3942417,16.7764985 L28.2839083,16.7764985 L28.2839083,12.0398029 L31.8259083,12.0398029 C33.5817417,12.0398029 34.4444917,12.9105362 34.4444917,14.4239397 Z" id="Combined-Shape" fill="#FFFFFF"></path>
                </g>
            </g>
        </g>
        <path d="M1.05,112.29 L12.95,112.29 L12.95,113.284 L8.386,113.284 C8.134,113.858 7.84,114.418 7.518,114.95 L7.518,124.428 L6.482,124.428 L6.482,116.434 C5.166,118.072 3.444,119.528 1.316,120.802 L0.658,119.92 C3.822,118.1 6.034,115.888 7.266,113.284 L1.05,113.284 L1.05,112.29 Z M9.282,116.056 C10.892,117.33 12.236,118.604 13.328,119.878 L12.558,120.662 C11.578,119.43 10.248,118.128 8.554,116.742 L9.282,116.056 Z M14.812,112.122 L27.188,112.122 L27.188,113.032 L23.058,113.032 L23.058,114.278 L26.32,114.278 L26.32,117.806 L20.496,117.806 C20.244,118.254 20.006,118.66 19.782,119.052 L27.356,119.052 L27.356,119.976 L24.346,119.976 C24.066,120.816 23.548,121.53 22.806,122.132 C24.234,122.566 25.69,123.07 27.174,123.658 L26.544,124.484 C25.004,123.826 23.45,123.252 21.896,122.748 C20.566,123.462 18.382,124.022 15.358,124.428 L14.98,123.532 C17.472,123.238 19.362,122.846 20.622,122.356 C19.46,122.006 18.298,121.698 17.136,121.432 C17.472,120.942 17.78,120.452 18.088,119.976 L14.63,119.976 L14.63,119.052 L18.648,119.052 C18.9,118.618 19.138,118.198 19.362,117.806 L15.68,117.806 L15.68,114.278 L18.942,114.278 L18.942,113.032 L14.812,113.032 L14.812,112.122 Z M21.728,121.81 C22.512,121.32 23.044,120.704 23.324,119.976 L19.236,119.976 C18.998,120.354 18.774,120.704 18.564,121.012 C19.6,121.236 20.65,121.502 21.728,121.81 Z M22.092,114.278 L22.092,113.032 L19.908,113.032 L19.908,114.278 L22.092,114.278 Z M25.354,116.938 L25.354,115.16 L23.058,115.16 L23.058,116.938 L25.354,116.938 Z M22.092,116.938 L22.092,115.16 L19.908,115.16 L19.908,116.938 L22.092,116.938 Z M18.942,116.938 L18.942,115.16 L16.646,115.16 L16.646,116.938 L18.942,116.938 Z M38.696,114.544 C39.76,115.244 40.642,115.944 41.37,116.644 L40.67,117.344 C40.026,116.672 39.144,115.944 38.024,115.188 L38.696,114.544 Z M35.14,111.394 C35.308,111.814 35.462,112.276 35.616,112.794 L41.02,112.794 L41.02,113.774 L37.156,113.774 L37.156,117.554 L36.148,117.554 L36.148,113.774 L33.866,113.774 L33.866,117.554 L32.858,117.554 L32.858,113.774 L28.98,113.774 L28.98,112.794 L34.594,112.794 C34.426,112.346 34.244,111.926 34.048,111.562 L35.14,111.394 Z M31.318,114.586 L32.06,115.244 C31.304,116.042 30.366,116.756 29.26,117.372 L28.644,116.56 C29.708,116 30.59,115.342 31.318,114.586 Z M29.932,118.296 L39.494,118.296 L39.494,119.066 C38.57,120.214 37.436,121.194 36.092,121.992 C37.604,122.65 39.396,123.126 41.454,123.406 L40.992,124.33 C38.682,123.938 36.722,123.336 35.112,122.524 C33.432,123.35 31.458,123.952 29.218,124.33 L28.756,123.378 C30.772,123.084 32.536,122.608 34.076,121.95 C32.83,121.166 31.822,120.256 31.038,119.192 L29.932,119.192 L29.932,118.296 Z M32.158,119.192 C32.914,120.088 33.88,120.858 35.042,121.488 C36.246,120.844 37.268,120.074 38.136,119.192 L32.158,119.192 Z M42.868,112.108 L49.854,112.108 L49.854,113.06 L48.454,113.06 L48.454,117.106 L50.064,117.106 L50.064,118.072 L48.454,118.072 L48.454,124.302 L47.432,124.302 L47.432,118.072 L45.332,118.072 C45.22,120.914 44.562,123.014 43.372,124.358 L42.616,123.7 C43.638,122.496 44.198,120.62 44.296,118.072 L42.616,118.072 L42.616,117.106 L44.31,117.106 L44.31,113.06 L42.868,113.06 L42.868,112.108 Z M45.346,113.06 L45.346,117.106 L47.432,117.106 L47.432,113.06 L45.346,113.06 Z M53.942,111.604 L54.6,112.36 C53.466,113.536 52.052,114.516 50.344,115.3 L49.91,114.376 C51.534,113.676 52.878,112.752 53.942,111.604 Z M54.544,115.398 L55.202,116.154 C54.054,117.414 52.64,118.464 50.932,119.304 L50.498,118.394 C52.136,117.638 53.48,116.63 54.544,115.398 Z M54.894,119.276 L55.566,120.032 C54.138,121.768 52.36,123.196 50.232,124.33 L49.798,123.392 C51.856,122.356 53.55,120.984 54.894,119.276 Z M61.656,113.382 L62.552,113.494 C62.44,113.76 62.328,114.012 62.188,114.264 L65.884,114.264 L65.884,114.964 C65.492,115.706 64.904,116.364 64.106,116.924 C65.044,117.372 66.108,117.75 67.312,118.03 L66.78,118.786 C65.422,118.422 64.26,117.974 63.28,117.428 C62.202,118.002 60.872,118.464 59.276,118.814 L58.828,118.002 C60.27,117.75 61.488,117.386 62.468,116.924 C61.922,116.56 61.446,116.168 61.054,115.748 C60.634,116.14 60.158,116.504 59.626,116.84 L59.066,116.112 C60.34,115.356 61.208,114.446 61.656,113.382 Z M63.28,116.49 C63.966,116.07 64.498,115.58 64.876,115.02 L61.698,115.02 C61.642,115.076 61.6,115.132 61.572,115.188 C62.062,115.664 62.636,116.098 63.28,116.49 Z M60.508,120.256 C62.37,120.606 64.162,121.11 65.87,121.754 L65.534,122.566 C63.798,121.894 61.992,121.376 60.116,121.012 L60.508,120.256 Z M61.964,118.296 C63.056,118.66 64.064,119.108 64.974,119.612 L64.498,120.34 C63.532,119.752 62.538,119.304 61.502,118.968 L61.964,118.296 Z M68.712,112.178 L68.712,124.4 L67.732,124.4 L67.732,123.826 L58.268,123.826 L58.268,124.4 L57.288,124.4 L57.288,112.178 L68.712,112.178 Z M58.268,122.93 L67.732,122.93 L67.732,113.074 L58.268,113.074 L58.268,122.93 Z M72.674,111.604 L73.668,111.604 L73.668,114.25 L75.292,114.25 L75.292,115.216 L73.668,115.216 L73.668,116.294 C74.354,116.994 75.04,117.778 75.726,118.632 L75.152,119.486 C74.578,118.604 74.088,117.904 73.668,117.372 L73.668,124.386 L72.674,124.386 L72.674,117.414 C72.226,118.73 71.652,119.934 70.952,121.026 L70.518,119.934 C71.526,118.562 72.24,116.98 72.674,115.216 L70.966,115.216 L70.966,114.25 L72.674,114.25 L72.674,111.604 Z M76.804,117.932 L77.728,118.142 C77.28,120.102 76.622,121.782 75.782,123.21 L74.914,122.65 C75.782,121.236 76.412,119.668 76.804,117.932 Z M81.872,117.862 C82.46,119.444 82.964,121.138 83.384,122.93 L82.474,123.336 C82.012,121.39 81.508,119.668 80.962,118.156 L81.872,117.862 Z M78.736,124.246 L77.308,124.246 L77.112,123.308 C77.56,123.336 77.98,123.364 78.386,123.364 C78.764,123.364 78.96,123.154 78.96,122.748 L78.96,116.77 L75.544,116.77 L75.544,115.804 L83.398,115.804 L83.398,116.77 L79.968,116.77 L79.968,123 C79.968,123.826 79.548,124.246 78.736,124.246 Z M76.286,112.402 L82.67,112.402 L82.67,113.354 L76.286,113.354 L76.286,112.402 Z" id="不要变形图标" fill="#000000"></path>
        <g id="no_icon" transform="translate(75.000000, 66.000000)" stroke="#EA4747" stroke-width="0.923076923">
            <circle id="Oval" cx="6" cy="6" r="6"></circle>
            <path d="M2.30769231,2.30769231 L10.1674091,10.1674091" id="Line" stroke-linecap="square"></path>
        </g>
        <g id="app-icon" transform="translate(0.000000, 9.000000)">
            <path d="M41.956,0 C41.12,0 40.284,0 39.447,0.005 C38.74,0.01 38.033,0.018 37.323,0.036 C35.774,0.078 34.194,0.168 32.581,0.441 C30.944,0.717 29.352,1.169 27.703,1.881 C26.08,2.581 24.499,3.495 23.024,4.585 C21.548,5.676 20.191,6.932 19.003,8.308 C17.797,9.706 16.839,11.139 16.018,12.679 C15.21,14.195 14.572,15.743 13.989,17.277 C13.722,17.981 13.464,18.686 13.211,19.389 C12.91,20.225 12.614,21.061 12.319,21.897 L3.056,48.102 C2.761,48.939 2.466,49.774 2.176,50.611 C1.93,51.314 1.691,52.02 1.462,52.723 C0.959,54.257 0.504,55.803 0.239,57.32 C-0.028,58.861 -0.084,60.295 0.135,61.693 C0.349,63.067 0.819,64.325 1.525,65.415 C2.227,66.506 3.163,67.419 4.291,68.119 C5.437,68.831 6.71,69.282 8.151,69.559 C9.572,69.831 11.087,69.923 12.607,69.964 C13.304,69.982 14.006,69.99 14.709,69.995 C15.542,70 16.379,70 17.214,70 L43.42,70 C44.256,70 45.093,70 45.93,69.995 C46.636,69.99 47.343,69.982 48.054,69.964 C49.603,69.923 51.182,69.831 52.796,69.559 C54.433,69.282 56.025,68.831 57.674,68.119 C59.297,67.419 60.876,66.506 62.353,65.415 C63.83,64.325 65.187,63.067 66.372,61.693 C67.579,60.295 68.539,58.861 69.359,57.32 C70.167,55.803 70.804,54.257 71.388,52.723 C71.654,52.02 71.913,51.314 72.166,50.611 C72.466,49.774 72.761,48.939 73.057,48.102 L82.318,21.897 C82.615,21.061 82.91,20.225 83.201,19.389 C83.444,18.686 83.686,17.981 83.915,17.277 C84.417,15.743 84.874,14.195 85.137,12.679 C85.405,11.139 85.46,9.706 85.242,8.308 C85.027,6.932 84.558,5.676 83.853,4.585 C83.146,3.495 82.214,2.581 81.086,1.881 C79.94,1.169 78.666,0.717 77.226,0.441 C75.804,0.168 74.29,0.078 72.77,0.036 C72.072,0.018 71.372,0.01 70.668,0.005 C69.835,0 68.998,0 68.161,0 L41.956,0 Z" id="Fill-1" fill="url(#linearGradient-5)"></path>
            <path d="M20.9339,38.8398 C19.1029,40.3718 17.6639,42.2788 16.9339,44.3468 C16.0559,46.8298 16.3619,49.0818 17.5689,50.7298 C18.0959,52.0778 14.9559,53.4748 16.3959,53.4748 C16.3959,53.4748 23.6689,53.4928 23.8899,53.4928 C25.0339,53.4928 26.1939,53.3238 27.3309,53.0118 C20.6709,49.1788 20.1549,43.2318 20.9339,38.8398" id="Fill-4" fill="#8F7CE0"></path>
            <path d="M49.2161,31.0488 C48.7441,32.3828 47.0901,33.4018 45.3341,33.4018 L42.2241,33.4018 L43.8991,28.6648 L47.4411,28.6648 C49.1961,28.6648 49.7511,29.5358 49.2161,31.0488 Z M44.6071,35.9488 C46.5921,35.9488 47.6051,37.1538 47.0821,38.6338 C46.4691,40.3678 45.1151,41.3488 43.1591,41.3488 L39.4151,41.3488 L41.3241,35.9488 L44.6071,35.9488 Z M43.6201,43.7918 C46.6031,43.3328 49.0701,41.3818 50.0481,38.6128 C50.5891,37.0828 50.3741,35.5588 49.0821,34.5568 C50.6651,33.6288 51.7161,32.3948 52.1961,31.0348 C53.0761,28.5448 52.1471,26.7668 49.8161,26.2628 L50.1831,25.2258 C50.2271,25.0998 50.1611,24.9968 50.0351,24.9968 L49.2251,24.9968 C49.0991,24.9968 48.9601,25.0998 48.9151,25.2258 L48.5991,26.1218 C48.5141,26.1188 48.4281,26.1178 48.3411,26.1178 L44.0891,26.1178 L44.4041,25.2258 C44.4491,25.0998 44.3831,24.9968 44.2571,24.9968 L43.4461,24.9968 C43.3201,24.9968 43.1821,25.0998 43.1371,25.2258 L42.8041,26.1688 L40.4821,26.1688 C40.3371,26.1688 40.1771,26.2868 40.1261,26.4328 L39.5741,27.9918 C39.5231,28.1388 39.5981,28.2568 39.7441,28.2568 L41.1021,28.2568 L36.3311,41.7568 L35.0271,41.7568 C34.8791,41.7568 34.7181,41.8758 34.6661,42.0248 L34.0981,43.6288 C34.0461,43.7768 34.1231,43.8958 34.2711,43.8958 L36.5381,43.8958 L36.0971,45.1448 C36.0531,45.2708 36.1181,45.3728 36.2441,45.3728 L37.0551,45.3728 C37.1811,45.3728 37.3201,45.2708 37.3641,45.1448 L37.8051,43.8958 L39.9721,43.8958 L42.2581,43.8958 L42.3171,43.8958 L41.8751,45.1448 C41.8311,45.2708 41.8961,45.3728 42.0221,45.3728 L42.8331,45.3728 C42.9591,45.3728 43.0981,45.2708 43.1421,45.1448 L43.6201,43.7918 Z M54.4941,48.3508 C51.4831,51.0988 54.9691,53.8058 52.9291,53.9458 C52.9291,53.9458 38.1021,53.9858 37.6531,53.9858 C26.2031,53.9858 19.8721,45.6358 23.5121,35.3378 C27.1521,25.0388 39.3841,16.6908 50.8351,16.6908 C62.2851,16.6908 68.6161,25.0388 64.9761,35.3378 C63.1871,40.3998 59.3221,44.9908 54.4941,48.3508 Z" id="Fill-6" fill="#FFFFFF"></path>
        </g>
    </g>
</svg>